<svg xmlns="http://www.w3.org/2000/svg" xmlns:xlink="http://www.w3.org/1999/xlink" width="500" zoomAndPan="magnify" viewBox="0 0 375 374.999991" height="500" preserveAspectRatio="xMidYMid meet" version="1.0"><defs><filter x="0%" y="0%" width="100%" height="100%" id="917e41c7e7"><feColorMatrix values="0 0 0 0 1 0 0 0 0 1 0 0 0 0 1 0 0 0 1 0" color-interpolation-filters="sRGB"/></filter><g/><mask id="0d6f95b839"><g filter="url(#917e41c7e7)"><rect x="-37.5" width="450" fill="#000000" y="-37.499999" height="449.999989" fill-opacity="0.1"/></g></mask><clipPath id="640e33d14b"><path d="M 1 49 L 17 49 L 17 70 L 1 70 Z M 1 49 " clip-rule="nonzero"/></clipPath><clipPath id="df2db418eb"><path d="M 0.375 56.398438 L 110.695312 0.328125 L 166.765625 110.648438 L 56.445312 166.714844 Z M 0.375 56.398438 " clip-rule="nonzero"/></clipPath><clipPath id="25a2cb7e63"><path d="M 0.375 56.398438 L 110.695312 0.328125 L 166.765625 110.648438 L 56.445312 166.714844 Z M 0.375 56.398438 " clip-rule="nonzero"/></clipPath><clipPath id="218d0ae12a"><path d="M 95 0.160156 L 118 0.160156 L 118 16 L 95 16 Z M 95 0.160156 " clip-rule="nonzero"/></clipPath><clipPath id="57be5cf034"><path d="M 0.375 56.398438 L 110.695312 0.328125 L 166.765625 110.648438 L 56.445312 166.714844 Z M 0.375 56.398438 " clip-rule="nonzero"/></clipPath><clipPath id="8147f4c062"><path d="M 0.375 56.398438 L 110.695312 0.328125 L 166.765625 110.648438 L 56.445312 166.714844 Z M 0.375 56.398438 " clip-rule="nonzero"/></clipPath><clipPath id="ecd44bd3d2"><path d="M 50 151 L 72 151 L 72 166.71875 L 50 166.71875 Z M 50 151 " clip-rule="nonzero"/></clipPath><clipPath id="f45c302a12"><path d="M 0.375 56.398438 L 110.695312 0.328125 L 166.765625 110.648438 L 56.445312 166.714844 Z M 0.375 56.398438 " clip-rule="nonzero"/></clipPath><clipPath id="4e7fa7bec7"><path d="M 0.375 56.398438 L 110.695312 0.328125 L 166.765625 110.648438 L 56.445312 166.714844 Z M 0.375 56.398438 " clip-rule="nonzero"/></clipPath><clipPath id="8ccbf64604"><path d="M 150 97 L 166.960938 97 L 166.960938 118 L 150 118 Z M 150 97 " clip-rule="nonzero"/></clipPath><clipPath id="11f8dd0952"><path d="M 0.375 56.398438 L 110.695312 0.328125 L 166.765625 110.648438 L 56.445312 166.714844 Z M 0.375 56.398438 " clip-rule="nonzero"/></clipPath><clipPath id="4669dd86d9"><path d="M 0.375 56.398438 L 110.695312 0.328125 L 166.765625 110.648438 L 56.445312 166.714844 Z M 0.375 56.398438 " clip-rule="nonzero"/></clipPath><clipPath id="7b6ccea8f9"><path d="M 50 45 L 58 45 L 58 57 L 50 57 Z M 50 45 " clip-rule="nonzero"/></clipPath><clipPath id="2fba33be9d"><path d="M 0.375 56.398438 L 110.695312 0.328125 L 166.765625 110.648438 L 56.445312 166.714844 Z M 0.375 56.398438 " clip-rule="nonzero"/></clipPath><clipPath id="a6486a779c"><path d="M 0.375 56.398438 L 110.695312 0.328125 L 166.765625 110.648438 L 56.445312 166.714844 Z M 0.375 56.398438 " clip-rule="nonzero"/></clipPath><clipPath id="c0454f742d"><path d="M 43 48 L 51 48 L 51 60 L 43 60 Z M 43 48 " clip-rule="nonzero"/></clipPath><clipPath id="1db860c4ab"><path d="M 0.375 56.398438 L 110.695312 0.328125 L 166.765625 110.648438 L 56.445312 166.714844 Z M 0.375 56.398438 " clip-rule="nonzero"/></clipPath><clipPath id="c5adf3696b"><path d="M 0.375 56.398438 L 110.695312 0.328125 L 166.765625 110.648438 L 56.445312 166.714844 Z M 0.375 56.398438 " clip-rule="nonzero"/></clipPath><clipPath id="b5e4625059"><path d="M 57 41 L 78 41 L 78 50 L 57 50 Z M 57 41 " clip-rule="nonzero"/></clipPath><clipPath id="f542e9f0b6"><path d="M 0.375 56.398438 L 110.695312 0.328125 L 166.765625 110.648438 L 56.445312 166.714844 Z M 0.375 56.398438 " clip-rule="nonzero"/></clipPath><clipPath id="d205467ef7"><path d="M 0.375 56.398438 L 110.695312 0.328125 L 166.765625 110.648438 L 56.445312 166.714844 Z M 0.375 56.398438 " clip-rule="nonzero"/></clipPath><clipPath id="faf9994c59"><path d="M 63 59 L 76 59 L 76 70 L 63 70 Z M 63 59 " clip-rule="nonzero"/></clipPath><clipPath id="f6ddad30b6"><path d="M 0.375 56.398438 L 110.695312 0.328125 L 166.765625 110.648438 L 56.445312 166.714844 Z M 0.375 56.398438 " clip-rule="nonzero"/></clipPath><clipPath id="3cfc900629"><path d="M 0.375 56.398438 L 110.695312 0.328125 L 166.765625 110.648438 L 56.445312 166.714844 Z M 0.375 56.398438 " clip-rule="nonzero"/></clipPath><clipPath id="4ec597bd0d"><path d="M 48 57 L 63 57 L 63 77 L 48 77 Z M 48 57 " clip-rule="nonzero"/></clipPath><clipPath id="20509ede57"><path d="M 0.375 56.398438 L 110.695312 0.328125 L 166.765625 110.648438 L 56.445312 166.714844 Z M 0.375 56.398438 " clip-rule="nonzero"/></clipPath><clipPath id="eef99cd61d"><path d="M 0.375 56.398438 L 110.695312 0.328125 L 166.765625 110.648438 L 56.445312 166.714844 Z M 0.375 56.398438 " clip-rule="nonzero"/></clipPath><clipPath id="ff2fbe633b"><path d="M 73 63 L 97 63 L 97 89 L 73 89 Z M 73 63 " clip-rule="nonzero"/></clipPath><clipPath id="d628097187"><path d="M 0.375 56.398438 L 110.695312 0.328125 L 166.765625 110.648438 L 56.445312 166.714844 Z M 0.375 56.398438 " clip-rule="nonzero"/></clipPath><clipPath id="171591844c"><path d="M 0.375 56.398438 L 110.695312 0.328125 L 166.765625 110.648438 L 56.445312 166.714844 Z M 0.375 56.398438 " clip-rule="nonzero"/></clipPath><clipPath id="a29a43192b"><path d="M 74 90 L 89 90 L 89 105 L 74 105 Z M 74 90 " clip-rule="nonzero"/></clipPath><clipPath id="1dc9560617"><path d="M 0.375 56.398438 L 110.695312 0.328125 L 166.765625 110.648438 L 56.445312 166.714844 Z M 0.375 56.398438 " clip-rule="nonzero"/></clipPath><clipPath id="2021cdc853"><path d="M 0.375 56.398438 L 110.695312 0.328125 L 166.765625 110.648438 L 56.445312 166.714844 Z M 0.375 56.398438 " clip-rule="nonzero"/></clipPath><clipPath id="4f9d85a3f8"><path d="M 15 51 L 51 51 L 51 87 L 15 87 Z M 15 51 " clip-rule="nonzero"/></clipPath><clipPath id="83d08fd956"><path d="M 0.375 56.398438 L 110.695312 0.328125 L 166.765625 110.648438 L 56.445312 166.714844 Z M 0.375 56.398438 " clip-rule="nonzero"/></clipPath><clipPath id="687403f3db"><path d="M 0.375 56.398438 L 110.695312 0.328125 L 166.765625 110.648438 L 56.445312 166.714844 Z M 0.375 56.398438 " clip-rule="nonzero"/></clipPath><clipPath id="d0d6606d38"><path d="M 24 60 L 42 60 L 42 78 L 24 78 Z M 24 60 " clip-rule="nonzero"/></clipPath><clipPath id="c542147826"><path d="M 0.375 56.398438 L 110.695312 0.328125 L 166.765625 110.648438 L 56.445312 166.714844 Z M 0.375 56.398438 " clip-rule="nonzero"/></clipPath><clipPath id="a0e20d0ca4"><path d="M 0.375 56.398438 L 110.695312 0.328125 L 166.765625 110.648438 L 56.445312 166.714844 Z M 0.375 56.398438 " clip-rule="nonzero"/></clipPath><clipPath id="b33e85f694"><path d="M 47 115 L 83 115 L 83 151 L 47 151 Z M 47 115 " clip-rule="nonzero"/></clipPath><clipPath id="7007a3fcbf"><path d="M 0.375 56.398438 L 110.695312 0.328125 L 166.765625 110.648438 L 56.445312 166.714844 Z M 0.375 56.398438 " clip-rule="nonzero"/></clipPath><clipPath id="bd8b24752c"><path d="M 0.375 56.398438 L 110.695312 0.328125 L 166.765625 110.648438 L 56.445312 166.714844 Z M 0.375 56.398438 " clip-rule="nonzero"/></clipPath><clipPath id="c589cb457c"><path d="M 56 124 L 74 124 L 74 142 L 56 142 Z M 56 124 " clip-rule="nonzero"/></clipPath><clipPath id="d110cd8ba3"><path d="M 0.375 56.398438 L 110.695312 0.328125 L 166.765625 110.648438 L 56.445312 166.714844 Z M 0.375 56.398438 " clip-rule="nonzero"/></clipPath><clipPath id="34e632c5cc"><path d="M 0.375 56.398438 L 110.695312 0.328125 L 166.765625 110.648438 L 56.445312 166.714844 Z M 0.375 56.398438 " clip-rule="nonzero"/></clipPath><clipPath id="2d496849f6"><path d="M 84 16 L 120 16 L 120 52 L 84 52 Z M 84 16 " clip-rule="nonzero"/></clipPath><clipPath id="8ffa0d5688"><path d="M 0.375 56.398438 L 110.695312 0.328125 L 166.765625 110.648438 L 56.445312 166.714844 Z M 0.375 56.398438 " clip-rule="nonzero"/></clipPath><clipPath id="1506fdc634"><path d="M 0.375 56.398438 L 110.695312 0.328125 L 166.765625 110.648438 L 56.445312 166.714844 Z M 0.375 56.398438 " clip-rule="nonzero"/></clipPath><clipPath id="3514a09beb"><path d="M 93 25 L 111 25 L 111 43 L 93 43 Z M 93 25 " clip-rule="nonzero"/></clipPath><clipPath id="68d1ee5226"><path d="M 0.375 56.398438 L 110.695312 0.328125 L 166.765625 110.648438 L 56.445312 166.714844 Z M 0.375 56.398438 " clip-rule="nonzero"/></clipPath><clipPath id="bf381e66ec"><path d="M 0.375 56.398438 L 110.695312 0.328125 L 166.765625 110.648438 L 56.445312 166.714844 Z M 0.375 56.398438 " clip-rule="nonzero"/></clipPath><clipPath id="1ce7830626"><path d="M 116 80 L 152 80 L 152 116 L 116 116 Z M 116 80 " clip-rule="nonzero"/></clipPath><clipPath id="88f5772639"><path d="M 0.375 56.398438 L 110.695312 0.328125 L 166.765625 110.648438 L 56.445312 166.714844 Z M 0.375 56.398438 " clip-rule="nonzero"/></clipPath><clipPath id="2567d85d55"><path d="M 0.375 56.398438 L 110.695312 0.328125 L 166.765625 110.648438 L 56.445312 166.714844 Z M 0.375 56.398438 " clip-rule="nonzero"/></clipPath><clipPath id="0a88beef12"><path d="M 125 89 L 143 89 L 143 107 L 125 107 Z M 125 89 " clip-rule="nonzero"/></clipPath><clipPath id="e4c245691a"><path d="M 0.375 56.398438 L 110.695312 0.328125 L 166.765625 110.648438 L 56.445312 166.714844 Z M 0.375 56.398438 " clip-rule="nonzero"/></clipPath><clipPath id="ebf8a12735"><path d="M 0.375 56.398438 L 110.695312 0.328125 L 166.765625 110.648438 L 56.445312 166.714844 Z M 0.375 56.398438 " clip-rule="nonzero"/></clipPath><clipPath id="e1c0ea22bd"><path d="M 35 82 L 71 82 L 71 105 L 35 105 Z M 35 82 " clip-rule="nonzero"/></clipPath><clipPath id="11a4adcb97"><path d="M 0.375 56.398438 L 110.695312 0.328125 L 166.765625 110.648438 L 56.445312 166.714844 Z M 0.375 56.398438 " clip-rule="nonzero"/></clipPath><clipPath id="15beed9774"><path d="M 0.375 56.398438 L 110.695312 0.328125 L 166.765625 110.648438 L 56.445312 166.714844 Z M 0.375 56.398438 " clip-rule="nonzero"/></clipPath><clipPath id="2fb7b9fb35"><path d="M 43 79 L 55 79 L 55 87 L 43 87 Z M 43 79 " clip-rule="nonzero"/></clipPath><clipPath id="61cbfeec49"><path d="M 0.375 56.398438 L 110.695312 0.328125 L 166.765625 110.648438 L 56.445312 166.714844 Z M 0.375 56.398438 " clip-rule="nonzero"/></clipPath><clipPath id="0a73eb4eb8"><path d="M 0.375 56.398438 L 110.695312 0.328125 L 166.765625 110.648438 L 56.445312 166.714844 Z M 0.375 56.398438 " clip-rule="nonzero"/></clipPath><clipPath id="71c403827b"><path d="M 65 70 L 71 70 L 71 78 L 65 78 Z M 65 70 " clip-rule="nonzero"/></clipPath><clipPath id="d7d70aa336"><path d="M 0.375 56.398438 L 110.695312 0.328125 L 166.765625 110.648438 L 56.445312 166.714844 Z M 0.375 56.398438 " clip-rule="nonzero"/></clipPath><clipPath id="834167a87d"><path d="M 0.375 56.398438 L 110.695312 0.328125 L 166.765625 110.648438 L 56.445312 166.714844 Z M 0.375 56.398438 " clip-rule="nonzero"/></clipPath><clipPath id="cf81814d94"><path d="M 68 103 L 94 103 L 94 118 L 68 118 Z M 68 103 " clip-rule="nonzero"/></clipPath><clipPath id="e3392e2c9b"><path d="M 0.375 56.398438 L 110.695312 0.328125 L 166.765625 110.648438 L 56.445312 166.714844 Z M 0.375 56.398438 " clip-rule="nonzero"/></clipPath><clipPath id="ded70f0088"><path d="M 0.375 56.398438 L 110.695312 0.328125 L 166.765625 110.648438 L 56.445312 166.714844 Z M 0.375 56.398438 " clip-rule="nonzero"/></clipPath><clipPath id="80aac1426d"><path d="M 75 101 L 82 101 L 82 110 L 75 110 Z M 75 101 " clip-rule="nonzero"/></clipPath><clipPath id="f7ef920a5c"><path d="M 0.375 56.398438 L 110.695312 0.328125 L 166.765625 110.648438 L 56.445312 166.714844 Z M 0.375 56.398438 " clip-rule="nonzero"/></clipPath><clipPath id="cefa2fca30"><path d="M 0.375 56.398438 L 110.695312 0.328125 L 166.765625 110.648438 L 56.445312 166.714844 Z M 0.375 56.398438 " clip-rule="nonzero"/></clipPath><clipPath id="231df37a63"><path d="M 66 48 L 81 48 L 81 58 L 66 58 Z M 66 48 " clip-rule="nonzero"/></clipPath><clipPath id="a9e05fab0e"><path d="M 0.375 56.398438 L 110.695312 0.328125 L 166.765625 110.648438 L 56.445312 166.714844 Z M 0.375 56.398438 " clip-rule="nonzero"/></clipPath><clipPath id="b5a1a7882c"><path d="M 0.375 56.398438 L 110.695312 0.328125 L 166.765625 110.648438 L 56.445312 166.714844 Z M 0.375 56.398438 " clip-rule="nonzero"/></clipPath><clipPath id="82c7227e59"><path d="M 83 52 L 106 52 L 106 67 L 83 67 Z M 83 52 " clip-rule="nonzero"/></clipPath><clipPath id="6985049913"><path d="M 0.375 56.398438 L 110.695312 0.328125 L 166.765625 110.648438 L 56.445312 166.714844 Z M 0.375 56.398438 " clip-rule="nonzero"/></clipPath><clipPath id="7db72fcca5"><path d="M 0.375 56.398438 L 110.695312 0.328125 L 166.765625 110.648438 L 56.445312 166.714844 Z M 0.375 56.398438 " clip-rule="nonzero"/></clipPath><clipPath id="8cace42454"><path d="M 97 70 L 105 70 L 105 81 L 97 81 Z M 97 70 " clip-rule="nonzero"/></clipPath><clipPath id="a1b2ddabe9"><path d="M 0.375 56.398438 L 110.695312 0.328125 L 166.765625 110.648438 L 56.445312 166.714844 Z M 0.375 56.398438 " clip-rule="nonzero"/></clipPath><clipPath id="5f3b66ad34"><path d="M 0.375 56.398438 L 110.695312 0.328125 L 166.765625 110.648438 L 56.445312 166.714844 Z M 0.375 56.398438 " clip-rule="nonzero"/></clipPath><clipPath id="f82228e29b"><path d="M 90 86 L 102 86 L 102 98 L 90 98 Z M 90 86 " clip-rule="nonzero"/></clipPath><clipPath id="e65b73555d"><path d="M 0.375 56.398438 L 110.695312 0.328125 L 166.765625 110.648438 L 56.445312 166.714844 Z M 0.375 56.398438 " clip-rule="nonzero"/></clipPath><clipPath id="a91ac36b7c"><path d="M 0.375 56.398438 L 110.695312 0.328125 L 166.765625 110.648438 L 56.445312 166.714844 Z M 0.375 56.398438 " clip-rule="nonzero"/></clipPath><clipPath id="777bbcd567"><path d="M 90 94 L 97 94 L 97 104 L 90 104 Z M 90 94 " clip-rule="nonzero"/></clipPath><clipPath id="4f0811b3f2"><path d="M 0.375 56.398438 L 110.695312 0.328125 L 166.765625 110.648438 L 56.445312 166.714844 Z M 0.375 56.398438 " clip-rule="nonzero"/></clipPath><clipPath id="52064308ee"><path d="M 0.375 56.398438 L 110.695312 0.328125 L 166.765625 110.648438 L 56.445312 166.714844 Z M 0.375 56.398438 " clip-rule="nonzero"/></clipPath><clipPath id="8bf649dae4"><path d="M 99 84 L 111 84 L 111 105 L 99 105 Z M 99 84 " clip-rule="nonzero"/></clipPath><clipPath id="da2adaa4c2"><path d="M 0.375 56.398438 L 110.695312 0.328125 L 166.765625 110.648438 L 56.445312 166.714844 Z M 0.375 56.398438 " clip-rule="nonzero"/></clipPath><clipPath id="fd0d4ce1ae"><path d="M 0.375 56.398438 L 110.695312 0.328125 L 166.765625 110.648438 L 56.445312 166.714844 Z M 0.375 56.398438 " clip-rule="nonzero"/></clipPath><clipPath id="3a9c4e5c2b"><path d="M 104 59 L 115 59 L 115 73 L 104 73 Z M 104 59 " clip-rule="nonzero"/></clipPath><clipPath id="595a986360"><path d="M 0.375 56.398438 L 110.695312 0.328125 L 166.765625 110.648438 L 56.445312 166.714844 Z M 0.375 56.398438 " clip-rule="nonzero"/></clipPath><clipPath id="2ea50d28a1"><path d="M 0.375 56.398438 L 110.695312 0.328125 L 166.765625 110.648438 L 56.445312 166.714844 Z M 0.375 56.398438 " clip-rule="nonzero"/></clipPath><clipPath id="f2043788fd"><path d="M 102 45 L 120 45 L 120 55 L 102 55 Z M 102 45 " clip-rule="nonzero"/></clipPath><clipPath id="9f321fae46"><path d="M 0.375 56.398438 L 110.695312 0.328125 L 166.765625 110.648438 L 56.445312 166.714844 Z M 0.375 56.398438 " clip-rule="nonzero"/></clipPath><clipPath id="76122d406c"><path d="M 0.375 56.398438 L 110.695312 0.328125 L 166.765625 110.648438 L 56.445312 166.714844 Z M 0.375 56.398438 " clip-rule="nonzero"/></clipPath><clipPath id="27e66df8f5"><path d="M 111 49 L 130 49 L 130 66 L 111 66 Z M 111 49 " clip-rule="nonzero"/></clipPath><clipPath id="311d4e3cba"><path d="M 0.375 56.398438 L 110.695312 0.328125 L 166.765625 110.648438 L 56.445312 166.714844 Z M 0.375 56.398438 " clip-rule="nonzero"/></clipPath><clipPath id="49c8feb966"><path d="M 0.375 56.398438 L 110.695312 0.328125 L 166.765625 110.648438 L 56.445312 166.714844 Z M 0.375 56.398438 " clip-rule="nonzero"/></clipPath><clipPath id="171adb4cd1"><path d="M 77 120 L 95 120 L 95 134 L 77 134 Z M 77 120 " clip-rule="nonzero"/></clipPath><clipPath id="d5e99dc390"><path d="M 0.375 56.398438 L 110.695312 0.328125 L 166.765625 110.648438 L 56.445312 166.714844 Z M 0.375 56.398438 " clip-rule="nonzero"/></clipPath><clipPath id="8af6fbffb2"><path d="M 0.375 56.398438 L 110.695312 0.328125 L 166.765625 110.648438 L 56.445312 166.714844 Z M 0.375 56.398438 " clip-rule="nonzero"/></clipPath><clipPath id="9c1630a0a9"><path d="M 92 117 L 119 117 L 119 127 L 92 127 Z M 92 117 " clip-rule="nonzero"/></clipPath><clipPath id="841d6310ba"><path d="M 0.375 56.398438 L 110.695312 0.328125 L 166.765625 110.648438 L 56.445312 166.714844 Z M 0.375 56.398438 " clip-rule="nonzero"/></clipPath><clipPath id="d9ebd774a7"><path d="M 0.375 56.398438 L 110.695312 0.328125 L 166.765625 110.648438 L 56.445312 166.714844 Z M 0.375 56.398438 " clip-rule="nonzero"/></clipPath><clipPath id="74def3a62c"><path d="M 108 104 L 123 104 L 123 119 L 108 119 Z M 108 104 " clip-rule="nonzero"/></clipPath><clipPath id="c6cfac3fdc"><path d="M 0.375 56.398438 L 110.695312 0.328125 L 166.765625 110.648438 L 56.445312 166.714844 Z M 0.375 56.398438 " clip-rule="nonzero"/></clipPath><clipPath id="c12071e603"><path d="M 0.375 56.398438 L 110.695312 0.328125 L 166.765625 110.648438 L 56.445312 166.714844 Z M 0.375 56.398438 " clip-rule="nonzero"/></clipPath><clipPath id="9d85a03aa5"><path d="M 89 105 L 113 105 L 113 120 L 89 120 Z M 89 105 " clip-rule="nonzero"/></clipPath><clipPath id="5e59e1841f"><path d="M 0.375 56.398438 L 110.695312 0.328125 L 166.765625 110.648438 L 56.445312 166.714844 Z M 0.375 56.398438 " clip-rule="nonzero"/></clipPath><clipPath id="a5452cc844"><path d="M 0.375 56.398438 L 110.695312 0.328125 L 166.765625 110.648438 L 56.445312 166.714844 Z M 0.375 56.398438 " clip-rule="nonzero"/></clipPath><clipPath id="01dddb5a3b"><path d="M 105 76 L 122 76 L 122 90 L 105 90 Z M 105 76 " clip-rule="nonzero"/></clipPath><clipPath id="948d321b1e"><path d="M 0.375 56.398438 L 110.695312 0.328125 L 166.765625 110.648438 L 56.445312 166.714844 Z M 0.375 56.398438 " clip-rule="nonzero"/></clipPath><clipPath id="25d751b334"><path d="M 0.375 56.398438 L 110.695312 0.328125 L 166.765625 110.648438 L 56.445312 166.714844 Z M 0.375 56.398438 " clip-rule="nonzero"/></clipPath><clipPath id="ec394a4ad7"><path d="M 113 70 L 138 70 L 138 82 L 113 82 Z M 113 70 " clip-rule="nonzero"/></clipPath><clipPath id="104f081594"><path d="M 0.375 56.398438 L 110.695312 0.328125 L 166.765625 110.648438 L 56.445312 166.714844 Z M 0.375 56.398438 " clip-rule="nonzero"/></clipPath><clipPath id="78aad2f34a"><path d="M 0.375 56.398438 L 110.695312 0.328125 L 166.765625 110.648438 L 56.445312 166.714844 Z M 0.375 56.398438 " clip-rule="nonzero"/></clipPath><clipPath id="422b46752d"><path d="M 126 61 L 134 61 L 134 71 L 126 71 Z M 126 61 " clip-rule="nonzero"/></clipPath><clipPath id="ed22bd40e4"><path d="M 0.375 56.398438 L 110.695312 0.328125 L 166.765625 110.648438 L 56.445312 166.714844 Z M 0.375 56.398438 " clip-rule="nonzero"/></clipPath><clipPath id="3d76590311"><path d="M 0.375 56.398438 L 110.695312 0.328125 L 166.765625 110.648438 L 56.445312 166.714844 Z M 0.375 56.398438 " clip-rule="nonzero"/></clipPath><clipPath id="8d78de1e89"><path d="M 28 88 L 36 88 L 36 99 L 28 99 Z M 28 88 " clip-rule="nonzero"/></clipPath><clipPath id="454ef3c3ea"><path d="M 0.375 56.398438 L 110.695312 0.328125 L 166.765625 110.648438 L 56.445312 166.714844 Z M 0.375 56.398438 " clip-rule="nonzero"/></clipPath><clipPath id="51ddeeff64"><path d="M 0.375 56.398438 L 110.695312 0.328125 L 166.765625 110.648438 L 56.445312 166.714844 Z M 0.375 56.398438 " clip-rule="nonzero"/></clipPath><clipPath id="9c3884b0a5"><path d="M 35 99 L 46 99 L 46 108 L 35 108 Z M 35 99 " clip-rule="nonzero"/></clipPath><clipPath id="cf39896907"><path d="M 0.375 56.398438 L 110.695312 0.328125 L 166.765625 110.648438 L 56.445312 166.714844 Z M 0.375 56.398438 " clip-rule="nonzero"/></clipPath><clipPath id="cf5da94432"><path d="M 0.375 56.398438 L 110.695312 0.328125 L 166.765625 110.648438 L 56.445312 166.714844 Z M 0.375 56.398438 " clip-rule="nonzero"/></clipPath><clipPath id="90d1957c11"><path d="M 41 107 L 57 107 L 57 124 L 41 124 Z M 41 107 " clip-rule="nonzero"/></clipPath><clipPath id="1bded08dd2"><path d="M 0.375 56.398438 L 110.695312 0.328125 L 166.765625 110.648438 L 56.445312 166.714844 Z M 0.375 56.398438 " clip-rule="nonzero"/></clipPath><clipPath id="bb3fef53f6"><path d="M 0.375 56.398438 L 110.695312 0.328125 L 166.765625 110.648438 L 56.445312 166.714844 Z M 0.375 56.398438 " clip-rule="nonzero"/></clipPath><clipPath id="e2b70ac996"><path d="M 51 103 L 67 103 L 67 121 L 51 121 Z M 51 103 " clip-rule="nonzero"/></clipPath><clipPath id="faa6affb95"><path d="M 0.375 56.398438 L 110.695312 0.328125 L 166.765625 110.648438 L 56.445312 166.714844 Z M 0.375 56.398438 " clip-rule="nonzero"/></clipPath><clipPath id="52900c7c7f"><path d="M 0.375 56.398438 L 110.695312 0.328125 L 166.765625 110.648438 L 56.445312 166.714844 Z M 0.375 56.398438 " clip-rule="nonzero"/></clipPath><clipPath id="df4463a77c"><path d="M 78 32 L 91 32 L 91 54 L 78 54 Z M 78 32 " clip-rule="nonzero"/></clipPath><clipPath id="b6edfc4cc6"><path d="M 0.375 56.398438 L 110.695312 0.328125 L 166.765625 110.648438 L 56.445312 166.714844 Z M 0.375 56.398438 " clip-rule="nonzero"/></clipPath><clipPath id="03f11f31f6"><path d="M 0.375 56.398438 L 110.695312 0.328125 L 166.765625 110.648438 L 56.445312 166.714844 Z M 0.375 56.398438 " clip-rule="nonzero"/></clipPath><clipPath id="6b02a05702"><path d="M 67 79 L 78 79 L 78 89 L 67 89 Z M 67 79 " clip-rule="nonzero"/></clipPath><clipPath id="73835195d0"><path d="M 0.375 56.398438 L 110.695312 0.328125 L 166.765625 110.648438 L 56.445312 166.714844 Z M 0.375 56.398438 " clip-rule="nonzero"/></clipPath><clipPath id="d763a612e2"><path d="M 0.375 56.398438 L 110.695312 0.328125 L 166.765625 110.648438 L 56.445312 166.714844 Z M 0.375 56.398438 " clip-rule="nonzero"/></clipPath><clipPath id="ea9858467f"><path d="M 75 62 L 84 62 L 84 73 L 75 73 Z M 75 62 " clip-rule="nonzero"/></clipPath><clipPath id="245b67c51b"><path d="M 0.375 56.398438 L 110.695312 0.328125 L 166.765625 110.648438 L 56.445312 166.714844 Z M 0.375 56.398438 " clip-rule="nonzero"/></clipPath><clipPath id="49fc52bb4b"><path d="M 0.375 56.398438 L 110.695312 0.328125 L 166.765625 110.648438 L 56.445312 166.714844 Z M 0.375 56.398438 " clip-rule="nonzero"/></clipPath><clipPath id="8e722df54d"><rect x="0" width="167" y="0" height="167"/></clipPath><clipPath id="9204a92084"><path d="M 2 82 L 113 82 L 113 233 L 2 233 Z M 2 82 " clip-rule="nonzero"/></clipPath><clipPath id="d070151768"><path d="M 2.164062 134.105469 L 101.058594 82.070312 L 153.09375 180.964844 L 54.199219 233 Z M 2.164062 134.105469 " clip-rule="nonzero"/></clipPath><clipPath id="59c040b424"><path d="M 2.164062 134.105469 L 101.058594 82.070312 L 153.09375 180.964844 L 54.199219 233 Z M 2.164062 134.105469 " clip-rule="nonzero"/></clipPath><clipPath id="e0120541e3"><path d="M 146 6 L 298 6 L 298 117 L 146 117 Z M 146 6 " clip-rule="nonzero"/></clipPath><clipPath id="14645cb6f0"><path d="M 146.75 58.476562 L 245.648438 6.441406 L 297.683594 105.339844 L 198.785156 157.375 Z M 146.75 58.476562 " clip-rule="nonzero"/></clipPath><clipPath id="797b00305c"><path d="M 245.597656 6.46875 L 146.699219 58.503906 L 198.734375 157.402344 L 297.628906 105.367188 Z M 245.597656 6.46875 " clip-rule="nonzero"/></clipPath><clipPath id="5af5faddad"><path d="M 77 258 L 229 258 L 229 369 L 77 369 Z M 77 258 " clip-rule="nonzero"/></clipPath><clipPath id="cb1bfde384"><path d="M 77.4375 269.9375 L 176.332031 217.902344 L 228.367188 316.800781 L 129.46875 368.835938 Z M 77.4375 269.9375 " clip-rule="nonzero"/></clipPath><clipPath id="7963474c91"><path d="M 129.304688 368.523438 L 228.203125 316.488281 L 176.167969 217.59375 L 77.273438 269.625 Z M 129.304688 368.523438 " clip-rule="nonzero"/></clipPath><clipPath id="32abb74712"><path d="M 262 142 L 373 142 L 373 294 L 262 294 Z M 262 142 " clip-rule="nonzero"/></clipPath><clipPath id="76e624291a"><path d="M 222.375 194.707031 L 321.269531 142.671875 L 373.304688 241.566406 L 274.410156 293.601562 Z M 222.375 194.707031 " clip-rule="nonzero"/></clipPath><clipPath id="d0522b1e46"><path d="M 372.832031 241.421875 L 273.933594 293.453125 L 221.898438 194.558594 L 320.796875 142.523438 Z M 372.832031 241.421875 " clip-rule="nonzero"/></clipPath><clipPath id="98f28dcc10"><path d="M 112 186.546875 L 299 186.546875 L 299 222.546875 L 112 222.546875 Z M 112 186.546875 " clip-rule="nonzero"/></clipPath></defs><g mask="url(#0d6f95b839)"><g transform="matrix(1, 0, 0, 1, 104, 104)"><g clip-path="url(#8e722df54d)"><g clip-path="url(#640e33d14b)"><g clip-path="url(#df2db418eb)"><g clip-path="url(#25a2cb7e63)"><path fill="#52ae32" d="M 9.109375 69.3125 C 10.054688 68.828125 10.4375 67.660156 9.957031 66.710938 L 5.574219 58.09375 L 15.917969 52.835938 C 16.867188 52.355469 17.246094 51.183594 16.765625 50.234375 C 16.285156 49.289062 15.113281 48.90625 14.164062 49.386719 L 2.097656 55.519531 C 1.152344 56.003906 0.769531 57.171875 1.25 58.121094 L 6.507812 68.464844 C 6.988281 69.410156 8.160156 69.792969 9.109375 69.3125 Z M 9.109375 69.3125 " fill-opacity="1" fill-rule="nonzero"/></g></g></g><g clip-path="url(#218d0ae12a)"><g clip-path="url(#57be5cf034)"><g clip-path="url(#8147f4c062)"><path fill="#52ae32" d="M 108.972656 1.203125 L 96.90625 7.335938 C 95.957031 7.820312 95.574219 8.988281 96.058594 9.9375 C 96.539062 10.882812 97.707031 11.265625 98.65625 10.785156 L 109 5.527344 L 113.378906 14.144531 C 113.863281 15.09375 115.03125 15.476562 115.980469 14.992188 C 116.925781 14.511719 117.308594 13.34375 116.828125 12.394531 L 111.570312 2.050781 C 111.089844 1.105469 109.917969 0.722656 108.972656 1.203125 Z M 108.972656 1.203125 " fill-opacity="1" fill-rule="nonzero"/></g></g></g><g clip-path="url(#ecd44bd3d2)"><g clip-path="url(#f45c302a12)"><g clip-path="url(#4e7fa7bec7)"><path fill="#52ae32" d="M 68.484375 156.261719 L 58.140625 161.515625 L 53.761719 152.898438 C 53.277344 151.949219 52.109375 151.570312 51.160156 152.050781 C 50.210938 152.53125 49.832031 153.703125 50.3125 154.648438 L 55.570312 164.992188 C 56.050781 165.941406 57.222656 166.320312 58.167969 165.839844 L 70.234375 159.707031 C 71.183594 159.226562 71.5625 158.054688 71.082031 157.109375 C 70.601562 156.160156 69.429688 155.777344 68.484375 156.261719 Z M 68.484375 156.261719 " fill-opacity="1" fill-rule="nonzero"/></g></g></g><g clip-path="url(#8ccbf64604)"><g clip-path="url(#11f8dd0952)"><g clip-path="url(#4669dd86d9)"><path fill="#52ae32" d="M 158.03125 97.734375 C 157.082031 98.214844 156.703125 99.386719 157.183594 100.332031 L 161.5625 108.953125 L 151.222656 114.207031 C 150.273438 114.691406 149.890625 115.859375 150.375 116.808594 C 150.855469 117.757812 152.027344 118.136719 152.972656 117.65625 L 165.039062 111.523438 C 165.988281 111.042969 166.371094 109.871094 165.886719 108.921875 L 160.632812 98.582031 C 160.148438 97.632812 158.980469 97.25 158.03125 97.734375 Z M 158.03125 97.734375 " fill-opacity="1" fill-rule="nonzero"/></g></g></g><g clip-path="url(#7b6ccea8f9)"><g clip-path="url(#2fba33be9d)"><g clip-path="url(#a6486a779c)"><path fill="#52ae32" d="M 57.429688 53.429688 L 53.925781 46.53125 C 53.441406 45.585938 52.273438 45.203125 51.324219 45.683594 C 50.378906 46.167969 49.996094 47.335938 50.476562 48.285156 L 53.980469 55.179688 C 54.464844 56.128906 55.632812 56.507812 56.582031 56.027344 C 57.53125 55.546875 57.910156 54.375 57.429688 53.429688 Z M 57.429688 53.429688 " fill-opacity="1" fill-rule="nonzero"/></g></g></g><g clip-path="url(#c0454f742d)"><g clip-path="url(#1db860c4ab)"><g clip-path="url(#c5adf3696b)"><path fill="#52ae32" d="M 50.535156 56.933594 L 47.03125 50.039062 C 46.546875 49.089844 45.378906 48.707031 44.429688 49.191406 C 43.480469 49.671875 43.101562 50.839844 43.582031 51.789062 L 47.085938 58.683594 C 47.570312 59.632812 48.738281 60.015625 49.6875 59.53125 C 50.636719 59.050781 51.015625 57.878906 50.535156 56.933594 Z M 50.535156 56.933594 " fill-opacity="1" fill-rule="nonzero"/></g></g></g><g clip-path="url(#b5e4625059)"><g clip-path="url(#f542e9f0b6)"><g clip-path="url(#d205467ef7)"><path fill="#52ae32" d="M 63.535156 41.972656 L 58.539062 44.511719 C 57.589844 44.996094 57.207031 46.164062 57.691406 47.113281 C 58.171875 48.0625 59.34375 48.441406 60.289062 47.960938 L 63.566406 46.296875 L 64.75 48.625 C 65.230469 49.570312 66.398438 49.953125 67.347656 49.472656 L 75.964844 45.089844 C 76.914062 44.609375 77.296875 43.4375 76.8125 42.492188 C 76.332031 41.542969 75.164062 41.160156 74.214844 41.644531 L 67.320312 45.148438 L 66.136719 42.820312 C 65.65625 41.871094 64.484375 41.492188 63.535156 41.972656 Z M 63.535156 41.972656 " fill-opacity="1" fill-rule="nonzero"/></g></g></g><g clip-path="url(#faf9994c59)"><g clip-path="url(#f6ddad30b6)"><g clip-path="url(#3cfc900629)"><path fill="#52ae32" d="M 63.652344 66.316406 C 64.136719 67.261719 65.304688 67.644531 66.253906 67.164062 L 68.839844 65.847656 L 70.066406 68.261719 C 70.546875 69.210938 71.71875 69.589844 72.664062 69.109375 C 73.613281 68.628906 73.996094 67.457031 73.511719 66.507812 L 72.285156 64.097656 L 74.871094 62.78125 C 75.820312 62.300781 76.203125 61.128906 75.71875 60.183594 C 75.238281 59.234375 74.066406 58.851562 73.121094 59.335938 L 64.5 63.714844 C 63.554688 64.195312 63.171875 65.367188 63.652344 66.316406 Z M 63.652344 66.316406 " fill-opacity="1" fill-rule="nonzero"/></g></g></g><g clip-path="url(#4ec597bd0d)"><g clip-path="url(#20509ede57)"><g clip-path="url(#eef99cd61d)"><path fill="#52ae32" d="M 48.898438 64.8125 C 49.382812 65.761719 50.550781 66.140625 51.5 65.660156 L 55.378906 63.6875 L 57.261719 67.394531 L 54.503906 68.796875 C 53.554688 69.277344 53.175781 70.449219 53.65625 71.394531 L 55.757812 75.53125 C 56.242188 76.480469 57.410156 76.863281 58.359375 76.378906 C 59.308594 75.898438 59.6875 74.730469 59.207031 73.78125 L 57.980469 71.367188 L 60.738281 69.964844 C 61.6875 69.484375 62.066406 68.3125 61.585938 67.367188 L 58.824219 61.9375 L 60.980469 60.839844 C 61.929688 60.359375 62.308594 59.191406 61.828125 58.242188 C 61.347656 57.292969 60.175781 56.910156 59.226562 57.394531 L 49.746094 62.210938 C 48.800781 62.695312 48.417969 63.863281 48.898438 64.8125 Z M 48.898438 64.8125 " fill-opacity="1" fill-rule="nonzero"/></g></g></g><g clip-path="url(#ff2fbe633b)"><g clip-path="url(#d628097187)"><g clip-path="url(#171591844c)"><path fill="#52ae32" d="M 73.898438 79.003906 C 74.378906 79.949219 75.550781 80.332031 76.496094 79.851562 L 79.257812 78.449219 L 79.78125 79.484375 C 80.261719 80.429688 81.433594 80.8125 82.382812 80.332031 L 86.691406 78.140625 L 88.3125 81.328125 L 80.8125 85.140625 C 79.867188 85.621094 79.484375 86.792969 79.964844 87.738281 C 80.449219 88.6875 81.617188 89.070312 82.566406 88.585938 L 91.789062 83.898438 C 92.734375 83.417969 93.117188 82.25 92.636719 81.300781 L 90.136719 76.386719 L 93.15625 74.855469 C 94.101562 74.371094 94.484375 73.203125 94.003906 72.253906 L 92.03125 68.375 L 95.046875 66.84375 C 95.996094 66.363281 96.378906 65.191406 95.894531 64.242188 C 95.414062 63.296875 94.242188 62.914062 93.296875 63.394531 L 88.554688 65.804688 C 87.605469 66.285156 87.226562 67.457031 87.707031 68.40625 L 89.679688 72.285156 L 82.351562 76.007812 L 81.828125 74.972656 C 81.34375 74.023438 80.175781 73.644531 79.226562 74.125 L 74.746094 76.402344 C 73.796875 76.882812 73.417969 78.054688 73.898438 79.003906 Z M 73.898438 79.003906 " fill-opacity="1" fill-rule="nonzero"/></g></g></g><g clip-path="url(#a29a43192b)"><g clip-path="url(#1dc9560617)"><g clip-path="url(#2021cdc853)"><path fill="#52ae32" d="M 74.976562 98.191406 C 75.457031 99.140625 76.628906 99.523438 77.574219 99.039062 L 80.851562 97.375 L 83.699219 102.976562 C 84.179688 103.925781 85.347656 104.308594 86.296875 103.824219 C 87.246094 103.34375 87.628906 102.175781 87.144531 101.226562 L 84.296875 95.625 L 87.574219 93.960938 C 88.519531 93.476562 88.902344 92.308594 88.421875 91.359375 C 87.9375 90.410156 86.769531 90.03125 85.820312 90.511719 L 75.824219 95.59375 C 74.875 96.074219 74.492188 97.246094 74.976562 98.191406 Z M 74.976562 98.191406 " fill-opacity="1" fill-rule="nonzero"/></g></g></g><g clip-path="url(#4f9d85a3f8)"><g clip-path="url(#83d08fd956)"><g clip-path="url(#687403f3db)"><path fill="#52ae32" d="M 37.097656 51.832031 L 16.414062 62.34375 C 15.464844 62.828125 15.082031 63.996094 15.566406 64.945312 L 26.078125 85.628906 C 26.558594 86.578125 27.730469 86.960938 28.679688 86.476562 L 49.363281 75.964844 C 50.3125 75.484375 50.691406 74.3125 50.210938 73.363281 L 39.695312 52.679688 C 39.214844 51.730469 38.046875 51.351562 37.097656 51.832031 Z M 45.886719 73.394531 L 28.648438 82.152344 L 19.886719 64.917969 L 37.125 56.15625 Z M 45.886719 73.394531 " fill-opacity="1" fill-rule="nonzero"/></g></g></g><g clip-path="url(#d0d6606d38)"><g clip-path="url(#c542147826)"><g clip-path="url(#a0e20d0ca4)"><path fill="#52ae32" d="M 31.644531 77.378906 L 40.261719 72.996094 C 41.210938 72.515625 41.59375 71.347656 41.109375 70.398438 L 36.730469 61.777344 C 36.25 60.832031 35.078125 60.449219 34.128906 60.929688 L 25.511719 65.3125 C 24.5625 65.792969 24.183594 66.964844 24.664062 67.910156 L 29.042969 76.53125 C 29.527344 77.476562 30.695312 77.859375 31.644531 77.378906 Z M 28.988281 67.882812 L 34.160156 65.253906 L 36.789062 70.425781 L 31.617188 73.054688 Z M 28.988281 67.882812 " fill-opacity="1" fill-rule="nonzero"/></g></g></g><g clip-path="url(#b33e85f694)"><g clip-path="url(#7007a3fcbf)"><g clip-path="url(#bd8b24752c)"><path fill="#52ae32" d="M 58.492188 149.40625 C 58.976562 150.355469 60.144531 150.738281 61.09375 150.253906 L 81.777344 139.742188 C 82.726562 139.261719 83.105469 138.089844 82.625 137.144531 L 72.113281 116.457031 C 71.628906 115.511719 70.460938 115.128906 69.511719 115.609375 L 48.828125 126.125 C 47.878906 126.605469 47.5 127.773438 47.980469 128.722656 Z M 52.304688 128.695312 L 69.539062 119.933594 L 78.300781 137.171875 L 61.066406 145.933594 Z M 52.304688 128.695312 " fill-opacity="1" fill-rule="nonzero"/></g></g></g><g clip-path="url(#c589cb457c)"><g clip-path="url(#d110cd8ba3)"><g clip-path="url(#34e632c5cc)"><path fill="#52ae32" d="M 66.546875 124.710938 L 57.925781 129.089844 C 56.980469 129.570312 56.597656 130.742188 57.078125 131.691406 L 61.460938 140.308594 C 61.941406 141.257812 63.113281 141.636719 64.058594 141.15625 L 72.679688 136.777344 C 73.625 136.292969 74.007812 135.125 73.527344 134.175781 L 69.144531 125.558594 C 68.664062 124.609375 67.492188 124.226562 66.546875 124.710938 Z M 69.203125 134.203125 L 64.03125 136.832031 L 61.402344 131.660156 L 66.574219 129.03125 Z M 69.203125 134.203125 " fill-opacity="1" fill-rule="nonzero"/></g></g></g><g clip-path="url(#2d496849f6)"><g clip-path="url(#8ffa0d5688)"><g clip-path="url(#1506fdc634)"><path fill="#52ae32" d="M 108.648438 17.636719 C 108.164062 16.6875 106.996094 16.308594 106.046875 16.789062 L 85.363281 27.300781 C 84.414062 27.785156 84.03125 28.953125 84.515625 29.902344 L 95.027344 50.585938 C 95.507812 51.535156 96.679688 51.914062 97.628906 51.433594 L 118.3125 40.921875 C 119.261719 40.4375 119.640625 39.269531 119.160156 38.320312 Z M 114.835938 38.347656 L 97.597656 47.109375 L 88.835938 29.871094 L 106.074219 21.113281 Z M 114.835938 38.347656 " fill-opacity="1" fill-rule="nonzero"/></g></g></g><g clip-path="url(#3514a09beb)"><g clip-path="url(#68d1ee5226)"><g clip-path="url(#bf381e66ec)"><path fill="#52ae32" d="M 100.59375 42.335938 L 109.210938 37.953125 C 110.160156 37.472656 110.542969 36.300781 110.058594 35.355469 L 105.679688 26.734375 C 105.199219 25.789062 104.027344 25.40625 103.078125 25.886719 L 94.460938 30.269531 C 93.511719 30.75 93.132812 31.921875 93.613281 32.867188 L 97.992188 41.488281 C 98.476562 42.433594 99.644531 42.816406 100.59375 42.335938 Z M 97.9375 32.839844 L 103.109375 30.210938 L 105.738281 35.382812 L 100.566406 38.011719 Z M 97.9375 32.839844 " fill-opacity="1" fill-rule="nonzero"/></g></g></g><g clip-path="url(#1ce7830626)"><g clip-path="url(#88f5772639)"><g clip-path="url(#2567d85d55)"><path fill="#52ae32" d="M 130.042969 115.210938 L 150.726562 104.699219 C 151.675781 104.21875 152.054688 103.046875 151.574219 102.097656 L 141.0625 81.414062 C 140.578125 80.464844 139.410156 80.085938 138.460938 80.566406 L 117.777344 91.078125 C 116.828125 91.5625 116.449219 92.730469 116.929688 93.679688 L 127.441406 114.363281 C 127.925781 115.3125 129.09375 115.695312 130.042969 115.210938 Z M 121.253906 93.652344 L 138.492188 84.890625 L 147.25 102.128906 L 130.015625 110.886719 Z M 121.253906 93.652344 " fill-opacity="1" fill-rule="nonzero"/></g></g></g><g clip-path="url(#0a88beef12)"><g clip-path="url(#e4c245691a)"><g clip-path="url(#ebf8a12735)"><path fill="#52ae32" d="M 135.496094 89.667969 L 126.875 94.046875 C 125.929688 94.527344 125.546875 95.699219 126.027344 96.644531 L 130.410156 105.265625 C 130.890625 106.214844 132.0625 106.59375 133.007812 106.113281 L 141.628906 101.730469 C 142.574219 101.25 142.957031 100.082031 142.476562 99.132812 L 138.09375 90.515625 C 137.613281 89.566406 136.441406 89.183594 135.496094 89.667969 Z M 138.152344 99.160156 L 132.980469 101.789062 L 130.351562 96.617188 L 135.523438 93.988281 Z M 138.152344 99.160156 " fill-opacity="1" fill-rule="nonzero"/></g></g></g><g clip-path="url(#e1c0ea22bd)"><g clip-path="url(#11a4adcb97)"><g clip-path="url(#15beed9774)"><path fill="#52ae32" d="M 38.710938 87.015625 C 38.230469 86.070312 37.0625 85.6875 36.113281 86.167969 C 35.164062 86.652344 34.78125 87.820312 35.265625 88.769531 L 38.988281 96.09375 C 39.46875 97.042969 40.640625 97.425781 41.589844 96.941406 L 45.035156 95.191406 L 49.109375 103.207031 C 49.589844 104.152344 50.761719 104.535156 51.710938 104.054688 L 59.464844 100.109375 C 60.414062 99.628906 60.796875 98.460938 60.3125 97.511719 C 59.832031 96.5625 58.660156 96.179688 57.714844 96.664062 L 51.679688 99.730469 L 48.484375 93.4375 L 61.410156 86.867188 L 66.800781 97.46875 C 67.28125 98.417969 68.449219 98.796875 69.398438 98.316406 C 70.347656 97.835938 70.726562 96.664062 70.246094 95.714844 L 63.984375 83.390625 C 63.5 82.445312 62.332031 82.0625 61.382812 82.542969 L 41.558594 92.617188 Z M 38.710938 87.015625 " fill-opacity="1" fill-rule="nonzero"/></g></g></g><g clip-path="url(#2fb7b9fb35)"><g clip-path="url(#61cbfeec49)"><g clip-path="url(#0a73eb4eb8)"><path fill="#52ae32" d="M 51.890625 79.234375 L 44.566406 82.957031 C 43.617188 83.4375 43.238281 84.609375 43.71875 85.558594 C 44.199219 86.503906 45.371094 86.886719 46.316406 86.40625 L 53.644531 82.679688 C 54.59375 82.199219 54.972656 81.03125 54.492188 80.082031 C 54.011719 79.132812 52.839844 78.75 51.890625 79.234375 Z M 51.890625 79.234375 " fill-opacity="1" fill-rule="nonzero"/></g></g></g><g clip-path="url(#71c403827b)"><g clip-path="url(#d7d70aa336)"><g clip-path="url(#834167a87d)"><path fill="#52ae32" d="M 70.542969 74.960938 L 68.789062 71.511719 C 68.308594 70.566406 67.136719 70.183594 66.191406 70.664062 C 65.242188 71.148438 64.859375 72.316406 65.34375 73.265625 L 67.09375 76.710938 C 67.578125 77.660156 68.746094 78.042969 69.695312 77.558594 C 70.644531 77.078125 71.023438 75.910156 70.542969 74.960938 Z M 70.542969 74.960938 " fill-opacity="1" fill-rule="nonzero"/></g></g></g><g clip-path="url(#cf81814d94)"><g clip-path="url(#e3392e2c9b)"><g clip-path="url(#ded70f0088)"><path fill="#52ae32" d="M 93.234375 106.808594 C 92.753906 105.859375 91.582031 105.476562 90.636719 105.960938 L 76.84375 112.96875 L 72.332031 104.089844 C 71.851562 103.140625 70.683594 102.761719 69.734375 103.242188 C 68.785156 103.726562 68.40625 104.894531 68.886719 105.84375 L 74.273438 116.445312 C 74.757812 117.390625 75.925781 117.773438 76.875 117.292969 L 92.386719 109.40625 C 93.335938 108.925781 93.71875 107.753906 93.234375 106.808594 Z M 93.234375 106.808594 " fill-opacity="1" fill-rule="nonzero"/></g></g></g><g clip-path="url(#80aac1426d)"><g clip-path="url(#f7ef920a5c)"><g clip-path="url(#cefa2fca30)"><path fill="#52ae32" d="M 76.097656 104.453125 L 77.9375 108.074219 C 78.417969 109.023438 79.589844 109.402344 80.539062 108.921875 C 81.484375 108.441406 81.867188 107.269531 81.386719 106.324219 L 79.5 102.617188 C 79.019531 101.667969 77.851562 101.285156 76.902344 101.769531 C 75.953125 102.25 75.570312 103.421875 76.097656 104.453125 Z M 76.097656 104.453125 " fill-opacity="1" fill-rule="nonzero"/></g></g></g><g clip-path="url(#231df37a63)"><g clip-path="url(#a9e05fab0e)"><g clip-path="url(#b5a1a7882c)"><path fill="#52ae32" d="M 79.074219 57.609375 C 80.023438 57.128906 80.40625 55.957031 79.921875 55.007812 L 78.609375 52.421875 L 79.472656 51.984375 C 80.417969 51.503906 80.800781 50.332031 80.320312 49.386719 C 79.835938 48.4375 78.667969 48.054688 77.71875 48.539062 L 67.375 53.792969 C 66.429688 54.277344 66.046875 55.445312 66.527344 56.394531 C 67.011719 57.34375 68.179688 57.722656 69.128906 57.242188 L 75.160156 54.175781 L 76.476562 56.761719 C 76.957031 57.710938 78.128906 58.089844 79.074219 57.609375 Z M 79.074219 57.609375 " fill-opacity="1" fill-rule="nonzero"/></g></g></g><g clip-path="url(#82c7227e59)"><g clip-path="url(#6985049913)"><g clip-path="url(#7db72fcca5)"><path fill="#52ae32" d="M 83.816406 62.03125 C 84.300781 62.980469 85.46875 63.359375 86.417969 62.878906 L 97.449219 57.273438 L 101.699219 65.632812 C 102.179688 66.582031 103.351562 66.960938 104.296875 66.480469 C 105.246094 66 105.628906 64.828125 105.144531 63.878906 L 100.019531 53.796875 C 99.539062 52.847656 98.367188 52.464844 97.421875 52.949219 L 84.664062 59.429688 C 83.71875 59.914062 83.335938 61.082031 83.816406 62.03125 Z M 83.816406 62.03125 " fill-opacity="1" fill-rule="nonzero"/></g></g></g><g clip-path="url(#8cace42454)"><g clip-path="url(#a1b2ddabe9)"><g clip-path="url(#5f3b66ad34)"><path fill="#52ae32" d="M 103.175781 79.847656 C 104.125 79.367188 104.503906 78.195312 104.023438 77.246094 L 101.089844 71.472656 C 100.605469 70.523438 99.4375 70.144531 98.488281 70.625 C 97.539062 71.109375 97.160156 72.277344 97.640625 73.226562 L 100.574219 79 C 101.058594 79.949219 102.140625 80.375 103.175781 79.847656 Z M 103.175781 79.847656 " fill-opacity="1" fill-rule="nonzero"/></g></g></g><g clip-path="url(#f82228e29b)"><g clip-path="url(#e65b73555d)"><g clip-path="url(#a91ac36b7c)"><path fill="#52ae32" d="M 100.085938 96.816406 C 101.035156 96.335938 101.417969 95.164062 100.933594 94.21875 L 97.429688 87.320312 C 96.949219 86.375 95.777344 85.992188 94.832031 86.476562 L 91.382812 88.226562 C 90.433594 88.707031 90.054688 89.878906 90.535156 90.828125 C 91.019531 91.773438 92.1875 92.15625 93.136719 91.675781 L 94.859375 90.796875 L 97.488281 95.96875 C 97.96875 96.917969 99.140625 97.300781 100.085938 96.816406 Z M 100.085938 96.816406 " fill-opacity="1" fill-rule="nonzero"/></g></g></g><g clip-path="url(#777bbcd567)"><g clip-path="url(#4f0811b3f2)"><g clip-path="url(#52064308ee)"><path fill="#52ae32" d="M 90.230469 97.269531 L 92.949219 102.613281 C 93.429688 103.5625 94.601562 103.945312 95.546875 103.460938 C 96.496094 102.980469 96.878906 101.808594 96.394531 100.863281 L 93.636719 95.433594 C 93.152344 94.484375 91.984375 94.101562 91.035156 94.585938 C 90.132812 95.152344 89.707031 96.238281 90.230469 97.269531 Z M 90.230469 97.269531 " fill-opacity="1" fill-rule="nonzero"/></g></g></g><g clip-path="url(#8bf649dae4)"><g clip-path="url(#da2adaa4c2)"><g clip-path="url(#fd0d4ce1ae)"><path fill="#52ae32" d="M 110.300781 98.132812 L 103.949219 85.636719 C 103.464844 84.6875 102.296875 84.308594 101.347656 84.789062 C 100.402344 85.269531 100.019531 86.441406 100.5 87.386719 L 105.976562 98.160156 L 100.375 101.007812 C 99.425781 101.492188 99.046875 102.660156 99.527344 103.609375 C 100.007812 104.558594 101.179688 104.9375 102.125 104.457031 L 109.453125 100.734375 C 110.402344 100.25 110.78125 99.082031 110.300781 98.132812 Z M 110.300781 98.132812 " fill-opacity="1" fill-rule="nonzero"/></g></g></g><g clip-path="url(#3a9c4e5c2b)"><g clip-path="url(#595a986360)"><g clip-path="url(#2ea50d28a1)"><path fill="#52ae32" d="M 109.664062 67.007812 L 105.613281 69.066406 C 104.664062 69.546875 104.28125 70.71875 104.765625 71.664062 C 105.246094 72.613281 106.417969 72.996094 107.363281 72.511719 L 113.140625 69.578125 C 114.085938 69.097656 114.46875 67.925781 113.988281 66.976562 L 110.921875 60.945312 C 110.4375 59.996094 109.269531 59.617188 108.320312 60.097656 C 107.371094 60.578125 106.992188 61.75 107.472656 62.699219 Z M 109.664062 67.007812 " fill-opacity="1" fill-rule="nonzero"/></g></g></g><g clip-path="url(#f2043788fd)"><g clip-path="url(#9f321fae46)"><g clip-path="url(#76122d406c)"><path fill="#52ae32" d="M 117.960938 53.03125 C 118.90625 52.546875 119.289062 51.378906 118.808594 50.429688 L 116.703125 46.292969 C 116.222656 45.34375 115.050781 44.964844 114.105469 45.445312 L 103.589844 50.789062 C 102.640625 51.269531 102.261719 52.441406 102.742188 53.390625 C 103.222656 54.335938 104.394531 54.71875 105.34375 54.238281 L 114.132812 49.769531 L 115.359375 52.183594 C 115.839844 53.128906 117.011719 53.511719 117.960938 53.03125 Z M 117.960938 53.03125 " fill-opacity="1" fill-rule="nonzero"/></g></g></g><g clip-path="url(#27e66df8f5)"><g clip-path="url(#311d4e3cba)"><g clip-path="url(#49c8feb966)"><path fill="#52ae32" d="M 125.292969 50.386719 C 124.808594 49.4375 123.640625 49.058594 122.691406 49.539062 C 121.746094 50.019531 121.363281 51.191406 121.84375 52.140625 L 124.472656 57.3125 L 117.578125 60.816406 L 115.210938 56.160156 C 114.730469 55.210938 113.5625 54.832031 112.613281 55.3125 C 111.664062 55.796875 111.285156 56.964844 111.765625 57.914062 L 115.007812 64.289062 C 115.488281 65.238281 116.660156 65.621094 117.605469 65.136719 L 127.949219 59.882812 C 128.898438 59.398438 129.277344 58.230469 128.796875 57.28125 Z M 125.292969 50.386719 " fill-opacity="1" fill-rule="nonzero"/></g></g></g><g clip-path="url(#171adb4cd1)"><g clip-path="url(#d5e99dc390)"><g clip-path="url(#8af6fbffb2)"><path fill="#52ae32" d="M 93.84375 133.609375 C 94.792969 133.128906 95.171875 131.957031 94.691406 131.011719 L 90.003906 121.789062 C 89.523438 120.839844 88.351562 120.457031 87.40625 120.941406 L 82.234375 123.570312 L 81.226562 121.585938 C 80.742188 120.636719 79.574219 120.257812 78.625 120.738281 C 77.679688 121.21875 77.296875 122.390625 77.777344 123.339844 L 79.660156 127.042969 C 80.144531 127.992188 81.3125 128.375 82.261719 127.890625 L 87.433594 125.265625 L 91.242188 132.761719 C 91.726562 133.710938 92.894531 134.089844 93.84375 133.609375 Z M 93.84375 133.609375 " fill-opacity="1" fill-rule="nonzero"/></g></g></g><g clip-path="url(#9c1630a0a9)"><g clip-path="url(#841d6310ba)"><g clip-path="url(#d9ebd774a7)"><path fill="#52ae32" d="M 107.375 126.734375 L 117.890625 121.386719 C 118.839844 120.90625 119.21875 119.738281 118.738281 118.789062 C 118.253906 117.839844 117.085938 117.460938 116.136719 117.941406 L 107.347656 122.410156 L 105.15625 118.101562 C 104.675781 117.152344 103.503906 116.769531 102.558594 117.253906 L 93.9375 121.632812 C 92.988281 122.113281 92.609375 123.285156 93.089844 124.230469 C 93.570312 125.179688 94.742188 125.5625 95.691406 125.078125 L 102.585938 121.574219 L 104.773438 125.886719 C 105.257812 126.832031 106.425781 127.214844 107.375 126.734375 Z M 107.375 126.734375 " fill-opacity="1" fill-rule="nonzero"/></g></g></g><g clip-path="url(#74def3a62c)"><g clip-path="url(#c6cfac3fdc)"><g clip-path="url(#c12071e603)"><path fill="#52ae32" d="M 122.574219 110.546875 L 119.859375 105.203125 C 119.378906 104.257812 118.207031 103.875 117.257812 104.355469 C 116.3125 104.839844 115.929688 106.007812 116.410156 106.957031 L 118.25 110.578125 L 109.890625 114.824219 C 108.941406 115.308594 108.5625 116.476562 109.042969 117.425781 C 109.523438 118.375 110.695312 118.753906 111.644531 118.273438 L 121.726562 113.148438 C 122.675781 112.667969 123.054688 111.496094 122.574219 110.546875 Z M 122.574219 110.546875 " fill-opacity="1" fill-rule="nonzero"/></g></g></g><g clip-path="url(#9d85a03aa5)"><g clip-path="url(#5e59e1841f)"><g clip-path="url(#a5452cc844)"><path fill="#52ae32" d="M 89.9375 118.027344 C 90.417969 118.976562 91.589844 119.355469 92.535156 118.875 L 111.667969 109.148438 C 112.617188 108.667969 113 107.5 112.515625 106.550781 C 112.035156 105.601562 110.867188 105.21875 109.917969 105.703125 L 90.785156 115.425781 C 89.835938 115.910156 89.453125 117.078125 89.9375 118.027344 Z M 89.9375 118.027344 " fill-opacity="1" fill-rule="nonzero"/></g></g></g><g clip-path="url(#01dddb5a3b)"><g clip-path="url(#948d321b1e)"><g clip-path="url(#25d751b334)"><path fill="#52ae32" d="M 120.335938 85.441406 C 121.28125 84.960938 121.664062 83.789062 121.183594 82.84375 C 120.699219 81.894531 119.53125 81.511719 118.582031 81.996094 L 112.980469 84.84375 L 109.167969 77.34375 C 108.6875 76.394531 107.515625 76.015625 106.570312 76.496094 C 105.621094 76.976562 105.238281 78.148438 105.722656 79.097656 L 110.410156 88.316406 C 110.890625 89.265625 112.058594 89.648438 113.007812 89.164062 Z M 120.335938 85.441406 " fill-opacity="1" fill-rule="nonzero"/></g></g></g><g clip-path="url(#ec394a4ad7)"><g clip-path="url(#104f081594)"><g clip-path="url(#78aad2f34a)"><path fill="#52ae32" d="M 134.957031 73.671875 L 128.0625 77.175781 L 125.433594 72.003906 C 124.953125 71.058594 123.78125 70.675781 122.835938 71.15625 L 114.214844 75.539062 C 113.269531 76.019531 112.886719 77.191406 113.367188 78.136719 C 113.851562 79.085938 115.019531 79.46875 115.96875 78.984375 L 122.863281 75.480469 L 125.492188 80.652344 C 125.972656 81.601562 127.144531 81.980469 128.089844 81.5 L 136.710938 77.121094 C 137.65625 76.636719 138.039062 75.46875 137.558594 74.519531 C 137.074219 73.570312 135.90625 73.191406 134.957031 73.671875 Z M 134.957031 73.671875 " fill-opacity="1" fill-rule="nonzero"/></g></g></g><g clip-path="url(#422b46752d)"><g clip-path="url(#ed22bd40e4)"><g clip-path="url(#3d76590311)"><path fill="#52ae32" d="M 133.191406 68.0625 L 130.5625 62.890625 C 130.082031 61.945312 128.910156 61.5625 127.964844 62.042969 C 127.015625 62.527344 126.632812 63.695312 127.117188 64.644531 L 129.742188 69.816406 C 130.226562 70.761719 131.394531 71.144531 132.34375 70.664062 C 133.292969 70.179688 133.671875 69.011719 133.191406 68.0625 Z M 133.191406 68.0625 " fill-opacity="1" fill-rule="nonzero"/></g></g></g><g clip-path="url(#8d78de1e89)"><g clip-path="url(#454ef3c3ea)"><g clip-path="url(#51ddeeff64)"><path fill="#52ae32" d="M 34.808594 98.542969 C 35.757812 98.0625 36.140625 96.890625 35.65625 95.945312 L 32.589844 89.910156 C 32.109375 88.960938 30.941406 88.582031 29.992188 89.0625 C 29.042969 89.542969 28.664062 90.714844 29.144531 91.664062 L 32.210938 97.695312 C 32.691406 98.644531 33.863281 99.023438 34.808594 98.542969 Z M 34.808594 98.542969 " fill-opacity="1" fill-rule="nonzero"/></g></g></g><g clip-path="url(#9c3884b0a5)"><g clip-path="url(#cf39896907)"><g clip-path="url(#cf5da94432)"><path fill="#52ae32" d="M 38.316406 105.4375 L 40.898438 104.125 L 42.214844 106.710938 C 42.695312 107.65625 43.867188 108.039062 44.8125 107.558594 C 45.761719 107.074219 46.144531 105.90625 45.660156 104.957031 L 43.472656 100.648438 C 42.988281 99.699219 41.820312 99.320312 40.871094 99.800781 L 36.5625 101.992188 C 35.613281 102.472656 35.234375 103.644531 35.714844 104.589844 C 36.195312 105.539062 37.367188 105.921875 38.316406 105.4375 Z M 38.316406 105.4375 " fill-opacity="1" fill-rule="nonzero"/></g></g></g><g clip-path="url(#90d1957c11)"><g clip-path="url(#1bded08dd2)"><g clip-path="url(#bb3fef53f6)"><path fill="#52ae32" d="M 44.871094 122.605469 C 45.351562 123.550781 46.523438 123.933594 47.46875 123.453125 C 48.417969 122.96875 48.800781 121.800781 48.316406 120.851562 L 45.734375 115.765625 L 55.214844 110.949219 C 56.160156 110.464844 56.542969 109.296875 56.0625 108.347656 C 55.578125 107.398438 54.410156 107.019531 53.460938 107.5 L 42.257812 113.195312 C 41.308594 113.675781 40.925781 114.847656 41.410156 115.796875 Z M 44.871094 122.605469 " fill-opacity="1" fill-rule="nonzero"/></g></g></g><g clip-path="url(#e2b70ac996)"><g clip-path="url(#faa6affb95)"><g clip-path="url(#52900c7c7f)"><path fill="#52ae32" d="M 51.765625 119.097656 C 52.246094 120.046875 53.417969 120.429688 54.363281 119.945312 L 65.484375 114.296875 C 66.429688 113.816406 66.8125 112.644531 66.332031 111.695312 L 62.78125 104.714844 C 62.300781 103.765625 61.128906 103.386719 60.183594 103.867188 C 59.234375 104.347656 58.851562 105.519531 59.335938 106.46875 L 62.007812 111.726562 L 52.613281 116.5 C 51.664062 116.980469 51.28125 118.152344 51.765625 119.097656 Z M 51.765625 119.097656 " fill-opacity="1" fill-rule="nonzero"/></g></g></g><g clip-path="url(#df4463a77c)"><g clip-path="url(#b6edfc4cc6)"><g clip-path="url(#03f11f31f6)"><path fill="#52ae32" d="M 88.980469 51.492188 C 89.929688 51.007812 90.308594 49.839844 89.828125 48.890625 L 81.941406 33.378906 C 81.460938 32.429688 80.292969 32.046875 79.34375 32.53125 C 78.394531 33.011719 78.011719 34.179688 78.496094 35.128906 L 85.503906 48.917969 L 83.78125 49.796875 C 82.832031 50.277344 82.449219 51.449219 82.933594 52.394531 C 83.414062 53.34375 84.585938 53.726562 85.53125 53.242188 Z M 88.980469 51.492188 " fill-opacity="1" fill-rule="nonzero"/></g></g></g><g clip-path="url(#6b02a05702)"><g clip-path="url(#73835195d0)"><g clip-path="url(#d763a612e2)"><path fill="#52ae32" d="M 68 82.757812 L 70.191406 87.070312 C 70.671875 88.015625 71.839844 88.398438 72.789062 87.917969 L 76.238281 86.164062 C 77.183594 85.683594 77.566406 84.511719 77.085938 83.566406 C 76.601562 82.617188 75.433594 82.234375 74.484375 82.71875 L 72.761719 83.59375 L 71.445312 81.007812 C 70.964844 80.058594 69.796875 79.679688 68.847656 80.160156 C 67.898438 80.640625 67.515625 81.8125 68 82.757812 Z M 68 82.757812 " fill-opacity="1" fill-rule="nonzero"/></g></g></g><g clip-path="url(#ea9858467f)"><g clip-path="url(#245b67c51b)"><g clip-path="url(#49fc52bb4b)"><path fill="#52ae32" d="M 77.394531 64.96875 L 78.707031 67.554688 L 76.125 68.871094 C 75.175781 69.351562 74.792969 70.523438 75.277344 71.46875 C 75.757812 72.417969 76.925781 72.800781 77.875 72.316406 L 82.183594 70.128906 C 83.132812 69.644531 83.515625 68.476562 83.03125 67.527344 L 80.84375 63.21875 C 80.359375 62.269531 79.191406 61.890625 78.242188 62.371094 C 77.292969 62.851562 76.914062 64.023438 77.394531 64.96875 Z M 77.394531 64.96875 " fill-opacity="1" fill-rule="nonzero"/></g></g></g></g></g></g><g clip-path="url(#9204a92084)"><g clip-path="url(#d070151768)"><g clip-path="url(#59c040b424)"><path fill="#dc2f34" d="M 75.839844 221.613281 L 54.199219 233 L 2.164062 134.105469 L 101.058594 82.070312 L 112.445312 103.710938 L 35.191406 144.359375 Z M 75.839844 221.613281 " fill-opacity="1" fill-rule="nonzero"/></g></g></g><g clip-path="url(#e0120541e3)"><g clip-path="url(#14645cb6f0)"><g clip-path="url(#797b00305c)"><path fill="#004a93" d="M 275.992188 116.753906 L 297.628906 105.367188 L 245.597656 6.46875 L 146.699219 58.503906 L 158.085938 80.144531 L 235.34375 39.496094 Z M 275.992188 116.753906 " fill-opacity="1" fill-rule="nonzero"/></g></g></g><g clip-path="url(#5af5faddad)"><g clip-path="url(#cb1bfde384)"><g clip-path="url(#7963474c91)"><path fill="#ffdf00" d="M 98.914062 258.242188 L 77.273438 269.625 L 129.304688 368.523438 L 228.203125 316.488281 L 216.816406 294.847656 L 139.5625 335.496094 Z M 98.914062 258.242188 " fill-opacity="1" fill-rule="nonzero"/></g></g></g><g clip-path="url(#32abb74712)"><g clip-path="url(#76e624291a)"><g clip-path="url(#d0522b1e46)"><path fill="#00abe7" d="M 299.15625 153.910156 L 320.796875 142.523438 L 372.832031 241.421875 L 273.933594 293.453125 L 262.546875 271.816406 L 339.804688 231.167969 Z M 299.15625 153.910156 " fill-opacity="1" fill-rule="nonzero"/></g></g></g><g clip-path="url(#98f28dcc10)"><path fill="#000000" d="M 133.660156 201.515625 C 133.972656 201.542969 134.277344 201.445312 134.519531 201.242188 C 134.757812 201.039062 134.902344 200.757812 134.929688 200.445312 C 134.953125 200.132812 134.855469 199.828125 134.652344 199.59375 C 134.449219 199.351562 134.164062 199.210938 133.851562 199.183594 C 133.816406 199.179688 133.785156 199.179688 133.753906 199.179688 C 133.476562 199.179688 133.207031 199.277344 132.992188 199.457031 L 132.992188 199.460938 C 132.496094 199.875 132.4375 200.617188 132.859375 201.109375 C 133.0625 201.347656 133.347656 201.492188 133.660156 201.515625 Z M 146.597656 189.488281 C 146.394531 189.25 146.109375 189.105469 145.796875 189.082031 C 145.761719 189.082031 145.730469 189.078125 145.699219 189.078125 C 145.417969 189.078125 145.152344 189.175781 144.9375 189.355469 C 144.699219 189.5625 144.550781 189.84375 144.527344 190.152344 C 144.5 190.464844 144.601562 190.769531 144.804688 191.007812 C 145.007812 191.246094 145.292969 191.390625 145.605469 191.414062 C 145.917969 191.441406 146.222656 191.34375 146.464844 191.140625 C 146.957031 190.722656 147.019531 189.980469 146.597656 189.488281 Z M 159.515625 194.46875 C 165.140625 201.035156 164.339844 210.925781 157.730469 216.515625 C 154.773438 219.015625 151.148438 220.238281 147.539062 220.238281 C 143.082031 220.238281 138.652344 218.371094 135.542969 214.742188 C 132.847656 211.597656 131.535156 207.539062 131.839844 203.449219 C 131.515625 203.25 131.222656 203.003906 130.96875 202.707031 C 129.660156 201.179688 129.84375 198.878906 131.382812 197.582031 C 132.917969 196.28125 135.234375 196.464844 136.542969 197.992188 C 137.179688 198.734375 137.484375 199.671875 137.40625 200.640625 C 137.328125 201.609375 136.875 202.492188 136.128906 203.121094 C 135.597656 203.570312 134.964844 203.847656 134.292969 203.949219 C 134.125 207.285156 135.234375 210.574219 137.433594 213.140625 C 142.171875 218.671875 150.554688 219.34375 156.121094 214.632812 C 161.6875 209.929688 162.359375 201.601562 157.625 196.070312 C 155.453125 193.535156 152.414062 191.929688 149.125 191.53125 C 148.914062 192.089844 148.5625 192.605469 148.074219 193.019531 C 147.40625 193.585938 146.574219 193.886719 145.707031 193.886719 C 145.605469 193.886719 145.507812 193.882812 145.40625 193.875 C 144.433594 193.796875 143.546875 193.34375 142.914062 192.605469 C 142.277344 191.867188 141.972656 190.925781 142.050781 189.957031 C 142.128906 188.988281 142.582031 188.109375 143.328125 187.480469 C 144.074219 186.847656 145.023438 186.542969 145.992188 186.621094 C 146.96875 186.703125 147.855469 187.152344 148.488281 187.890625 C 148.792969 188.242188 149.011719 188.640625 149.15625 189.054688 C 153.164062 189.46875 156.878906 191.390625 159.515625 194.46875 Z M 275.738281 213.121094 C 275.730469 212.808594 275.601562 212.519531 275.375 212.300781 C 275.152344 212.09375 274.867188 211.976562 274.5625 211.976562 C 274.550781 211.976562 274.542969 211.976562 274.535156 211.976562 C 273.882812 211.992188 273.367188 212.53125 273.382812 213.175781 C 273.390625 213.488281 273.519531 213.777344 273.746094 213.996094 C 273.972656 214.210938 274.273438 214.328125 274.589844 214.316406 C 275.238281 214.304688 275.753906 213.765625 275.738281 213.121094 Z M 273.019531 197.59375 C 273.027344 197.90625 273.15625 198.199219 273.382812 198.414062 C 273.613281 198.628906 273.910156 198.75 274.222656 198.738281 C 274.539062 198.730469 274.832031 198.601562 275.050781 198.375 C 275.265625 198.148438 275.382812 197.851562 275.375 197.539062 C 275.359375 196.90625 274.835938 196.398438 274.195312 196.398438 C 274.1875 196.398438 274.179688 196.398438 274.171875 196.398438 C 273.519531 196.414062 273.003906 196.949219 273.019531 197.59375 Z M 277.089844 210.519531 C 277.796875 211.1875 278.199219 212.09375 278.222656 213.066406 C 278.265625 215.070312 276.664062 216.738281 274.644531 216.785156 C 274.617188 216.785156 274.585938 216.785156 274.558594 216.785156 C 274.128906 216.785156 273.707031 216.707031 273.3125 216.566406 C 270.460938 219.398438 266.621094 221.046875 262.554688 221.140625 C 262.429688 221.144531 262.308594 221.144531 262.183594 221.144531 C 253.671875 221.144531 246.652344 214.367188 246.453125 205.871094 C 246.253906 197.25 253.148438 190.074219 261.824219 189.875 C 265.984375 189.78125 269.984375 191.324219 272.984375 194.136719 C 273.339844 194.015625 273.71875 193.941406 274.113281 193.929688 C 276.125 193.886719 277.8125 195.476562 277.855469 197.484375 C 277.878906 198.453125 277.519531 199.378906 276.847656 200.082031 C 276.171875 200.78125 275.257812 201.183594 274.28125 201.203125 C 274.253906 201.203125 274.222656 201.203125 274.195312 201.203125 C 273.25 201.203125 272.355469 200.851562 271.671875 200.199219 C 270.960938 199.527344 270.5625 198.625 270.539062 197.652344 C 270.519531 196.945312 270.710938 196.28125 271.050781 195.714844 C 268.550781 193.480469 265.277344 192.257812 261.882812 192.339844 C 254.578125 192.507812 248.769531 198.550781 248.9375 205.8125 C 249.105469 212.96875 255.015625 218.679688 262.1875 218.679688 C 262.289062 218.679688 262.394531 218.675781 262.496094 218.675781 C 265.84375 218.597656 269.011719 217.269531 271.398438 214.980469 C 271.089844 214.457031 270.914062 213.859375 270.902344 213.234375 C 270.851562 211.230469 272.457031 209.558594 274.476562 209.511719 C 275.457031 209.488281 276.382812 209.847656 277.089844 210.519531 Z M 131.714844 218.996094 C 131.738281 218.683594 131.640625 218.382812 131.4375 218.140625 C 131.203125 217.871094 130.871094 217.730469 130.539062 217.730469 C 130.269531 217.730469 129.996094 217.824219 129.777344 218.011719 C 129.28125 218.429688 129.222656 219.167969 129.640625 219.660156 C 129.847656 219.898438 130.132812 220.042969 130.445312 220.066406 C 130.757812 220.09375 131.0625 219.996094 131.304688 219.792969 C 131.542969 219.589844 131.6875 219.304688 131.714844 218.996094 Z M 142.484375 207.628906 C 142.203125 207.628906 141.9375 207.726562 141.722656 207.910156 C 141.480469 208.109375 141.335938 208.394531 141.3125 208.707031 C 141.285156 209.015625 141.382812 209.320312 141.585938 209.558594 C 142.007812 210.050781 142.753906 210.109375 143.25 209.691406 L 143.25 209.6875 C 143.742188 209.273438 143.800781 208.53125 143.382812 208.039062 C 143.179688 207.804688 142.894531 207.660156 142.578125 207.632812 C 142.546875 207.628906 142.515625 207.628906 142.484375 207.628906 Z M 133.328125 216.542969 C 133.960938 217.285156 134.265625 218.226562 134.1875 219.195312 C 134.109375 220.160156 133.65625 221.042969 132.914062 221.671875 C 132.246094 222.234375 131.414062 222.539062 130.546875 222.539062 C 130.445312 222.539062 130.347656 222.535156 130.246094 222.527344 C 129.269531 222.449219 128.386719 221.996094 127.75 221.257812 C 127.449219 220.90625 127.230469 220.507812 127.085938 220.09375 C 123.074219 219.679688 119.363281 217.757812 116.726562 214.679688 C 111.101562 208.113281 111.902344 198.222656 118.507812 192.636719 C 125.117188 187.046875 135.070312 187.84375 140.695312 194.40625 C 143.394531 197.554688 144.707031 201.613281 144.402344 205.703125 C 144.726562 205.898438 145.019531 206.144531 145.273438 206.441406 C 146.582031 207.96875 146.394531 210.269531 144.859375 211.570312 C 144.171875 212.152344 143.328125 212.4375 142.488281 212.4375 C 141.449219 212.4375 140.417969 212 139.695312 211.15625 C 139.0625 210.417969 138.757812 209.476562 138.835938 208.507812 C 138.914062 207.539062 139.367188 206.65625 140.113281 206.027344 C 140.640625 205.582031 141.277344 205.300781 141.949219 205.203125 C 142.117188 201.867188 141.007812 198.578125 138.804688 196.007812 C 134.066406 190.476562 125.6875 189.808594 120.121094 194.515625 C 114.554688 199.21875 113.878906 207.550781 118.617188 213.078125 C 120.789062 215.613281 123.824219 217.222656 127.117188 217.617188 C 127.328125 217.058594 127.679688 216.542969 128.167969 216.128906 C 129.703125 214.832031 132.019531 215.015625 133.328125 216.542969 Z M 275.9375 189.886719 L 275.9375 193 L 285.808594 193 L 285.808594 219.71875 L 289.128906 219.71875 L 289.128906 193 L 298.996094 193 L 298.996094 189.886719 Z M 228.933594 206.210938 L 244.980469 206.210938 L 244.980469 203.140625 L 228.933594 203.140625 L 228.933594 192.957031 L 246.871094 192.957031 L 246.871094 189.886719 L 225.613281 189.886719 L 225.613281 219.71875 L 247.078125 219.71875 L 247.078125 216.652344 L 228.933594 216.652344 Z M 217.421875 213.792969 L 198.898438 189.886719 L 195.789062 189.886719 L 195.789062 219.71875 L 199.027344 219.71875 L 199.027344 195.257812 L 218.011719 219.71875 L 220.660156 219.71875 L 220.660156 189.886719 L 217.421875 189.886719 Z M 187.601562 189.886719 L 190.835938 189.886719 L 190.835938 219.71875 L 188.1875 219.71875 L 169.203125 195.257812 L 169.203125 219.71875 L 165.96875 219.71875 L 165.96875 189.886719 L 169.078125 189.886719 L 187.601562 213.792969 L 187.601562 189.886719 " fill-opacity="1" fill-rule="nonzero"/></g><g fill="#000000" fill-opacity="1"><g transform="translate(75.86436, 182.174333)"><g><path d="M 16.75 -28.84375 L 28.390625 0 L 21.328125 0 L 19.203125 -5.765625 L 8.21875 -5.765625 L 6.078125 0 L -0.984375 0 L 10.671875 -28.84375 Z M 16.953125 -11.546875 L 13.75 -19.9375 L 13.671875 -19.9375 L 10.453125 -11.546875 Z M 16.953125 -11.546875 "/></g></g></g><g fill="#000000" fill-opacity="1"><g transform="translate(103.284169, 182.174333)"><g><path d="M 2.09375 0 L 2.09375 -17.9375 L 8.28125 -17.9375 L 8.28125 -15.34375 L 8.359375 -15.34375 C 8.398438 -15.4375 8.472656 -15.550781 8.578125 -15.6875 C 8.691406 -15.832031 8.921875 -16.078125 9.265625 -16.421875 C 9.617188 -16.773438 9.992188 -17.09375 10.390625 -17.375 C 10.785156 -17.65625 11.296875 -17.90625 11.921875 -18.125 C 12.554688 -18.351562 13.195312 -18.46875 13.84375 -18.46875 C 14.519531 -18.46875 15.179688 -18.375 15.828125 -18.1875 C 16.484375 -18 16.96875 -17.8125 17.28125 -17.625 L 17.765625 -17.34375 L 15.171875 -12.09375 C 14.398438 -12.75 13.328125 -13.078125 11.953125 -13.078125 C 11.210938 -13.078125 10.570312 -12.910156 10.03125 -12.578125 C 9.5 -12.253906 9.117188 -11.859375 8.890625 -11.390625 C 8.671875 -10.929688 8.515625 -10.535156 8.421875 -10.203125 C 8.328125 -9.878906 8.28125 -9.625 8.28125 -9.4375 L 8.28125 0 Z M 2.09375 0 "/></g></g></g><g fill="#000000" fill-opacity="1"><g transform="translate(120.701338, 182.174333)"><g><path d="M 3.3125 -2.21875 C 1.632812 -4.050781 0.796875 -6.296875 0.796875 -8.953125 C 0.796875 -11.609375 1.632812 -13.859375 3.3125 -15.703125 C 5 -17.546875 7.132812 -18.46875 9.71875 -18.46875 C 12.09375 -18.46875 14.050781 -17.71875 15.59375 -16.21875 L 15.59375 -30.078125 L 21.78125 -30.078125 L 21.78125 0 L 15.671875 0 L 15.671875 -2.03125 L 15.59375 -2.03125 C 14.050781 -0.320312 12.09375 0.53125 9.71875 0.53125 C 7.132812 0.53125 5 -0.382812 3.3125 -2.21875 Z M 8.578125 -12 C 7.773438 -11.207031 7.375 -10.191406 7.375 -8.953125 C 7.375 -7.710938 7.757812 -6.703125 8.53125 -5.921875 C 9.300781 -5.140625 10.316406 -4.75 11.578125 -4.75 C 12.785156 -4.75 13.78125 -5.144531 14.5625 -5.9375 C 15.34375 -6.738281 15.734375 -7.742188 15.734375 -8.953125 C 15.734375 -10.191406 15.332031 -11.207031 14.53125 -12 C 13.726562 -12.789062 12.742188 -13.1875 11.578125 -13.1875 C 10.390625 -13.1875 9.390625 -12.789062 8.578125 -12 Z M 8.578125 -12 "/></g></g></g><g fill="#000000" fill-opacity="1"><g transform="translate(144.588745, 182.174333)"><g><path d="M 20.25 -8.109375 L 7.234375 -8.109375 C 7.234375 -6.847656 7.640625 -5.914062 8.453125 -5.3125 C 9.273438 -4.707031 10.164062 -4.40625 11.125 -4.40625 C 12.125 -4.40625 12.914062 -4.535156 13.5 -4.796875 C 14.082031 -5.066406 14.742188 -5.601562 15.484375 -6.40625 L 19.96875 -4.15625 C 18.101562 -1.03125 15.003906 0.53125 10.671875 0.53125 C 7.960938 0.53125 5.640625 -0.394531 3.703125 -2.25 C 1.765625 -4.101562 0.796875 -6.335938 0.796875 -8.953125 C 0.796875 -11.566406 1.765625 -13.804688 3.703125 -15.671875 C 5.640625 -17.535156 7.960938 -18.46875 10.671875 -18.46875 C 13.515625 -18.46875 15.828125 -17.644531 17.609375 -16 C 19.390625 -14.351562 20.28125 -12.003906 20.28125 -8.953125 C 20.28125 -8.535156 20.269531 -8.253906 20.25 -8.109375 Z M 7.40625 -11.546875 L 14.234375 -11.546875 C 14.085938 -12.472656 13.71875 -13.1875 13.125 -13.6875 C 12.53125 -14.1875 11.769531 -14.4375 10.84375 -14.4375 C 9.8125 -14.4375 8.992188 -14.164062 8.390625 -13.625 C 7.785156 -13.09375 7.457031 -12.398438 7.40625 -11.546875 Z M 7.40625 -11.546875 "/></g></g></g><g fill="#000000" fill-opacity="1"><g transform="translate(165.678208, 182.174333)"><g><path d="M 2.09375 0 L 2.09375 -17.9375 L 8.28125 -17.9375 L 8.28125 -16.046875 L 8.359375 -16.046875 C 9.960938 -17.660156 11.675781 -18.46875 13.5 -18.46875 C 14.382812 -18.46875 15.265625 -18.347656 16.140625 -18.109375 C 17.015625 -17.878906 17.851562 -17.519531 18.65625 -17.03125 C 19.457031 -16.539062 20.109375 -15.847656 20.609375 -14.953125 C 21.109375 -14.054688 21.359375 -13.007812 21.359375 -11.8125 L 21.359375 0 L 15.171875 0 L 15.171875 -10.140625 C 15.171875 -11.078125 14.875 -11.894531 14.28125 -12.59375 C 13.6875 -13.289062 12.910156 -13.640625 11.953125 -13.640625 C 11.023438 -13.640625 10.179688 -13.273438 9.421875 -12.546875 C 8.660156 -11.828125 8.28125 -11.023438 8.28125 -10.140625 L 8.28125 0 Z M 2.09375 0 "/></g></g></g><g fill="#000000" fill-opacity="1"><g transform="translate(188.79618, 182.174333)"><g><path d="M 2.09375 0 L 2.09375 -17.9375 L 8.28125 -17.9375 L 8.28125 -16.046875 L 8.359375 -16.046875 C 9.960938 -17.660156 11.675781 -18.46875 13.5 -18.46875 C 14.382812 -18.46875 15.265625 -18.347656 16.140625 -18.109375 C 17.015625 -17.878906 17.851562 -17.519531 18.65625 -17.03125 C 19.457031 -16.539062 20.109375 -15.847656 20.609375 -14.953125 C 21.109375 -14.054688 21.359375 -13.007812 21.359375 -11.8125 L 21.359375 0 L 15.171875 0 L 15.171875 -10.140625 C 15.171875 -11.078125 14.875 -11.894531 14.28125 -12.59375 C 13.6875 -13.289062 12.910156 -13.640625 11.953125 -13.640625 C 11.023438 -13.640625 10.179688 -13.273438 9.421875 -12.546875 C 8.660156 -11.828125 8.28125 -11.023438 8.28125 -10.140625 L 8.28125 0 Z M 2.09375 0 "/></g></g></g><g fill="#000000" fill-opacity="1"><g transform="translate(211.914153, 182.174333)"><g><path d="M 20.25 -8.109375 L 7.234375 -8.109375 C 7.234375 -6.847656 7.640625 -5.914062 8.453125 -5.3125 C 9.273438 -4.707031 10.164062 -4.40625 11.125 -4.40625 C 12.125 -4.40625 12.914062 -4.535156 13.5 -4.796875 C 14.082031 -5.066406 14.742188 -5.601562 15.484375 -6.40625 L 19.96875 -4.15625 C 18.101562 -1.03125 15.003906 0.53125 10.671875 0.53125 C 7.960938 0.53125 5.640625 -0.394531 3.703125 -2.25 C 1.765625 -4.101562 0.796875 -6.335938 0.796875 -8.953125 C 0.796875 -11.566406 1.765625 -13.804688 3.703125 -15.671875 C 5.640625 -17.535156 7.960938 -18.46875 10.671875 -18.46875 C 13.515625 -18.46875 15.828125 -17.644531 17.609375 -16 C 19.390625 -14.351562 20.28125 -12.003906 20.28125 -8.953125 C 20.28125 -8.535156 20.269531 -8.253906 20.25 -8.109375 Z M 7.40625 -11.546875 L 14.234375 -11.546875 C 14.085938 -12.472656 13.71875 -13.1875 13.125 -13.6875 C 12.53125 -14.1875 11.769531 -14.4375 10.84375 -14.4375 C 9.8125 -14.4375 8.992188 -14.164062 8.390625 -13.625 C 7.785156 -13.09375 7.457031 -12.398438 7.40625 -11.546875 Z M 7.40625 -11.546875 "/></g></g></g></svg>