<svg width="20" height="21" viewBox="0 0 20 21" fill="none" xmlns="http://www.w3.org/2000/svg">
<path d="M5.75 0.75C5.75 0.335786 5.41421 0 5 0C4.58579 0 4.25 0.335786 4.25 0.75V2.32926C2.81067 2.44451 1.86577 2.72737 1.17157 3.42157C0.477375 4.11577 0.194513 5.06067 0.0792572 6.5H19.9207C19.8055 5.06067 19.5226 4.11577 18.8284 3.42157C18.1342 2.72737 17.1893 2.44451 15.75 2.32926V0.75C15.75 0.335786 15.4142 0 15 0C14.5858 0 14.25 0.335786 14.25 0.75V2.2629C13.5847 2.25 12.839 2.25 12 2.25H8C7.16097 2.25 6.41527 2.25 5.75 2.2629V0.75Z" fill="#CAC6C6"/>
<path fill-rule="evenodd" clip-rule="evenodd" d="M20 10.25C20 9.41097 20 8.66527 19.9871 8H0.012902C0 8.66527 0 9.41097 0 10.25V12.25C0 16.0212 0 17.9069 1.17157 19.0784C2.34315 20.25 4.22876 20.25 8 20.25H12C15.7712 20.25 17.6569 20.25 18.8284 19.0784C20 17.9069 20 16.0212 20 12.25V10.25ZM12 10.5C11.0335 10.5 10.25 11.2835 10.25 12.25V14.25C10.25 15.2165 11.0335 16 12 16C12.9665 16 13.75 15.2165 13.75 14.25V12.25C13.75 11.2835 12.9665 10.5 12 10.5ZM12 12C11.8619 12 11.75 12.1119 11.75 12.25V14.25C11.75 14.3881 11.8619 14.5 12 14.5C12.1381 14.5 12.25 14.3881 12.25 14.25V12.25C12.25 12.1119 12.1381 12 12 12ZM8.78701 10.5571C9.06727 10.6732 9.25 10.9467 9.25 11.25V15.25C9.25 15.6642 8.91421 16 8.5 16C8.08579 16 7.75 15.6642 7.75 15.25V13.0607L7.53033 13.2803C7.23744 13.5732 6.76256 13.5732 6.46967 13.2803C6.17678 12.9874 6.17678 12.5126 6.46967 12.2197L7.96967 10.7197C8.18417 10.5052 8.50676 10.441 8.78701 10.5571Z" fill="#CAC6C6"/>
</svg>
