<svg width="34" height="28" viewBox="0 0 34 28" fill="none" xmlns="http://www.w3.org/2000/svg">
<path d="M20.2 12.2C20.2 11.3163 20.9163 10.6 21.8 10.6C22.6836 10.6 23.4 11.3163 23.4 12.2V15.4C23.4 16.2836 22.6836 17 21.8 17C20.9163 17 20.2 16.2836 20.2 15.4V12.2Z" stroke="#D9D9D9" stroke-width="1.5"/>
<path d="M20.2126 25.0046L19.4626 25.0025V25.0025L20.2126 25.0046ZM20.2219 21.8L20.9719 21.8022V21.8H20.2219ZM2.83932 24.7255L2.30965 25.2565H2.30965L2.83932 24.7255ZM2.83932 2.87452L2.30965 2.34353L2.83932 2.87452ZM2.52493 11.0059L2.15926 11.6607H2.15926L2.52493 11.0059ZM1.01692 8.98315L0.267586 8.95165L1.01692 8.98315ZM2.52493 16.5941L2.15926 15.9393H2.15926L2.52493 16.5941ZM1.01692 18.6168L1.76626 18.5853L1.01692 18.6168ZM31.4751 11.0059L31.8407 11.6607L31.4751 11.0059ZM32.9831 8.98315L33.7324 8.95165V8.95165L32.9831 8.98315ZM31.1607 2.87452L31.6903 2.34353L31.6903 2.34353L31.1607 2.87452ZM31.4751 16.5941L31.1094 17.249H31.1094L31.4751 16.5941ZM32.9831 18.6168L33.7324 18.6484V18.6484L32.9831 18.6168ZM31.1607 24.7255L31.6903 25.2565H31.6903L31.1607 24.7255ZM32.9099 17.5312L33.5643 17.1648L33.5643 17.1648L32.9099 17.5312ZM32.9099 10.0688L33.5643 10.4352L33.5643 10.4352L32.9099 10.0688ZM1.09015 17.5312L0.43571 17.1648H0.43571L1.09015 17.5312ZM1.09015 10.0688L1.74459 9.7025L1.74459 9.7025L1.09015 10.0688ZM20.2219 5.8L20.9719 5.8L20.9719 5.79782L20.2219 5.8ZM20.2103 1.79768L19.4603 1.79986V1.79986L20.2103 1.79768ZM24.2444 1.03024L24.2638 0.280493L24.2444 1.03024ZM25.0538 26.5426L25.0855 27.292L25.0538 26.5426ZM19.9752 26.3665L19.4456 25.8354L19.4456 25.8354L19.9752 26.3665ZM20.9626 25.0068L20.9719 21.8022L19.4719 21.7978L19.4626 25.0025L20.9626 25.0068ZM21.8259 20.95C22.2993 20.95 22.6799 21.3323 22.6799 21.8H24.1799C24.1799 20.5004 23.1242 19.45 21.8259 19.45V20.95ZM21.8259 19.45C20.5276 19.45 19.4719 20.5004 19.4719 21.8H20.9719C20.9719 21.3323 21.3525 20.95 21.8259 20.95V19.45ZM13.792 1.75H19.4083V0.25H13.792V1.75ZM18.6126 25.85H13.792V27.35H18.6126V25.85ZM13.792 25.85C10.7464 25.85 8.53739 25.8484 6.85168 25.6223C5.18736 25.3991 4.14594 24.9695 3.36899 24.1945L2.30965 25.2565C3.4119 26.356 4.82232 26.8636 6.6523 27.109C8.46089 27.3516 10.7887 27.35 13.792 27.35V25.85ZM13.792 0.25C10.7887 0.25 8.46089 0.248415 6.6523 0.49097C4.82232 0.736392 3.4119 1.24402 2.30965 2.34353L3.36899 3.40551C4.14594 2.63049 5.18736 2.20087 6.85168 1.97766C8.53739 1.75159 10.7464 1.75 13.792 1.75V0.25ZM2.15926 11.6607C2.91262 12.0814 3.41811 12.8828 3.41811 13.8H4.91811C4.91811 12.3162 4.09811 11.0254 2.89061 10.351L2.15926 11.6607ZM1.76626 9.01466C1.89137 6.03898 2.29601 4.47582 3.36899 3.40551L2.30965 2.34353C0.794904 3.85451 0.393534 5.95588 0.267586 8.95165L1.76626 9.01466ZM3.41811 13.8C3.41811 14.7172 2.91262 15.5186 2.15926 15.9393L2.89061 17.249C4.09811 16.5746 4.91811 15.2838 4.91811 13.8H3.41811ZM0.267586 18.6484C0.393534 21.6441 0.794904 23.7455 2.30965 25.2565L3.36899 24.1945C2.29601 23.1242 1.89137 21.561 1.76626 18.5853L0.267586 18.6484ZM30.5819 13.8C30.5819 12.8828 31.0874 12.0814 31.8407 11.6607L31.1094 10.351C29.9019 11.0254 29.0819 12.3162 29.0819 13.8H30.5819ZM33.7324 8.95165C33.6065 5.95588 33.2051 3.85451 31.6903 2.34353L30.631 3.40551C31.704 4.47582 32.1086 6.03898 32.2337 9.01466L33.7324 8.95165ZM31.8407 15.9393C31.0874 15.5186 30.5819 14.7172 30.5819 13.8H29.0819C29.0819 15.2838 29.9019 16.5746 31.1094 17.249L31.8407 15.9393ZM32.2337 18.5853C32.1086 21.561 31.704 23.1242 30.631 24.1945L31.6903 25.2565C33.2051 23.7455 33.6065 21.6441 33.7324 18.6484L32.2337 18.5853ZM31.1094 17.249C31.5589 17.5 31.8685 17.6732 32.0819 17.8078C32.1876 17.8745 32.2499 17.9195 32.2847 17.9483C32.3257 17.9823 32.2933 17.9652 32.2554 17.8975L33.5643 17.1648C33.4711 16.9983 33.3421 16.8764 33.2416 16.7932C33.135 16.7048 33.011 16.6204 32.8822 16.5391C32.6265 16.3778 32.2741 16.1813 31.8407 15.9393L31.1094 17.249ZM33.7324 18.6484C33.7443 18.3659 33.7559 18.1057 33.7465 17.8931C33.7371 17.6784 33.7047 17.4157 33.5643 17.1648L32.2554 17.8975C32.2256 17.8442 32.2422 17.8282 32.248 17.959C32.2538 18.0918 32.2468 18.2757 32.2337 18.5853L33.7324 18.6484ZM31.8407 11.6607C32.2741 11.4187 32.6265 11.2222 32.8822 11.0609C33.011 10.9796 33.135 10.8952 33.2416 10.8068C33.3421 10.7236 33.4711 10.6017 33.5643 10.4352L32.2554 9.7025C32.2933 9.63477 32.3257 9.61771 32.2847 9.65169C32.2499 9.6805 32.1876 9.72553 32.0819 9.79221C31.8685 9.9268 31.5589 10.1 31.1094 10.351L31.8407 11.6607ZM32.2337 9.01466C32.2468 9.32427 32.2538 9.50819 32.248 9.64101C32.2422 9.77178 32.2256 9.75584 32.2554 9.7025L33.5643 10.4352C33.7047 10.1843 33.7371 9.92159 33.7465 9.70693C33.7559 9.49431 33.7443 9.23415 33.7324 8.95165L32.2337 9.01466ZM2.15926 15.9393C1.72592 16.1813 1.37348 16.3778 1.11781 16.5391C0.988978 16.6204 0.865045 16.7048 0.75838 16.7932C0.65795 16.8764 0.528909 16.9983 0.43571 17.1648L1.74459 17.8975C1.70668 17.9652 1.67427 17.9823 1.71529 17.9483C1.75008 17.9195 1.81241 17.8745 1.9181 17.8078C2.13147 17.6732 2.44115 17.5 2.89061 17.249L2.15926 15.9393ZM1.76626 18.5853C1.75325 18.2757 1.74617 18.0918 1.75201 17.959C1.75777 17.8282 1.77445 17.8442 1.74459 17.8975L0.43571 17.1648C0.295284 17.4157 0.262906 17.6784 0.253464 17.8931C0.244111 18.1057 0.255709 18.3659 0.267586 18.6484L1.76626 18.5853ZM2.89061 10.351C2.44114 10.1 2.13147 9.9268 1.9181 9.79221C1.8124 9.72553 1.75008 9.6805 1.71529 9.65169C1.67428 9.61771 1.70668 9.63477 1.74459 9.7025L0.435709 10.4352C0.528907 10.6017 0.657946 10.7236 0.758378 10.8068C0.865043 10.8952 0.988975 10.9796 1.11781 11.0609C1.37348 11.2222 1.72591 11.4187 2.15926 11.6607L2.89061 10.351ZM0.267586 8.95165C0.255709 9.23415 0.244111 9.49431 0.253464 9.70693C0.262906 9.92159 0.295284 10.1843 0.43571 10.4352L1.74459 9.7025C1.77445 9.75584 1.75777 9.77178 1.75201 9.64101C1.74617 9.50819 1.75325 9.32427 1.76626 9.01466L0.267586 8.95165ZM20.9719 5.79782L20.9603 1.7955L19.4603 1.79986L19.4719 5.80218L20.9719 5.79782ZM21.8259 6.65C21.3525 6.65 20.9719 6.26768 20.9719 5.8H19.4719C19.4719 7.09963 20.5276 8.15 21.8259 8.15V6.65ZM22.6799 5.8C22.6799 6.26768 22.2993 6.65 21.8259 6.65V8.15C23.1242 8.15 24.1799 7.09963 24.1799 5.8H22.6799ZM22.6799 1.82589V5.8H24.1799V1.82589H22.6799ZM24.2251 1.77999C27.7137 1.86997 29.4615 2.23886 30.631 3.40551L31.6903 2.34353C30.0512 0.708462 27.711 0.369404 24.2638 0.280493L24.2251 1.77999ZM24.1799 1.82589C24.1799 1.79831 24.2023 1.77941 24.2251 1.77999L24.2638 0.280493C23.3918 0.258003 22.6799 0.960663 22.6799 1.82589H24.1799ZM19.4083 1.75C19.4387 1.75 19.4602 1.77405 19.4603 1.79986L20.9603 1.7955C20.9578 0.93947 20.2619 0.25 19.4083 0.25V1.75ZM25.0855 27.292C28.0788 27.1655 30.1789 26.7641 31.6903 25.2565L30.631 24.1945C29.5596 25.2633 27.9951 25.6677 25.0221 25.7933L25.0855 27.292ZM22.6799 21.8V24.9624H24.1799V21.8H22.6799ZM19.4626 25.0025C19.4615 25.3998 19.4592 25.6224 19.4378 25.7781C19.4194 25.9123 19.4002 25.8806 19.4456 25.8354L20.5047 26.8976C20.7842 26.6189 20.8827 26.2824 20.9239 25.9821C20.9622 25.7033 20.9616 25.3618 20.9626 25.0068L19.4626 25.0025ZM18.6126 27.35C18.9676 27.35 19.3091 27.3516 19.588 27.3141C19.8884 27.2738 20.2252 27.1763 20.5047 26.8976L19.4456 25.8354C19.4909 25.7902 19.5226 25.8095 19.3883 25.8275C19.2325 25.8484 19.0099 25.85 18.6126 25.85V27.35ZM25.0221 25.7933C24.6229 25.8102 24.4025 25.8177 24.248 25.8026C24.1194 25.7899 24.1513 25.7706 24.1953 25.8128L23.1572 26.8956C23.4476 27.174 23.7912 27.2649 24.1013 27.2954C24.3855 27.3233 24.7306 27.307 25.0855 27.292L25.0221 25.7933ZM22.6799 24.9624C22.6799 25.3257 22.6782 25.6761 22.7178 25.9617C22.7606 26.2708 22.8644 26.6149 23.1572 26.8956L24.1953 25.8128C24.2417 25.8573 24.2223 25.8908 24.2036 25.7557C24.1816 25.597 24.1799 25.3695 24.1799 24.9624H22.6799Z" fill="#D9D9D9"/>
</svg>
