<svg width="32" height="32" viewBox="0 0 32 32" fill="none" xmlns="http://www.w3.org/2000/svg">
<path fill-rule="evenodd" clip-rule="evenodd" d="M8.55814 0C9.17464 0 9.67442 0.499775 9.67442 1.11628V2.25149C10.6598 2.23254 11.7453 2.23255 12.9393 2.23256H19.0607C20.2547 2.23255 21.3402 2.23254 22.3256 2.25149V1.11628C22.3256 0.499775 22.8254 0 23.4419 0C24.0584 0 24.5581 0.499775 24.5581 1.11628V2.34729C24.945 2.37679 25.3114 2.41387 25.6581 2.46048C27.4031 2.69509 28.8155 3.1894 29.9293 4.30324C31.0432 5.41709 31.5375 6.82948 31.7721 8.57448C31.8471 9.13216 31.8974 9.74078 31.9311 10.4038C31.9757 10.5244 32 10.6547 32 10.7907C32 10.8939 31.986 10.9938 31.9598 11.0886C32 12.2823 32 13.6376 32 15.1719V18.3165C32 21.0518 32 23.2183 31.7721 24.9139C31.5375 26.6589 31.0432 28.0713 29.9293 29.1851C28.8155 30.299 27.4031 30.7933 25.6581 31.0279C23.9625 31.2559 21.796 31.2558 19.0607 31.2558H12.9393C10.204 31.2558 8.0375 31.2559 6.34192 31.0279C4.59692 30.7933 3.18453 30.299 2.07069 29.1851C0.956845 28.0713 0.462531 26.6589 0.227922 24.9139C-4.1917e-05 23.2183 -2.31192e-05 21.0518 4.78681e-07 18.3165V15.1718C-1.27397e-05 13.6376 -2.44491e-05 12.2823 0.0401994 11.0886C0.013999 10.9938 1.01096e-06 10.8939 1.01096e-06 10.7907C1.01096e-06 10.6547 0.0243268 10.5244 0.0688651 10.4038C0.102629 9.74077 0.152945 9.13215 0.227922 8.57448C0.462531 6.82948 0.956845 5.41709 2.07069 4.30324C3.18453 3.1894 4.59692 2.69509 6.34192 2.46048C6.6886 2.41387 7.05497 2.37679 7.44186 2.34729V1.11628C7.44186 0.499775 7.94164 0 8.55814 0ZM2.25203 11.907C2.23303 12.8785 2.23256 13.9847 2.23256 15.2558V18.2326C2.23256 21.0706 2.23493 23.0869 2.44057 24.6164C2.6419 26.1138 3.01945 26.9766 3.64934 27.6065C4.27924 28.2364 5.14197 28.6139 6.6394 28.8152C8.16895 29.0209 10.1852 29.0233 13.0233 29.0233H18.9767C21.8148 29.0233 23.8311 29.0209 25.3606 28.8152C26.858 28.6139 27.7208 28.2364 28.3507 27.6065C28.9805 26.9766 29.3581 26.1138 29.5594 24.6164C29.7651 23.0869 29.7674 21.0706 29.7674 18.2326V15.2558C29.7674 13.9847 29.767 12.8785 29.748 11.907H2.25203ZM29.6459 9.67442H2.35413C2.37797 9.39253 2.40648 9.12556 2.44057 8.87196C2.6419 7.37452 3.01945 6.5118 3.64934 5.8819C4.27924 5.25201 5.14197 4.87445 6.6394 4.67313C8.16895 4.46749 10.1852 4.46512 13.0233 4.46512H18.9767C21.8148 4.46512 23.8311 4.46749 25.3606 4.67313C26.858 4.87445 27.7208 5.25201 28.3507 5.8819C28.9805 6.5118 29.3581 7.37453 29.5594 8.87196C29.5935 9.12556 29.622 9.39253 29.6459 9.67442ZM22.6977 20.8372C22.0812 20.8372 21.5814 21.337 21.5814 21.9535C21.5814 22.57 22.0812 23.0698 22.6977 23.0698C23.3142 23.0698 23.814 22.57 23.814 21.9535C23.814 21.337 23.3142 20.8372 22.6977 20.8372ZM19.3488 21.9535C19.3488 20.104 20.8482 18.6047 22.6977 18.6047C24.5472 18.6047 26.0465 20.104 26.0465 21.9535C26.0465 23.803 24.5472 25.3023 22.6977 25.3023C20.8482 25.3023 19.3488 23.803 19.3488 21.9535Z" fill="#1C274C"/>
</svg>
