<svg width="31" height="32" viewBox="0 0 31 32" fill="none" xmlns="http://www.w3.org/2000/svg">
<path fill-rule="evenodd" clip-rule="evenodd" d="M5.99406 0.607043C5.92401 0.25357 5.61323 -0.00121305 5.25284 4.34405e-06C4.89237 0.00122192 4.58334 0.257754 4.51578 0.611819L4.51527 0.614408L4.5124 0.628837C4.50967 0.642338 4.50533 0.663431 4.49935 0.691289C4.48739 0.74705 4.46892 0.829627 4.44379 0.932428C4.39334 1.13879 4.31696 1.42274 4.21364 1.73276C3.99575 2.38661 3.69889 3.028 3.35816 3.37104C3.01743 3.71407 2.37807 4.01526 1.7257 4.23757C1.41638 4.34297 1.13296 4.42127 0.926941 4.47312C0.824312 4.49895 0.741862 4.51797 0.686182 4.53031C0.658366 4.53647 0.637303 4.54096 0.62382 4.54377L0.609411 4.54675L0.607043 4.54723C0.253441 4.61718 -0.00121332 4.92797 4.34816e-06 5.28845C0.00122192 5.64892 0.257754 5.95795 0.611819 6.02551L0.614408 6.02601L0.628837 6.02889C0.642338 6.03162 0.663431 6.03596 0.691288 6.04193C0.74705 6.0539 0.829627 6.07236 0.932428 6.0975C1.13879 6.14795 1.42274 6.22433 1.73276 6.32764C2.38661 6.54554 3.028 6.8424 3.37104 7.18313C3.71407 7.52385 4.01526 8.16322 4.23757 8.81559C4.34297 9.1249 4.42127 9.40833 4.47312 9.61434C4.49895 9.71697 4.51797 9.79942 4.53031 9.8551C4.53647 9.88292 4.54096 9.90398 4.54377 9.91747L4.54675 9.93187L4.54723 9.93424C4.61718 10.2878 4.92797 10.5425 5.28845 10.5413C5.64892 10.5401 5.95795 10.2835 6.02551 9.92947L6.02601 9.92688L6.02889 9.91245C6.03162 9.89895 6.03596 9.87785 6.04193 9.85C6.0539 9.79424 6.07236 9.71166 6.0975 9.60886C6.14795 9.4025 6.22433 9.11855 6.32764 8.80853C6.54554 8.15467 6.8424 7.51328 7.18313 7.17025C7.52385 6.82721 8.16322 6.52602 8.81559 6.30372C9.1249 6.19831 9.40833 6.12001 9.61434 6.06817C9.71697 6.04234 9.79942 6.02332 9.8551 6.01098C9.88292 6.00481 9.90398 6.00033 9.91747 5.99751L9.93187 5.99454L9.93424 5.99406C10.2877 5.92398 10.5425 5.6132 10.5413 5.25284C10.5401 4.89237 10.2835 4.58334 9.92947 4.51578L9.92688 4.51527L9.91245 4.5124C9.89895 4.50967 9.87785 4.50533 9.85 4.49935C9.79424 4.48739 9.71166 4.46892 9.60886 4.44379C9.4025 4.39334 9.11855 4.31696 8.80853 4.21364C8.15467 3.99575 7.51328 3.69889 7.17025 3.35816C6.82721 3.01743 6.52602 2.37807 6.30372 1.7257C6.19831 1.41638 6.12001 1.13296 6.06817 0.926941C6.04234 0.824312 6.02332 0.741862 6.01098 0.686182C6.00481 0.658366 6.00033 0.637303 5.99751 0.62382L5.99454 0.609411L5.99406 0.607043ZM7.37309 5.26354C6.91711 5.04933 6.45907 4.77428 6.10902 4.42658C5.75897 4.07889 5.48083 3.62272 5.26354 3.1682C5.04933 3.62418 4.77428 4.08221 4.42658 4.43227C4.07889 4.78232 3.62272 5.06045 3.1682 5.27774C3.62418 5.49196 4.08221 5.76701 4.43227 6.1147C4.78232 6.4624 5.06045 6.91856 5.27774 7.37309C5.49196 6.91711 5.76701 6.45907 6.1147 6.10902C6.4624 5.75897 6.91856 5.48083 7.37309 5.26354Z" fill="#FFDF00"/>
<path fill-rule="evenodd" clip-rule="evenodd" d="M26.3532 2.63532C26.977 2.63532 27.4826 3.14098 27.4826 3.76474V4.14122H27.8591C28.4829 4.14122 28.9885 4.64688 28.9885 5.27064C28.9885 5.89441 28.4829 6.40007 27.8591 6.40007H27.4826V6.77654C27.4826 7.4003 26.977 7.90596 26.3532 7.90596C25.7295 7.90596 25.2238 7.4003 25.2238 6.77654V6.40007H24.8473C24.2236 6.40007 23.7179 5.89441 23.7179 5.27064C23.7179 4.64688 24.2236 4.14122 24.8473 4.14122H25.2238V3.76474C25.2238 3.14098 25.7295 2.63532 26.3532 2.63532ZM15.7931 7.04802C15.2984 7.69395 14.7365 8.69607 13.9074 10.1833L13.4879 10.9358C13.4609 10.9843 13.4341 11.0326 13.4075 11.0806C13.0292 11.7619 12.6872 12.378 12.1341 12.7979C11.5742 13.2229 10.8932 13.3756 10.1556 13.541C10.1037 13.5526 10.0516 13.5643 9.99918 13.5762L9.18465 13.7605C7.57207 14.1254 6.4944 14.3725 5.76071 14.6616C5.04831 14.9424 4.95284 15.1511 4.91672 15.2672C4.87678 15.3957 4.84379 15.6462 5.27123 16.3252C5.70636 17.0164 6.44422 17.8837 7.54166 19.1671L8.09696 19.8164C8.13163 19.8569 8.1661 19.8971 8.20033 19.937C8.70809 20.5289 9.16105 21.0568 9.36918 21.7261C9.5759 22.3909 9.50732 23.0875 9.42951 23.8779C9.42427 23.9312 9.41898 23.9849 9.41373 24.039L9.32978 24.9054C9.16401 26.6161 9.05441 27.7757 9.09142 28.6066C9.12835 29.4356 9.30202 29.6035 9.38229 29.6644C9.44411 29.7113 9.61004 29.8331 10.3517 29.6206C11.1079 29.4039 12.1194 28.9417 13.6294 28.2465L14.392 27.8953C14.4421 27.8723 14.4919 27.8492 14.5414 27.8263C15.227 27.509 15.8658 27.2133 16.5649 27.2133C17.2639 27.2133 17.9028 27.509 18.5883 27.8263C18.6379 27.8492 18.6877 27.8723 18.7378 27.8953L19.5004 28.2465C21.0104 28.9417 22.0219 29.4039 22.7781 29.6206C23.5197 29.8331 23.6856 29.7113 23.7475 29.6644C23.8277 29.6035 24.0014 29.4356 24.0383 28.6066C24.0753 27.7757 23.9657 26.6161 23.8 24.9054L23.716 24.039C23.7108 23.9849 23.7055 23.9312 23.7002 23.8779C23.6224 23.0875 23.5539 22.3909 23.7606 21.7261C23.9687 21.0568 24.4217 20.5289 24.9294 19.937C24.9637 19.8971 24.9981 19.8569 25.0328 19.8164L25.5881 19.1671C26.6855 17.8837 27.4234 17.0164 27.8585 16.3252C28.286 15.6462 28.253 15.3957 28.213 15.2672C28.1769 15.1511 28.0814 14.9424 27.369 14.6616C26.6354 14.3725 25.5577 14.1254 23.9451 13.7605L23.1306 13.5762C23.0782 13.5643 23.026 13.5526 22.9741 13.541C22.2366 13.3756 21.5555 13.2228 20.9957 12.7979C20.4425 12.378 20.1005 11.7619 19.7223 11.0806C19.6957 11.0326 19.6689 10.9843 19.6418 10.9358L19.2224 10.1833C18.3933 8.69606 17.8313 7.69395 17.3367 7.04802C16.8426 6.40282 16.6292 6.40007 16.5649 6.40007C16.5005 6.40007 16.2872 6.40282 15.7931 7.04802ZM13.9997 5.67465C14.6193 4.8656 15.4173 4.14122 16.5649 4.14122C17.7125 4.14122 18.5105 4.86559 19.1301 5.67465C19.7372 6.46746 20.378 7.61714 21.1499 9.00197L21.6148 9.83595C22.1246 10.7505 22.2352 10.9029 22.3615 10.9987C22.4807 11.0892 22.6373 11.1486 23.6291 11.373L24.537 11.5785C26.0315 11.9166 27.2821 12.1995 28.1972 12.5601C29.1527 12.9366 30.0316 13.5082 30.37 14.5965C30.7046 15.6724 30.3222 16.6515 29.7701 17.5286C29.2361 18.3769 28.3869 19.3699 27.3646 20.5653L26.7495 21.2845C26.0786 22.069 25.9698 22.2289 25.9175 22.3969C25.8638 22.5697 25.863 22.7754 25.9643 23.8212L26.057 24.7776C26.2119 26.3753 26.34 27.6965 26.2949 28.7071C26.249 29.7386 26.0135 30.7801 25.1133 31.4636C24.1946 32.161 23.1333 32.0721 22.1559 31.792C21.2126 31.5218 20.0425 30.9829 18.6435 30.3387L17.793 29.9471C16.8606 29.5178 16.7033 29.4721 16.5649 29.4721C16.4265 29.4721 16.2691 29.5178 15.3367 29.9471L14.4862 30.3387C13.0872 30.9829 11.9171 31.5218 10.9739 31.792C9.99649 32.0721 8.93518 32.161 8.01649 31.4636C7.11622 30.7801 6.88076 29.7386 6.83481 28.7071C6.78979 27.6965 6.91786 26.3753 7.07272 24.7777L7.16541 23.8212C7.26676 22.7754 7.26595 22.5697 7.21222 22.3969C7.15998 22.2289 7.05116 22.069 6.38023 21.2845L5.76514 20.5652C4.74287 19.3699 3.89368 18.3769 3.35962 17.5286C2.80751 16.6515 2.42518 15.6724 2.75976 14.5965C3.09818 13.5082 3.97708 12.9366 4.93252 12.5601C5.84766 12.1995 7.09821 11.9166 8.59269 11.5785L9.5007 11.373C10.4925 11.1486 10.6491 11.0892 10.7683 10.9987C10.8945 10.9029 11.0051 10.7505 11.5149 9.83596L11.9798 9.00197C12.7517 7.61714 13.3926 6.46746 13.9997 5.67465Z" fill="#FFDF00"/>
</svg>
