<svg xmlns="http://www.w3.org/2000/svg" xmlns:xlink="http://www.w3.org/1999/xlink" width="500" zoomAndPan="magnify" viewBox="0 0 375 374.999991" height="500" preserveAspectRatio="xMidYMid meet" version="1.0"><defs><clipPath id="552bd14e67"><path d="M 80 143 L 102 143 L 102 170 L 80 170 Z M 80 143 " clip-rule="nonzero"/></clipPath><clipPath id="5e95b2e979"><path d="M 79.816406 152.386719 L 222.894531 79.667969 L 295.617188 222.746094 L 152.535156 295.46875 Z M 79.816406 152.386719 " clip-rule="nonzero"/></clipPath><clipPath id="eadecaab00"><path d="M 79.816406 152.386719 L 222.894531 79.667969 L 295.617188 222.746094 L 152.535156 295.46875 Z M 79.816406 152.386719 " clip-rule="nonzero"/></clipPath><clipPath id="2578c125d7"><path d="M 203 80 L 232 80 L 232 99 L 203 99 Z M 203 80 " clip-rule="nonzero"/></clipPath><clipPath id="7ed4d01590"><path d="M 79.816406 152.386719 L 222.894531 79.667969 L 295.617188 222.746094 L 152.535156 295.46875 Z M 79.816406 152.386719 " clip-rule="nonzero"/></clipPath><clipPath id="ded4a7e454"><path d="M 79.816406 152.386719 L 222.894531 79.667969 L 295.617188 222.746094 L 152.535156 295.46875 Z M 79.816406 152.386719 " clip-rule="nonzero"/></clipPath><clipPath id="4f789453f1"><path d="M 144 276 L 172 276 L 172 295 L 144 295 Z M 144 276 " clip-rule="nonzero"/></clipPath><clipPath id="4436a641b4"><path d="M 79.816406 152.386719 L 222.894531 79.667969 L 295.617188 222.746094 L 152.535156 295.46875 Z M 79.816406 152.386719 " clip-rule="nonzero"/></clipPath><clipPath id="47d540d3ec"><path d="M 79.816406 152.386719 L 222.894531 79.667969 L 295.617188 222.746094 L 152.535156 295.46875 Z M 79.816406 152.386719 " clip-rule="nonzero"/></clipPath><clipPath id="902c2842a3"><path d="M 274 205 L 295 205 L 295 233 L 274 233 Z M 274 205 " clip-rule="nonzero"/></clipPath><clipPath id="e9bd7c6237"><path d="M 79.816406 152.386719 L 222.894531 79.667969 L 295.617188 222.746094 L 152.535156 295.46875 Z M 79.816406 152.386719 " clip-rule="nonzero"/></clipPath><clipPath id="2638abf55a"><path d="M 79.816406 152.386719 L 222.894531 79.667969 L 295.617188 222.746094 L 152.535156 295.46875 Z M 79.816406 152.386719 " clip-rule="nonzero"/></clipPath><clipPath id="7774df8f3f"><path d="M 144 138 L 155 138 L 155 153 L 144 153 Z M 144 138 " clip-rule="nonzero"/></clipPath><clipPath id="3588d03375"><path d="M 79.816406 152.386719 L 222.894531 79.667969 L 295.617188 222.746094 L 152.535156 295.46875 Z M 79.816406 152.386719 " clip-rule="nonzero"/></clipPath><clipPath id="4b720bbe3b"><path d="M 79.816406 152.386719 L 222.894531 79.667969 L 295.617188 222.746094 L 152.535156 295.46875 Z M 79.816406 152.386719 " clip-rule="nonzero"/></clipPath><clipPath id="27423580db"><path d="M 135 142 L 146 142 L 146 157 L 135 157 Z M 135 142 " clip-rule="nonzero"/></clipPath><clipPath id="7dc26385cc"><path d="M 79.816406 152.386719 L 222.894531 79.667969 L 295.617188 222.746094 L 152.535156 295.46875 Z M 79.816406 152.386719 " clip-rule="nonzero"/></clipPath><clipPath id="fb07e48e95"><path d="M 79.816406 152.386719 L 222.894531 79.667969 L 295.617188 222.746094 L 152.535156 295.46875 Z M 79.816406 152.386719 " clip-rule="nonzero"/></clipPath><clipPath id="877b8efb04"><path d="M 153 132 L 180 132 L 180 144 L 153 144 Z M 153 132 " clip-rule="nonzero"/></clipPath><clipPath id="1edf83758d"><path d="M 79.816406 152.386719 L 222.894531 79.667969 L 295.617188 222.746094 L 152.535156 295.46875 Z M 79.816406 152.386719 " clip-rule="nonzero"/></clipPath><clipPath id="6ea70affed"><path d="M 79.816406 152.386719 L 222.894531 79.667969 L 295.617188 222.746094 L 152.535156 295.46875 Z M 79.816406 152.386719 " clip-rule="nonzero"/></clipPath><clipPath id="ec0e3d0fc6"><path d="M 161 155 L 178 155 L 178 170 L 161 170 Z M 161 155 " clip-rule="nonzero"/></clipPath><clipPath id="9b88400418"><path d="M 79.816406 152.386719 L 222.894531 79.667969 L 295.617188 222.746094 L 152.535156 295.46875 Z M 79.816406 152.386719 " clip-rule="nonzero"/></clipPath><clipPath id="ba412060b0"><path d="M 79.816406 152.386719 L 222.894531 79.667969 L 295.617188 222.746094 L 152.535156 295.46875 Z M 79.816406 152.386719 " clip-rule="nonzero"/></clipPath><clipPath id="810eeff80b"><path d="M 142 153 L 160 153 L 160 179 L 142 179 Z M 142 153 " clip-rule="nonzero"/></clipPath><clipPath id="39f35e7e21"><path d="M 79.816406 152.386719 L 222.894531 79.667969 L 295.617188 222.746094 L 152.535156 295.46875 Z M 79.816406 152.386719 " clip-rule="nonzero"/></clipPath><clipPath id="40a3a7087a"><path d="M 79.816406 152.386719 L 222.894531 79.667969 L 295.617188 222.746094 L 152.535156 295.46875 Z M 79.816406 152.386719 " clip-rule="nonzero"/></clipPath><clipPath id="db059d72b6"><path d="M 174 161 L 204 161 L 204 195 L 174 195 Z M 174 161 " clip-rule="nonzero"/></clipPath><clipPath id="be72490809"><path d="M 79.816406 152.386719 L 222.894531 79.667969 L 295.617188 222.746094 L 152.535156 295.46875 Z M 79.816406 152.386719 " clip-rule="nonzero"/></clipPath><clipPath id="b40dd7f6e1"><path d="M 79.816406 152.386719 L 222.894531 79.667969 L 295.617188 222.746094 L 152.535156 295.46875 Z M 79.816406 152.386719 " clip-rule="nonzero"/></clipPath><clipPath id="1c725f0840"><path d="M 176 196 L 195 196 L 195 215 L 176 215 Z M 176 196 " clip-rule="nonzero"/></clipPath><clipPath id="03f6b84bc0"><path d="M 79.816406 152.386719 L 222.894531 79.667969 L 295.617188 222.746094 L 152.535156 295.46875 Z M 79.816406 152.386719 " clip-rule="nonzero"/></clipPath><clipPath id="c6fdb95b0f"><path d="M 79.816406 152.386719 L 222.894531 79.667969 L 295.617188 222.746094 L 152.535156 295.46875 Z M 79.816406 152.386719 " clip-rule="nonzero"/></clipPath><clipPath id="81f13aa4da"><path d="M 99 146 L 145 146 L 145 192 L 99 192 Z M 99 146 " clip-rule="nonzero"/></clipPath><clipPath id="b09ea32a77"><path d="M 79.816406 152.386719 L 222.894531 79.667969 L 295.617188 222.746094 L 152.535156 295.46875 Z M 79.816406 152.386719 " clip-rule="nonzero"/></clipPath><clipPath id="0716c80b58"><path d="M 79.816406 152.386719 L 222.894531 79.667969 L 295.617188 222.746094 L 152.535156 295.46875 Z M 79.816406 152.386719 " clip-rule="nonzero"/></clipPath><clipPath id="9be24cc418"><path d="M 111 157 L 133 157 L 133 180 L 111 180 Z M 111 157 " clip-rule="nonzero"/></clipPath><clipPath id="de867d7b39"><path d="M 79.816406 152.386719 L 222.894531 79.667969 L 295.617188 222.746094 L 152.535156 295.46875 Z M 79.816406 152.386719 " clip-rule="nonzero"/></clipPath><clipPath id="af80ad07ef"><path d="M 79.816406 152.386719 L 222.894531 79.667969 L 295.617188 222.746094 L 152.535156 295.46875 Z M 79.816406 152.386719 " clip-rule="nonzero"/></clipPath><clipPath id="f540d54ee4"><path d="M 141 228 L 187 228 L 187 275 L 141 275 Z M 141 228 " clip-rule="nonzero"/></clipPath><clipPath id="d8cee4b468"><path d="M 79.816406 152.386719 L 222.894531 79.667969 L 295.617188 222.746094 L 152.535156 295.46875 Z M 79.816406 152.386719 " clip-rule="nonzero"/></clipPath><clipPath id="7d333eb971"><path d="M 79.816406 152.386719 L 222.894531 79.667969 L 295.617188 222.746094 L 152.535156 295.46875 Z M 79.816406 152.386719 " clip-rule="nonzero"/></clipPath><clipPath id="d156a6625d"><path d="M 153 240 L 175 240 L 175 263 L 153 263 Z M 153 240 " clip-rule="nonzero"/></clipPath><clipPath id="f037518b86"><path d="M 79.816406 152.386719 L 222.894531 79.667969 L 295.617188 222.746094 L 152.535156 295.46875 Z M 79.816406 152.386719 " clip-rule="nonzero"/></clipPath><clipPath id="7db9f7c54c"><path d="M 79.816406 152.386719 L 222.894531 79.667969 L 295.617188 222.746094 L 152.535156 295.46875 Z M 79.816406 152.386719 " clip-rule="nonzero"/></clipPath><clipPath id="e7f0706846"><path d="M 188 100 L 235 100 L 235 147 L 188 147 Z M 188 100 " clip-rule="nonzero"/></clipPath><clipPath id="4e7d1f43d3"><path d="M 79.816406 152.386719 L 222.894531 79.667969 L 295.617188 222.746094 L 152.535156 295.46875 Z M 79.816406 152.386719 " clip-rule="nonzero"/></clipPath><clipPath id="04836ef6d8"><path d="M 79.816406 152.386719 L 222.894531 79.667969 L 295.617188 222.746094 L 152.535156 295.46875 Z M 79.816406 152.386719 " clip-rule="nonzero"/></clipPath><clipPath id="8eef6e371e"><path d="M 200 112 L 223 112 L 223 135 L 200 135 Z M 200 112 " clip-rule="nonzero"/></clipPath><clipPath id="065fc584c9"><path d="M 79.816406 152.386719 L 222.894531 79.667969 L 295.617188 222.746094 L 152.535156 295.46875 Z M 79.816406 152.386719 " clip-rule="nonzero"/></clipPath><clipPath id="122ea9fa8f"><path d="M 79.816406 152.386719 L 222.894531 79.667969 L 295.617188 222.746094 L 152.535156 295.46875 Z M 79.816406 152.386719 " clip-rule="nonzero"/></clipPath><clipPath id="55551baa7d"><path d="M 230 183 L 277 183 L 277 229 L 230 229 Z M 230 183 " clip-rule="nonzero"/></clipPath><clipPath id="ad1d87ad14"><path d="M 79.816406 152.386719 L 222.894531 79.667969 L 295.617188 222.746094 L 152.535156 295.46875 Z M 79.816406 152.386719 " clip-rule="nonzero"/></clipPath><clipPath id="b4d326c4a7"><path d="M 79.816406 152.386719 L 222.894531 79.667969 L 295.617188 222.746094 L 152.535156 295.46875 Z M 79.816406 152.386719 " clip-rule="nonzero"/></clipPath><clipPath id="7594090627"><path d="M 242 195 L 265 195 L 265 218 L 242 218 Z M 242 195 " clip-rule="nonzero"/></clipPath><clipPath id="9d48344fb3"><path d="M 79.816406 152.386719 L 222.894531 79.667969 L 295.617188 222.746094 L 152.535156 295.46875 Z M 79.816406 152.386719 " clip-rule="nonzero"/></clipPath><clipPath id="65bdf6de3b"><path d="M 79.816406 152.386719 L 222.894531 79.667969 L 295.617188 222.746094 L 152.535156 295.46875 Z M 79.816406 152.386719 " clip-rule="nonzero"/></clipPath><clipPath id="05db20bfe5"><path d="M 124 186 L 171 186 L 171 215 L 124 215 Z M 124 186 " clip-rule="nonzero"/></clipPath><clipPath id="fb656cc7bf"><path d="M 79.816406 152.386719 L 222.894531 79.667969 L 295.617188 222.746094 L 152.535156 295.46875 Z M 79.816406 152.386719 " clip-rule="nonzero"/></clipPath><clipPath id="007d291106"><path d="M 79.816406 152.386719 L 222.894531 79.667969 L 295.617188 222.746094 L 152.535156 295.46875 Z M 79.816406 152.386719 " clip-rule="nonzero"/></clipPath><clipPath id="a4f6738b76"><path d="M 135 181 L 151 181 L 151 192 L 135 192 Z M 135 181 " clip-rule="nonzero"/></clipPath><clipPath id="ce5eca1646"><path d="M 79.816406 152.386719 L 222.894531 79.667969 L 295.617188 222.746094 L 152.535156 295.46875 Z M 79.816406 152.386719 " clip-rule="nonzero"/></clipPath><clipPath id="947aea395d"><path d="M 79.816406 152.386719 L 222.894531 79.667969 L 295.617188 222.746094 L 152.535156 295.46875 Z M 79.816406 152.386719 " clip-rule="nonzero"/></clipPath><clipPath id="a6346502bf"><path d="M 163 170 L 172 170 L 172 181 L 163 181 Z M 163 170 " clip-rule="nonzero"/></clipPath><clipPath id="4c6b9e0968"><path d="M 79.816406 152.386719 L 222.894531 79.667969 L 295.617188 222.746094 L 152.535156 295.46875 Z M 79.816406 152.386719 " clip-rule="nonzero"/></clipPath><clipPath id="f150ad568b"><path d="M 79.816406 152.386719 L 222.894531 79.667969 L 295.617188 222.746094 L 152.535156 295.46875 Z M 79.816406 152.386719 " clip-rule="nonzero"/></clipPath><clipPath id="132ed47a0a"><path d="M 168 212 L 201 212 L 201 232 L 168 232 Z M 168 212 " clip-rule="nonzero"/></clipPath><clipPath id="62b7691913"><path d="M 79.816406 152.386719 L 222.894531 79.667969 L 295.617188 222.746094 L 152.535156 295.46875 Z M 79.816406 152.386719 " clip-rule="nonzero"/></clipPath><clipPath id="b91ea43fed"><path d="M 79.816406 152.386719 L 222.894531 79.667969 L 295.617188 222.746094 L 152.535156 295.46875 Z M 79.816406 152.386719 " clip-rule="nonzero"/></clipPath><clipPath id="583451d0dc"><path d="M 177 210 L 186 210 L 186 221 L 177 221 Z M 177 210 " clip-rule="nonzero"/></clipPath><clipPath id="bb6a06f49d"><path d="M 79.816406 152.386719 L 222.894531 79.667969 L 295.617188 222.746094 L 152.535156 295.46875 Z M 79.816406 152.386719 " clip-rule="nonzero"/></clipPath><clipPath id="a91f2a7bde"><path d="M 79.816406 152.386719 L 222.894531 79.667969 L 295.617188 222.746094 L 152.535156 295.46875 Z M 79.816406 152.386719 " clip-rule="nonzero"/></clipPath><clipPath id="802c7aeb1b"><path d="M 165 141 L 184 141 L 184 155 L 165 155 Z M 165 141 " clip-rule="nonzero"/></clipPath><clipPath id="691c79f7f2"><path d="M 79.816406 152.386719 L 222.894531 79.667969 L 295.617188 222.746094 L 152.535156 295.46875 Z M 79.816406 152.386719 " clip-rule="nonzero"/></clipPath><clipPath id="4871cc0495"><path d="M 79.816406 152.386719 L 222.894531 79.667969 L 295.617188 222.746094 L 152.535156 295.46875 Z M 79.816406 152.386719 " clip-rule="nonzero"/></clipPath><clipPath id="7a8784ffa2"><path d="M 187 147 L 216 147 L 216 166 L 187 166 Z M 187 147 " clip-rule="nonzero"/></clipPath><clipPath id="da2c6a594d"><path d="M 79.816406 152.386719 L 222.894531 79.667969 L 295.617188 222.746094 L 152.535156 295.46875 Z M 79.816406 152.386719 " clip-rule="nonzero"/></clipPath><clipPath id="577a097132"><path d="M 79.816406 152.386719 L 222.894531 79.667969 L 295.617188 222.746094 L 152.535156 295.46875 Z M 79.816406 152.386719 " clip-rule="nonzero"/></clipPath><clipPath id="5d6dff5f46"><path d="M 205 170 L 215 170 L 215 184 L 205 184 Z M 205 170 " clip-rule="nonzero"/></clipPath><clipPath id="1ec77b1269"><path d="M 79.816406 152.386719 L 222.894531 79.667969 L 295.617188 222.746094 L 152.535156 295.46875 Z M 79.816406 152.386719 " clip-rule="nonzero"/></clipPath><clipPath id="9e646146c0"><path d="M 79.816406 152.386719 L 222.894531 79.667969 L 295.617188 222.746094 L 152.535156 295.46875 Z M 79.816406 152.386719 " clip-rule="nonzero"/></clipPath><clipPath id="5625da87fb"><path d="M 196 191 L 211 191 L 211 206 L 196 206 Z M 196 191 " clip-rule="nonzero"/></clipPath><clipPath id="d055a9e5da"><path d="M 79.816406 152.386719 L 222.894531 79.667969 L 295.617188 222.746094 L 152.535156 295.46875 Z M 79.816406 152.386719 " clip-rule="nonzero"/></clipPath><clipPath id="27a62535ff"><path d="M 79.816406 152.386719 L 222.894531 79.667969 L 295.617188 222.746094 L 152.535156 295.46875 Z M 79.816406 152.386719 " clip-rule="nonzero"/></clipPath><clipPath id="f5bb99299d"><path d="M 196 201 L 205 201 L 205 214 L 196 214 Z M 196 201 " clip-rule="nonzero"/></clipPath><clipPath id="edbf2415e3"><path d="M 79.816406 152.386719 L 222.894531 79.667969 L 295.617188 222.746094 L 152.535156 295.46875 Z M 79.816406 152.386719 " clip-rule="nonzero"/></clipPath><clipPath id="a7bae2abd5"><path d="M 79.816406 152.386719 L 222.894531 79.667969 L 295.617188 222.746094 L 152.535156 295.46875 Z M 79.816406 152.386719 " clip-rule="nonzero"/></clipPath><clipPath id="2ee1660273"><path d="M 208 188 L 223 188 L 223 215 L 208 215 Z M 208 188 " clip-rule="nonzero"/></clipPath><clipPath id="a0976fc857"><path d="M 79.816406 152.386719 L 222.894531 79.667969 L 295.617188 222.746094 L 152.535156 295.46875 Z M 79.816406 152.386719 " clip-rule="nonzero"/></clipPath><clipPath id="20ca1a97e9"><path d="M 79.816406 152.386719 L 222.894531 79.667969 L 295.617188 222.746094 L 152.535156 295.46875 Z M 79.816406 152.386719 " clip-rule="nonzero"/></clipPath><clipPath id="a3a0206c3d"><path d="M 214 156 L 228 156 L 228 174 L 214 174 Z M 214 156 " clip-rule="nonzero"/></clipPath><clipPath id="d4da6dbd8a"><path d="M 79.816406 152.386719 L 222.894531 79.667969 L 295.617188 222.746094 L 152.535156 295.46875 Z M 79.816406 152.386719 " clip-rule="nonzero"/></clipPath><clipPath id="5359ff0e0f"><path d="M 79.816406 152.386719 L 222.894531 79.667969 L 295.617188 222.746094 L 152.535156 295.46875 Z M 79.816406 152.386719 " clip-rule="nonzero"/></clipPath><clipPath id="b30dc6f6bf"><path d="M 212 137 L 234 137 L 234 150 L 212 150 Z M 212 137 " clip-rule="nonzero"/></clipPath><clipPath id="9300d4958e"><path d="M 79.816406 152.386719 L 222.894531 79.667969 L 295.617188 222.746094 L 152.535156 295.46875 Z M 79.816406 152.386719 " clip-rule="nonzero"/></clipPath><clipPath id="d9088307ec"><path d="M 79.816406 152.386719 L 222.894531 79.667969 L 295.617188 222.746094 L 152.535156 295.46875 Z M 79.816406 152.386719 " clip-rule="nonzero"/></clipPath><clipPath id="da34abda11"><path d="M 224 143 L 247 143 L 247 164 L 224 164 Z M 224 143 " clip-rule="nonzero"/></clipPath><clipPath id="4dbb6eb373"><path d="M 79.816406 152.386719 L 222.894531 79.667969 L 295.617188 222.746094 L 152.535156 295.46875 Z M 79.816406 152.386719 " clip-rule="nonzero"/></clipPath><clipPath id="0994297f21"><path d="M 79.816406 152.386719 L 222.894531 79.667969 L 295.617188 222.746094 L 152.535156 295.46875 Z M 79.816406 152.386719 " clip-rule="nonzero"/></clipPath><clipPath id="86935f07dc"><path d="M 179 235 L 203 235 L 203 253 L 179 253 Z M 179 235 " clip-rule="nonzero"/></clipPath><clipPath id="0e0949cc26"><path d="M 79.816406 152.386719 L 222.894531 79.667969 L 295.617188 222.746094 L 152.535156 295.46875 Z M 79.816406 152.386719 " clip-rule="nonzero"/></clipPath><clipPath id="1950da22ee"><path d="M 79.816406 152.386719 L 222.894531 79.667969 L 295.617188 222.746094 L 152.535156 295.46875 Z M 79.816406 152.386719 " clip-rule="nonzero"/></clipPath><clipPath id="0d67b86563"><path d="M 199 231 L 234 231 L 234 244 L 199 244 Z M 199 231 " clip-rule="nonzero"/></clipPath><clipPath id="95d107b334"><path d="M 79.816406 152.386719 L 222.894531 79.667969 L 295.617188 222.746094 L 152.535156 295.46875 Z M 79.816406 152.386719 " clip-rule="nonzero"/></clipPath><clipPath id="a0b6d526b2"><path d="M 79.816406 152.386719 L 222.894531 79.667969 L 295.617188 222.746094 L 152.535156 295.46875 Z M 79.816406 152.386719 " clip-rule="nonzero"/></clipPath><clipPath id="03b0527253"><path d="M 220 214 L 239 214 L 239 233 L 220 233 Z M 220 214 " clip-rule="nonzero"/></clipPath><clipPath id="c99cc7b3f5"><path d="M 79.816406 152.386719 L 222.894531 79.667969 L 295.617188 222.746094 L 152.535156 295.46875 Z M 79.816406 152.386719 " clip-rule="nonzero"/></clipPath><clipPath id="393e87c120"><path d="M 79.816406 152.386719 L 222.894531 79.667969 L 295.617188 222.746094 L 152.535156 295.46875 Z M 79.816406 152.386719 " clip-rule="nonzero"/></clipPath><clipPath id="efe8186ee7"><path d="M 195 216 L 226 216 L 226 234 L 195 234 Z M 195 216 " clip-rule="nonzero"/></clipPath><clipPath id="a8dfdd9c9b"><path d="M 79.816406 152.386719 L 222.894531 79.667969 L 295.617188 222.746094 L 152.535156 295.46875 Z M 79.816406 152.386719 " clip-rule="nonzero"/></clipPath><clipPath id="5200a69817"><path d="M 79.816406 152.386719 L 222.894531 79.667969 L 295.617188 222.746094 L 152.535156 295.46875 Z M 79.816406 152.386719 " clip-rule="nonzero"/></clipPath><clipPath id="c0f877d085"><path d="M 216 178 L 237 178 L 237 196 L 216 196 Z M 216 178 " clip-rule="nonzero"/></clipPath><clipPath id="f0d075e097"><path d="M 79.816406 152.386719 L 222.894531 79.667969 L 295.617188 222.746094 L 152.535156 295.46875 Z M 79.816406 152.386719 " clip-rule="nonzero"/></clipPath><clipPath id="dcebcc027e"><path d="M 79.816406 152.386719 L 222.894531 79.667969 L 295.617188 222.746094 L 152.535156 295.46875 Z M 79.816406 152.386719 " clip-rule="nonzero"/></clipPath><clipPath id="78d54a7d42"><path d="M 226 171 L 259 171 L 259 186 L 226 186 Z M 226 171 " clip-rule="nonzero"/></clipPath><clipPath id="23bfba0546"><path d="M 79.816406 152.386719 L 222.894531 79.667969 L 295.617188 222.746094 L 152.535156 295.46875 Z M 79.816406 152.386719 " clip-rule="nonzero"/></clipPath><clipPath id="175b4b6fdd"><path d="M 79.816406 152.386719 L 222.894531 79.667969 L 295.617188 222.746094 L 152.535156 295.46875 Z M 79.816406 152.386719 " clip-rule="nonzero"/></clipPath><clipPath id="bf873d9c36"><path d="M 243 159 L 253 159 L 253 172 L 243 172 Z M 243 159 " clip-rule="nonzero"/></clipPath><clipPath id="fa58dd6abc"><path d="M 79.816406 152.386719 L 222.894531 79.667969 L 295.617188 222.746094 L 152.535156 295.46875 Z M 79.816406 152.386719 " clip-rule="nonzero"/></clipPath><clipPath id="808f1b08b9"><path d="M 79.816406 152.386719 L 222.894531 79.667969 L 295.617188 222.746094 L 152.535156 295.46875 Z M 79.816406 152.386719 " clip-rule="nonzero"/></clipPath><clipPath id="81c28ef024"><path d="M 116 194 L 126 194 L 126 208 L 116 208 Z M 116 194 " clip-rule="nonzero"/></clipPath><clipPath id="37bce225ce"><path d="M 79.816406 152.386719 L 222.894531 79.667969 L 295.617188 222.746094 L 152.535156 295.46875 Z M 79.816406 152.386719 " clip-rule="nonzero"/></clipPath><clipPath id="b66ef04954"><path d="M 79.816406 152.386719 L 222.894531 79.667969 L 295.617188 222.746094 L 152.535156 295.46875 Z M 79.816406 152.386719 " clip-rule="nonzero"/></clipPath><clipPath id="552e051a12"><path d="M 125 208 L 139 208 L 139 220 L 125 220 Z M 125 208 " clip-rule="nonzero"/></clipPath><clipPath id="afe179fb5e"><path d="M 79.816406 152.386719 L 222.894531 79.667969 L 295.617188 222.746094 L 152.535156 295.46875 Z M 79.816406 152.386719 " clip-rule="nonzero"/></clipPath><clipPath id="6fbbb39dd5"><path d="M 79.816406 152.386719 L 222.894531 79.667969 L 295.617188 222.746094 L 152.535156 295.46875 Z M 79.816406 152.386719 " clip-rule="nonzero"/></clipPath><clipPath id="cbb0d2b29a"><path d="M 132 218 L 153 218 L 153 240 L 132 240 Z M 132 218 " clip-rule="nonzero"/></clipPath><clipPath id="b646e09f63"><path d="M 79.816406 152.386719 L 222.894531 79.667969 L 295.617188 222.746094 L 152.535156 295.46875 Z M 79.816406 152.386719 " clip-rule="nonzero"/></clipPath><clipPath id="e5313263bb"><path d="M 79.816406 152.386719 L 222.894531 79.667969 L 295.617188 222.746094 L 152.535156 295.46875 Z M 79.816406 152.386719 " clip-rule="nonzero"/></clipPath><clipPath id="c30516b78b"><path d="M 146 213 L 166 213 L 166 236 L 146 236 Z M 146 213 " clip-rule="nonzero"/></clipPath><clipPath id="bea346f619"><path d="M 79.816406 152.386719 L 222.894531 79.667969 L 295.617188 222.746094 L 152.535156 295.46875 Z M 79.816406 152.386719 " clip-rule="nonzero"/></clipPath><clipPath id="79248858ed"><path d="M 79.816406 152.386719 L 222.894531 79.667969 L 295.617188 222.746094 L 152.535156 295.46875 Z M 79.816406 152.386719 " clip-rule="nonzero"/></clipPath><clipPath id="b7c14d86af"><path d="M 180 121 L 197 121 L 197 149 L 180 149 Z M 180 121 " clip-rule="nonzero"/></clipPath><clipPath id="134db3ff18"><path d="M 79.816406 152.386719 L 222.894531 79.667969 L 295.617188 222.746094 L 152.535156 295.46875 Z M 79.816406 152.386719 " clip-rule="nonzero"/></clipPath><clipPath id="fa04ef1484"><path d="M 79.816406 152.386719 L 222.894531 79.667969 L 295.617188 222.746094 L 152.535156 295.46875 Z M 79.816406 152.386719 " clip-rule="nonzero"/></clipPath><clipPath id="fad595c53b"><path d="M 167 182 L 180 182 L 180 194 L 167 194 Z M 167 182 " clip-rule="nonzero"/></clipPath><clipPath id="f55c2eabf1"><path d="M 79.816406 152.386719 L 222.894531 79.667969 L 295.617188 222.746094 L 152.535156 295.46875 Z M 79.816406 152.386719 " clip-rule="nonzero"/></clipPath><clipPath id="99b64fb1c3"><path d="M 79.816406 152.386719 L 222.894531 79.667969 L 295.617188 222.746094 L 152.535156 295.46875 Z M 79.816406 152.386719 " clip-rule="nonzero"/></clipPath><clipPath id="74802fa026"><path d="M 176 159 L 188 159 L 188 174 L 176 174 Z M 176 159 " clip-rule="nonzero"/></clipPath><clipPath id="925b4d6262"><path d="M 79.816406 152.386719 L 222.894531 79.667969 L 295.617188 222.746094 L 152.535156 295.46875 Z M 79.816406 152.386719 " clip-rule="nonzero"/></clipPath><clipPath id="74a70a4a95"><path d="M 79.816406 152.386719 L 222.894531 79.667969 L 295.617188 222.746094 L 152.535156 295.46875 Z M 79.816406 152.386719 " clip-rule="nonzero"/></clipPath><clipPath id="5f671d3f78"><path d="M 2 74 L 128 74 L 128 247 L 2 247 Z M 2 74 " clip-rule="nonzero"/></clipPath><clipPath id="a17107c4ec"><path d="M 2.164062 134.105469 L 114.996094 74.738281 L 174.367188 187.570312 L 61.53125 246.941406 Z M 2.164062 134.105469 " clip-rule="nonzero"/></clipPath><clipPath id="f0b99da5d0"><path d="M 2.164062 134.105469 L 114.996094 74.738281 L 174.367188 187.570312 L 61.53125 246.941406 Z M 2.164062 134.105469 " clip-rule="nonzero"/></clipPath><clipPath id="ba1164dabf"><path d="M 132 6 L 305 6 L 305 133 L 132 133 Z M 132 6 " clip-rule="nonzero"/></clipPath><clipPath id="4682e4997e"><path d="M 132.777344 65.828125 L 245.613281 6.460938 L 304.980469 119.296875 L 192.144531 178.664062 Z M 132.777344 65.828125 " clip-rule="nonzero"/></clipPath><clipPath id="21b00a7143"><path d="M 245.589844 6.472656 L 132.757812 65.839844 L 192.125 178.675781 L 304.957031 119.304688 Z M 245.589844 6.472656 " clip-rule="nonzero"/></clipPath><clipPath id="26d842a4df"><path d="M 69 249 L 242 249 L 242 375 L 69 375 Z M 69 249 " clip-rule="nonzero"/></clipPath><clipPath id="26c4eb8ee2"><path d="M 69.203125 262.089844 L 182.039062 202.722656 L 241.40625 315.558594 L 128.570312 374.925781 Z M 69.203125 262.089844 " clip-rule="nonzero"/></clipPath><clipPath id="07e7a4a017"><path d="M 128.609375 375 L 241.445312 315.628906 L 182.074219 202.796875 L 69.242188 262.164062 Z M 128.609375 375 " clip-rule="nonzero"/></clipPath><clipPath id="fb1d4c344f"><path d="M 245 134 L 372 134 L 372 307 L 245 307 Z M 245 134 " clip-rule="nonzero"/></clipPath><clipPath id="8f1f2122cb"><path d="M 199.179688 193.644531 L 312.015625 134.277344 L 371.382812 247.113281 L 258.546875 306.480469 Z M 199.179688 193.644531 " clip-rule="nonzero"/></clipPath><clipPath id="b2073830b2"><path d="M 371.492188 247.144531 L 258.65625 306.515625 L 199.289062 193.679688 L 312.125 134.3125 Z M 371.492188 247.144531 " clip-rule="nonzero"/></clipPath></defs><g clip-path="url(#552bd14e67)"><g clip-path="url(#5e95b2e979)"><g clip-path="url(#eadecaab00)"><path fill="#ffffff" d="M 91.140625 169.136719 C 92.371094 168.511719 92.863281 166.992188 92.238281 165.761719 L 86.558594 154.585938 L 99.972656 147.769531 C 101.203125 147.144531 101.695312 145.625 101.070312 144.394531 C 100.445312 143.167969 98.929688 142.671875 97.699219 143.296875 L 82.050781 151.25 C 80.820312 151.875 80.324219 153.390625 80.949219 154.621094 L 87.769531 168.035156 C 88.394531 169.265625 89.910156 169.761719 91.140625 169.136719 Z M 91.140625 169.136719 " fill-opacity="1" fill-rule="nonzero"/></g></g></g><g clip-path="url(#2578c125d7)"><g clip-path="url(#7ed4d01590)"><g clip-path="url(#ded4a7e454)"><path fill="#ffffff" d="M 220.660156 80.800781 L 205.011719 88.757812 C 203.78125 89.382812 203.285156 90.898438 203.910156 92.128906 C 204.535156 93.359375 206.054688 93.851562 207.28125 93.226562 L 220.695312 86.410156 L 226.378906 97.589844 C 227.003906 98.816406 228.519531 99.3125 229.75 98.6875 C 230.980469 98.0625 231.472656 96.546875 230.847656 95.316406 L 224.03125 81.902344 C 223.40625 80.671875 221.890625 80.175781 220.660156 80.800781 Z M 220.660156 80.800781 " fill-opacity="1" fill-rule="nonzero"/></g></g></g><g clip-path="url(#4f789453f1)"><g clip-path="url(#4436a641b4)"><g clip-path="url(#47d540d3ec)"><path fill="#ffffff" d="M 168.148438 281.90625 L 154.734375 288.722656 L 149.050781 277.542969 C 148.425781 276.316406 146.910156 275.820312 145.679688 276.445312 C 144.449219 277.070312 143.957031 278.585938 144.582031 279.816406 L 151.398438 293.230469 C 152.023438 294.460938 153.542969 294.957031 154.769531 294.332031 L 170.421875 286.375 C 171.648438 285.75 172.144531 284.234375 171.519531 283.003906 C 170.894531 281.773438 169.378906 281.28125 168.148438 281.90625 Z M 168.148438 281.90625 " fill-opacity="1" fill-rule="nonzero"/></g></g></g><g clip-path="url(#902c2842a3)"><g clip-path="url(#e9bd7c6237)"><g clip-path="url(#2638abf55a)"><path fill="#ffffff" d="M 284.289062 205.996094 C 283.058594 206.621094 282.566406 208.140625 283.191406 209.371094 L 288.871094 220.546875 L 275.457031 227.367188 C 274.226562 227.988281 273.734375 229.507812 274.359375 230.738281 C 274.984375 231.964844 276.5 232.460938 277.730469 231.835938 L 293.378906 223.882812 C 294.609375 223.257812 295.105469 221.742188 294.480469 220.511719 L 287.660156 207.097656 C 287.035156 205.867188 285.519531 205.371094 284.289062 205.996094 Z M 284.289062 205.996094 " fill-opacity="1" fill-rule="nonzero"/></g></g></g><g clip-path="url(#7774df8f3f)"><g clip-path="url(#3588d03375)"><g clip-path="url(#4b720bbe3b)"><path fill="#ffffff" d="M 153.8125 148.535156 L 149.265625 139.59375 C 148.640625 138.363281 147.125 137.867188 145.894531 138.492188 C 144.664062 139.117188 144.171875 140.636719 144.796875 141.863281 L 149.339844 150.808594 C 149.964844 152.039062 151.484375 152.53125 152.710938 151.90625 C 153.941406 151.28125 154.4375 149.765625 153.8125 148.535156 Z M 153.8125 148.535156 " fill-opacity="1" fill-rule="nonzero"/></g></g></g><g clip-path="url(#27423580db)"><g clip-path="url(#7dc26385cc)"><g clip-path="url(#fb07e48e95)"><path fill="#ffffff" d="M 144.871094 153.082031 L 140.324219 144.136719 C 139.699219 142.90625 138.183594 142.414062 136.953125 143.039062 C 135.722656 143.664062 135.226562 145.179688 135.851562 146.410156 L 140.398438 155.351562 C 141.023438 156.582031 142.539062 157.078125 143.769531 156.453125 C 145 155.828125 145.496094 154.308594 144.871094 153.082031 Z M 144.871094 153.082031 " fill-opacity="1" fill-rule="nonzero"/></g></g></g><g clip-path="url(#877b8efb04)"><g clip-path="url(#1edf83758d)"><g clip-path="url(#6ea70affed)"><path fill="#ffffff" d="M 161.734375 133.679688 L 155.25 136.972656 C 154.019531 137.597656 153.527344 139.117188 154.152344 140.34375 C 154.777344 141.574219 156.292969 142.070312 157.523438 141.445312 L 161.769531 139.285156 L 163.304688 142.304688 C 163.929688 143.535156 165.445312 144.027344 166.675781 143.402344 L 177.855469 137.722656 C 179.082031 137.097656 179.578125 135.578125 178.953125 134.351562 C 178.328125 133.121094 176.8125 132.625 175.582031 133.25 L 166.640625 137.796875 L 165.105469 134.777344 C 164.480469 133.546875 162.960938 133.054688 161.734375 133.679688 Z M 161.734375 133.679688 " fill-opacity="1" fill-rule="nonzero"/></g></g></g><g clip-path="url(#ec0e3d0fc6)"><g clip-path="url(#9b88400418)"><g clip-path="url(#ba412060b0)"><path fill="#ffffff" d="M 161.886719 165.25 C 162.507812 166.480469 164.027344 166.972656 165.257812 166.347656 L 168.609375 164.644531 L 170.199219 167.773438 C 170.824219 169.003906 172.34375 169.5 173.574219 168.875 C 174.800781 168.25 175.296875 166.730469 174.671875 165.5 L 173.082031 162.371094 L 176.433594 160.667969 C 177.664062 160.042969 178.160156 158.523438 177.535156 157.296875 C 176.910156 156.066406 175.390625 155.570312 174.164062 156.195312 L 162.984375 161.878906 C 161.753906 162.503906 161.261719 164.019531 161.886719 165.25 Z M 161.886719 165.25 " fill-opacity="1" fill-rule="nonzero"/></g></g></g><g clip-path="url(#810eeff80b)"><g clip-path="url(#39f35e7e21)"><g clip-path="url(#40a3a7087a)"><path fill="#ffffff" d="M 142.75 163.300781 C 143.375 164.53125 144.890625 165.023438 146.121094 164.398438 L 151.152344 161.84375 L 153.59375 166.648438 L 150.015625 168.46875 C 148.789062 169.09375 148.292969 170.609375 148.917969 171.839844 L 151.644531 177.203125 C 152.269531 178.433594 153.789062 178.929688 155.015625 178.304688 C 156.246094 177.679688 156.742188 176.160156 156.117188 174.933594 L 154.527344 171.800781 L 158.101562 169.984375 C 159.332031 169.359375 159.828125 167.84375 159.203125 166.613281 L 155.621094 159.570312 L 158.417969 158.148438 C 159.648438 157.523438 160.140625 156.007812 159.515625 154.777344 C 158.890625 153.546875 157.375 153.054688 156.144531 153.679688 L 143.847656 159.929688 C 142.621094 160.554688 142.125 162.070312 142.75 163.300781 Z M 142.75 163.300781 " fill-opacity="1" fill-rule="nonzero"/></g></g></g><g clip-path="url(#db059d72b6)"><g clip-path="url(#be72490809)"><g clip-path="url(#b40dd7f6e1)"><path fill="#ffffff" d="M 175.171875 181.703125 C 175.796875 182.933594 177.3125 183.429688 178.542969 182.804688 L 182.121094 180.984375 L 182.800781 182.328125 C 183.425781 183.558594 184.945312 184.050781 186.171875 183.425781 L 191.761719 180.585938 L 193.863281 184.722656 L 184.140625 189.664062 C 182.910156 190.289062 182.414062 191.808594 183.039062 193.035156 C 183.664062 194.265625 185.183594 194.761719 186.414062 194.136719 L 198.375 188.058594 C 199.601562 187.433594 200.097656 185.914062 199.472656 184.683594 L 196.234375 178.3125 L 200.148438 176.324219 C 201.375 175.699219 201.871094 174.183594 201.246094 172.953125 L 198.6875 167.921875 L 202.601562 165.933594 C 203.832031 165.308594 204.324219 163.792969 203.699219 162.5625 C 203.074219 161.332031 201.558594 160.839844 200.328125 161.464844 L 194.179688 164.589844 C 192.953125 165.214844 192.457031 166.730469 193.082031 167.960938 L 195.636719 172.992188 L 186.136719 177.820312 L 185.457031 176.476562 C 184.832031 175.25 183.3125 174.753906 182.082031 175.378906 L 176.269531 178.332031 C 175.042969 178.957031 174.546875 180.476562 175.171875 181.703125 Z M 175.171875 181.703125 " fill-opacity="1" fill-rule="nonzero"/></g></g></g><g clip-path="url(#1c725f0840)"><g clip-path="url(#03f6b84bc0)"><g clip-path="url(#c6fdb95b0f)"><path fill="#ffffff" d="M 176.570312 206.59375 C 177.195312 207.824219 178.710938 208.316406 179.941406 207.695312 L 184.1875 205.535156 L 187.882812 212.800781 C 188.507812 214.03125 190.023438 214.523438 191.253906 213.898438 C 192.484375 213.273438 192.976562 211.757812 192.351562 210.527344 L 188.660156 203.261719 L 192.90625 201.101562 C 194.136719 200.476562 194.632812 198.960938 194.007812 197.730469 C 193.382812 196.5 191.863281 196.007812 190.632812 196.632812 L 177.667969 203.222656 C 176.4375 203.847656 175.945312 205.363281 176.570312 206.59375 Z M 176.570312 206.59375 " fill-opacity="1" fill-rule="nonzero"/></g></g></g><g clip-path="url(#81f13aa4da)"><g clip-path="url(#b09ea32a77)"><g clip-path="url(#0716c80b58)"><path fill="#ffffff" d="M 127.441406 146.464844 L 100.613281 160.101562 C 99.382812 160.726562 98.890625 162.242188 99.515625 163.472656 L 113.148438 190.300781 C 113.773438 191.53125 115.292969 192.023438 116.523438 191.398438 L 143.347656 177.765625 C 144.578125 177.140625 145.074219 175.621094 144.449219 174.390625 L 130.8125 147.566406 C 130.1875 146.335938 128.671875 145.839844 127.441406 146.464844 Z M 138.839844 174.429688 L 116.484375 185.792969 L 105.121094 163.433594 L 127.480469 152.074219 Z M 138.839844 174.429688 " fill-opacity="1" fill-rule="nonzero"/></g></g></g><g clip-path="url(#9be24cc418)"><g clip-path="url(#de867d7b39)"><g clip-path="url(#af80ad07ef)"><path fill="#ffffff" d="M 120.371094 179.597656 L 131.546875 173.917969 C 132.777344 173.292969 133.273438 171.773438 132.648438 170.542969 L 126.964844 159.367188 C 126.339844 158.136719 124.824219 157.640625 123.59375 158.265625 L 112.414062 163.949219 C 111.1875 164.574219 110.691406 166.089844 111.316406 167.320312 L 116.996094 178.5 C 117.621094 179.726562 119.140625 180.222656 120.371094 179.597656 Z M 116.925781 167.285156 L 123.628906 163.875 L 127.039062 170.582031 L 120.332031 173.988281 Z M 116.925781 167.285156 " fill-opacity="1" fill-rule="nonzero"/></g></g></g><g clip-path="url(#f540d54ee4)"><g clip-path="url(#d8cee4b468)"><g clip-path="url(#7d333eb971)"><path fill="#ffffff" d="M 155.191406 273.019531 C 155.816406 274.246094 157.332031 274.742188 158.5625 274.117188 L 185.390625 260.484375 C 186.621094 259.859375 187.113281 258.339844 186.488281 257.109375 L 172.855469 230.28125 C 172.230469 229.054688 170.710938 228.558594 169.484375 229.183594 L 142.65625 242.820312 C 141.425781 243.445312 140.929688 244.960938 141.554688 246.191406 Z M 147.164062 246.152344 L 169.519531 234.792969 L 180.882812 257.148438 L 158.527344 268.511719 Z M 147.164062 246.152344 " fill-opacity="1" fill-rule="nonzero"/></g></g></g><g clip-path="url(#d156a6625d)"><g clip-path="url(#f037518b86)"><g clip-path="url(#7db9f7c54c)"><path fill="#ffffff" d="M 165.636719 240.984375 L 154.457031 246.667969 C 153.226562 247.292969 152.734375 248.808594 153.359375 250.039062 L 159.039062 261.214844 C 159.664062 262.445312 161.179688 262.941406 162.410156 262.316406 L 173.589844 256.636719 C 174.820312 256.011719 175.3125 254.492188 174.6875 253.261719 L 169.007812 242.085938 C 168.382812 240.855469 166.863281 240.359375 165.636719 240.984375 Z M 169.082031 253.300781 L 162.375 256.707031 L 158.964844 250 L 165.671875 246.59375 Z M 169.082031 253.300781 " fill-opacity="1" fill-rule="nonzero"/></g></g></g><g clip-path="url(#e7f0706846)"><g clip-path="url(#4e7d1f43d3)"><g clip-path="url(#04836ef6d8)"><path fill="#ffffff" d="M 220.238281 102.113281 C 219.613281 100.886719 218.097656 100.390625 216.867188 101.015625 L 190.039062 114.648438 C 188.808594 115.273438 188.316406 116.792969 188.941406 118.023438 L 202.574219 144.851562 C 203.199219 146.078125 204.71875 146.574219 205.945312 145.949219 L 232.773438 132.3125 C 234.003906 131.6875 234.5 130.171875 233.875 128.941406 Z M 228.265625 128.980469 L 205.910156 140.339844 L 194.546875 117.984375 L 216.902344 106.621094 Z M 228.265625 128.980469 " fill-opacity="1" fill-rule="nonzero"/></g></g></g><g clip-path="url(#8eef6e371e)"><g clip-path="url(#065fc584c9)"><g clip-path="url(#122ea9fa8f)"><path fill="#ffffff" d="M 209.792969 134.148438 L 220.972656 128.464844 C 222.203125 127.839844 222.699219 126.324219 222.074219 125.09375 L 216.390625 113.917969 C 215.765625 112.6875 214.25 112.191406 213.019531 112.816406 L 201.839844 118.5 C 200.613281 119.121094 200.117188 120.640625 200.742188 121.871094 L 206.421875 133.046875 C 207.046875 134.277344 208.566406 134.773438 209.792969 134.148438 Z M 206.347656 121.832031 L 213.054688 118.425781 L 216.464844 125.132812 L 209.757812 128.539062 Z M 206.347656 121.832031 " fill-opacity="1" fill-rule="nonzero"/></g></g></g><g clip-path="url(#55551baa7d)"><g clip-path="url(#ad1d87ad14)"><g clip-path="url(#b4d326c4a7)"><path fill="#ffffff" d="M 247.988281 228.667969 L 274.816406 215.03125 C 276.046875 214.40625 276.539062 212.890625 275.914062 211.660156 L 262.28125 184.832031 C 261.65625 183.601562 260.136719 183.109375 258.910156 183.734375 L 232.082031 197.367188 C 230.851562 197.992188 230.355469 199.511719 230.980469 200.742188 L 244.617188 227.566406 C 245.242188 228.796875 246.757812 229.292969 247.988281 228.667969 Z M 236.589844 200.703125 L 258.945312 189.339844 L 270.308594 211.699219 L 247.953125 223.058594 Z M 236.589844 200.703125 " fill-opacity="1" fill-rule="nonzero"/></g></g></g><g clip-path="url(#7594090627)"><g clip-path="url(#9d48344fb3)"><g clip-path="url(#65bdf6de3b)"><path fill="#ffffff" d="M 255.0625 195.535156 L 243.882812 201.214844 C 242.652344 201.839844 242.15625 203.359375 242.78125 204.589844 L 248.464844 215.765625 C 249.089844 216.996094 250.605469 217.492188 251.835938 216.867188 L 263.015625 211.183594 C 264.242188 210.558594 264.738281 209.042969 264.113281 207.8125 L 258.433594 196.632812 C 257.808594 195.40625 256.289062 194.910156 255.0625 195.535156 Z M 258.507812 207.847656 L 251.800781 211.257812 L 248.390625 204.550781 L 255.097656 201.144531 Z M 258.507812 207.847656 " fill-opacity="1" fill-rule="nonzero"/></g></g></g><g clip-path="url(#05db20bfe5)"><g clip-path="url(#fb656cc7bf)"><g clip-path="url(#007d291106)"><path fill="#ffffff" d="M 129.535156 192.097656 C 128.910156 190.871094 127.394531 190.375 126.164062 191 C 124.933594 191.625 124.441406 193.140625 125.066406 194.371094 L 129.894531 203.871094 C 130.519531 205.101562 132.035156 205.597656 133.265625 204.972656 L 137.738281 202.699219 L 143.019531 213.09375 C 143.644531 214.324219 145.164062 214.820312 146.394531 214.195312 L 156.453125 209.082031 C 157.683594 208.457031 158.175781 206.9375 157.550781 205.710938 C 156.925781 204.480469 155.410156 203.984375 154.179688 204.609375 L 146.355469 208.585938 L 142.207031 200.425781 L 158.976562 191.90625 L 165.964844 205.65625 C 166.589844 206.882812 168.105469 207.378906 169.335938 206.753906 C 170.566406 206.128906 171.058594 204.613281 170.433594 203.382812 L 162.3125 187.398438 C 161.6875 186.167969 160.167969 185.671875 158.9375 186.296875 L 133.230469 199.363281 Z M 129.535156 192.097656 " fill-opacity="1" fill-rule="nonzero"/></g></g></g><g clip-path="url(#a4f6738b76)"><g clip-path="url(#ce5eca1646)"><g clip-path="url(#947aea395d)"><path fill="#ffffff" d="M 146.628906 182.003906 L 137.128906 186.832031 C 135.898438 187.457031 135.402344 188.976562 136.027344 190.207031 C 136.652344 191.433594 138.171875 191.929688 139.402344 191.304688 L 148.902344 186.476562 C 150.132812 185.851562 150.625 184.332031 150 183.105469 C 149.375 181.875 147.859375 181.378906 146.628906 182.003906 Z M 146.628906 182.003906 " fill-opacity="1" fill-rule="nonzero"/></g></g></g><g clip-path="url(#a6346502bf)"><g clip-path="url(#4c6b9e0968)"><g clip-path="url(#f150ad568b)"><path fill="#ffffff" d="M 170.820312 176.460938 L 168.546875 171.992188 C 167.921875 170.761719 166.402344 170.265625 165.175781 170.890625 C 163.945312 171.515625 163.449219 173.035156 164.074219 174.261719 L 166.347656 178.734375 C 166.972656 179.964844 168.488281 180.457031 169.71875 179.832031 C 170.949219 179.210938 171.445312 177.691406 170.820312 176.460938 Z M 170.820312 176.460938 " fill-opacity="1" fill-rule="nonzero"/></g></g></g><g clip-path="url(#132ed47a0a)"><g clip-path="url(#62b7691913)"><g clip-path="url(#b91ea43fed)"><path fill="#ffffff" d="M 200.25 217.765625 C 199.625 216.535156 198.109375 216.042969 196.878906 216.667969 L 178.992188 225.757812 L 173.140625 214.242188 C 172.515625 213.011719 171 212.519531 169.769531 213.144531 C 168.539062 213.769531 168.046875 215.285156 168.671875 216.515625 L 175.660156 230.265625 C 176.285156 231.496094 177.800781 231.988281 179.03125 231.363281 L 199.152344 221.136719 C 200.382812 220.511719 200.875 218.996094 200.25 217.765625 Z M 200.25 217.765625 " fill-opacity="1" fill-rule="nonzero"/></g></g></g><g clip-path="url(#583451d0dc)"><g clip-path="url(#bb6a06f49d)"><g clip-path="url(#a91f2a7bde)"><path fill="#ffffff" d="M 178.023438 214.714844 L 180.410156 219.410156 C 181.035156 220.640625 182.550781 221.136719 183.78125 220.511719 C 185.011719 219.886719 185.507812 218.367188 184.882812 217.136719 L 182.4375 212.332031 C 181.8125 211.101562 180.296875 210.605469 179.066406 211.230469 C 177.835938 211.855469 177.34375 213.375 178.023438 214.714844 Z M 178.023438 214.714844 " fill-opacity="1" fill-rule="nonzero"/></g></g></g><g clip-path="url(#802c7aeb1b)"><g clip-path="url(#691c79f7f2)"><g clip-path="url(#4871cc0495)"><path fill="#ffffff" d="M 181.886719 153.957031 C 183.117188 153.332031 183.609375 151.816406 182.984375 150.585938 L 181.28125 147.234375 L 182.398438 146.664062 C 183.628906 146.039062 184.125 144.523438 183.5 143.292969 C 182.875 142.0625 181.355469 141.570312 180.125 142.195312 L 166.710938 149.011719 C 165.484375 149.636719 164.988281 151.152344 165.613281 152.382812 C 166.238281 153.613281 167.753906 154.105469 168.984375 153.480469 L 176.808594 149.503906 L 178.515625 152.859375 C 179.140625 154.089844 180.65625 154.582031 181.886719 153.957031 Z M 181.886719 153.957031 " fill-opacity="1" fill-rule="nonzero"/></g></g></g><g clip-path="url(#7a8784ffa2)"><g clip-path="url(#da2c6a594d)"><g clip-path="url(#577a097132)"><path fill="#ffffff" d="M 188.035156 159.695312 C 188.660156 160.921875 190.179688 161.417969 191.410156 160.792969 L 205.714844 153.519531 L 211.226562 164.363281 C 211.851562 165.59375 213.371094 166.089844 214.597656 165.464844 C 215.828125 164.839844 216.324219 163.320312 215.699219 162.089844 L 209.050781 149.011719 C 208.425781 147.785156 206.910156 147.289062 205.679688 147.914062 L 189.136719 156.320312 C 187.90625 156.945312 187.410156 158.464844 188.035156 159.695312 Z M 188.035156 159.695312 " fill-opacity="1" fill-rule="nonzero"/></g></g></g><g clip-path="url(#5d6dff5f46)"><g clip-path="url(#1ec77b1269)"><g clip-path="url(#9e646146c0)"><path fill="#ffffff" d="M 213.144531 182.800781 C 214.371094 182.175781 214.867188 180.660156 214.242188 179.429688 L 210.4375 171.941406 C 209.8125 170.710938 208.292969 170.214844 207.0625 170.839844 C 205.835938 171.464844 205.339844 172.984375 205.964844 174.210938 L 209.769531 181.703125 C 210.394531 182.929688 211.800781 183.484375 213.144531 182.800781 Z M 213.144531 182.800781 " fill-opacity="1" fill-rule="nonzero"/></g></g></g><g clip-path="url(#5625da87fb)"><g clip-path="url(#d055a9e5da)"><g clip-path="url(#27a62535ff)"><path fill="#ffffff" d="M 209.136719 204.808594 C 210.367188 204.183594 210.863281 202.667969 210.238281 201.4375 L 205.691406 192.496094 C 205.066406 191.265625 203.550781 190.769531 202.320312 191.394531 L 197.847656 193.667969 C 196.621094 194.292969 196.125 195.8125 196.75 197.039062 C 197.375 198.269531 198.890625 198.765625 200.121094 198.140625 L 202.355469 197.003906 L 205.765625 203.710938 C 206.390625 204.941406 207.910156 205.433594 209.136719 204.808594 Z M 209.136719 204.808594 " fill-opacity="1" fill-rule="nonzero"/></g></g></g><g clip-path="url(#f5bb99299d)"><g clip-path="url(#edbf2415e3)"><g clip-path="url(#a7bae2abd5)"><path fill="#ffffff" d="M 196.355469 205.398438 L 199.878906 212.328125 C 200.503906 213.558594 202.019531 214.054688 203.25 213.429688 C 204.480469 212.804688 204.976562 211.285156 204.351562 210.054688 L 200.769531 203.015625 C 200.144531 201.785156 198.628906 201.289062 197.398438 201.914062 C 196.226562 202.652344 195.675781 204.058594 196.355469 205.398438 Z M 196.355469 205.398438 " fill-opacity="1" fill-rule="nonzero"/></g></g></g><g clip-path="url(#2ee1660273)"><g clip-path="url(#a0976fc857)"><g clip-path="url(#20ca1a97e9)"><path fill="#ffffff" d="M 222.382812 206.515625 L 214.144531 190.308594 C 213.519531 189.078125 212.003906 188.585938 210.773438 189.210938 C 209.542969 189.835938 209.050781 191.351562 209.675781 192.582031 L 216.777344 206.554688 L 209.511719 210.246094 C 208.28125 210.871094 207.785156 212.390625 208.410156 213.617188 C 209.035156 214.847656 210.554688 215.34375 211.78125 214.71875 L 221.285156 209.890625 C 222.515625 209.265625 223.007812 207.746094 222.382812 206.515625 Z M 222.382812 206.515625 " fill-opacity="1" fill-rule="nonzero"/></g></g></g><g clip-path="url(#a3a0206c3d)"><g clip-path="url(#d4da6dbd8a)"><g clip-path="url(#5359ff0e0f)"><path fill="#ffffff" d="M 221.558594 166.148438 L 216.304688 168.816406 C 215.074219 169.441406 214.578125 170.960938 215.203125 172.1875 C 215.828125 173.417969 217.347656 173.914062 218.574219 173.289062 L 226.066406 169.480469 C 227.296875 168.855469 227.789062 167.339844 227.164062 166.109375 L 223.1875 158.285156 C 222.5625 157.054688 221.046875 156.5625 219.816406 157.1875 C 218.585938 157.808594 218.089844 159.328125 218.714844 160.558594 Z M 221.558594 166.148438 " fill-opacity="1" fill-rule="nonzero"/></g></g></g><g clip-path="url(#b30dc6f6bf)"><g clip-path="url(#9300d4958e)"><g clip-path="url(#d9088307ec)"><path fill="#ffffff" d="M 232.316406 148.019531 C 233.546875 147.394531 234.042969 145.875 233.417969 144.648438 L 230.691406 139.28125 C 230.066406 138.050781 228.546875 137.558594 227.316406 138.183594 L 213.679688 145.113281 C 212.449219 145.738281 211.957031 147.253906 212.582031 148.484375 C 213.207031 149.714844 214.722656 150.210938 215.953125 149.585938 L 227.355469 143.789062 L 228.945312 146.917969 C 229.570312 148.148438 231.085938 148.644531 232.316406 148.019531 Z M 232.316406 148.019531 " fill-opacity="1" fill-rule="nonzero"/></g></g></g><g clip-path="url(#da34abda11)"><g clip-path="url(#4dbb6eb373)"><g clip-path="url(#0994297f21)"><path fill="#ffffff" d="M 241.828125 144.589844 C 241.203125 143.363281 239.683594 142.867188 238.457031 143.492188 C 237.226562 144.117188 236.730469 145.632812 237.355469 146.863281 L 240.765625 153.570312 L 231.824219 158.117188 L 228.753906 152.078125 C 228.128906 150.851562 226.613281 150.355469 225.382812 150.980469 C 224.152344 151.605469 223.660156 153.121094 224.285156 154.351562 L 228.488281 162.625 C 229.113281 163.855469 230.628906 164.347656 231.859375 163.722656 L 245.273438 156.90625 C 246.503906 156.28125 246.996094 154.765625 246.371094 153.535156 Z M 241.828125 144.589844 " fill-opacity="1" fill-rule="nonzero"/></g></g></g><g clip-path="url(#86935f07dc)"><g clip-path="url(#0e0949cc26)"><g clip-path="url(#1950da22ee)"><path fill="#ffffff" d="M 201.039062 252.527344 C 202.269531 251.902344 202.765625 250.386719 202.140625 249.15625 L 196.0625 237.195312 C 195.4375 235.964844 193.917969 235.472656 192.6875 236.097656 L 185.980469 239.503906 L 184.675781 236.933594 C 184.050781 235.707031 182.53125 235.210938 181.304688 235.835938 C 180.074219 236.460938 179.578125 237.976562 180.203125 239.207031 L 182.648438 244.015625 C 183.273438 245.242188 184.789062 245.738281 186.019531 245.113281 L 192.726562 241.703125 L 197.667969 251.429688 C 198.292969 252.660156 199.8125 253.152344 201.039062 252.527344 Z M 201.039062 252.527344 " fill-opacity="1" fill-rule="nonzero"/></g></g></g><g clip-path="url(#0d67b86563)"><g clip-path="url(#95d107b334)"><g clip-path="url(#a0b6d526b2)"><path fill="#ffffff" d="M 218.589844 243.609375 L 232.226562 236.679688 C 233.457031 236.054688 233.953125 234.535156 233.328125 233.304688 C 232.703125 232.078125 231.183594 231.582031 229.953125 232.207031 L 218.554688 238 L 215.710938 232.414062 C 215.085938 231.183594 213.570312 230.6875 212.339844 231.3125 L 201.164062 236.996094 C 199.933594 237.621094 199.4375 239.136719 200.0625 240.367188 C 200.6875 241.597656 202.207031 242.089844 203.433594 241.464844 L 212.378906 236.921875 L 215.21875 242.511719 C 215.84375 243.738281 217.359375 244.234375 218.589844 243.609375 Z M 218.589844 243.609375 " fill-opacity="1" fill-rule="nonzero"/></g></g></g><g clip-path="url(#03b0527253)"><g clip-path="url(#c99cc7b3f5)"><g clip-path="url(#393e87c120)"><path fill="#ffffff" d="M 238.304688 222.617188 L 234.78125 215.6875 C 234.15625 214.457031 232.636719 213.964844 231.410156 214.589844 C 230.179688 215.214844 229.683594 216.730469 230.308594 217.960938 L 232.695312 222.65625 L 221.851562 228.167969 C 220.625 228.792969 220.128906 230.308594 220.753906 231.539062 C 221.378906 232.769531 222.894531 233.261719 224.125 232.636719 L 237.203125 225.992188 C 238.433594 225.367188 238.929688 223.847656 238.304688 222.617188 Z M 238.304688 222.617188 " fill-opacity="1" fill-rule="nonzero"/></g></g></g><g clip-path="url(#efe8186ee7)"><g clip-path="url(#a8dfdd9c9b)"><g clip-path="url(#5200a69817)"><path fill="#ffffff" d="M 195.972656 232.316406 C 196.597656 233.546875 198.113281 234.042969 199.34375 233.417969 L 224.160156 220.804688 C 225.390625 220.179688 225.882812 218.664062 225.257812 217.433594 C 224.632812 216.203125 223.117188 215.707031 221.886719 216.332031 L 197.070312 228.945312 C 195.84375 229.570312 195.347656 231.089844 195.972656 232.316406 Z M 195.972656 232.316406 " fill-opacity="1" fill-rule="nonzero"/></g></g></g><g clip-path="url(#c0f877d085)"><g clip-path="url(#f0d075e097)"><g clip-path="url(#dcebcc027e)"><path fill="#ffffff" d="M 235.398438 190.058594 C 236.628906 189.433594 237.121094 187.914062 236.496094 186.683594 C 235.871094 185.457031 234.355469 184.960938 233.125 185.585938 L 225.859375 189.277344 L 220.917969 179.554688 C 220.292969 178.324219 218.773438 177.828125 217.542969 178.453125 C 216.316406 179.078125 215.820312 180.597656 216.445312 181.824219 L 222.523438 193.785156 C 223.148438 195.015625 224.667969 195.511719 225.894531 194.886719 Z M 235.398438 190.058594 " fill-opacity="1" fill-rule="nonzero"/></g></g></g><g clip-path="url(#78d54a7d42)"><g clip-path="url(#23bfba0546)"><g clip-path="url(#175b4b6fdd)"><path fill="#ffffff" d="M 254.363281 174.792969 L 245.421875 179.335938 L 242.011719 172.628906 C 241.386719 171.398438 239.871094 170.90625 238.640625 171.53125 L 227.460938 177.210938 C 226.234375 177.835938 225.738281 179.351562 226.363281 180.582031 C 226.988281 181.8125 228.503906 182.308594 229.734375 181.683594 L 238.675781 177.136719 L 242.085938 183.84375 C 242.710938 185.074219 244.226562 185.570312 245.457031 184.945312 L 256.636719 179.261719 C 257.867188 178.636719 258.359375 177.121094 257.734375 175.890625 C 257.109375 174.660156 255.59375 174.167969 254.363281 174.792969 Z M 254.363281 174.792969 " fill-opacity="1" fill-rule="nonzero"/></g></g></g><g clip-path="url(#bf873d9c36)"><g clip-path="url(#fa58dd6abc)"><g clip-path="url(#808f1b08b9)"><path fill="#ffffff" d="M 252.074219 167.515625 L 248.664062 160.808594 C 248.039062 159.578125 246.519531 159.085938 245.292969 159.710938 C 244.0625 160.335938 243.566406 161.851562 244.191406 163.082031 L 247.601562 169.789062 C 248.226562 171.019531 249.742188 171.511719 250.972656 170.886719 C 252.203125 170.261719 252.699219 168.746094 252.074219 167.515625 Z M 252.074219 167.515625 " fill-opacity="1" fill-rule="nonzero"/></g></g></g><g clip-path="url(#81c28ef024)"><g clip-path="url(#37bce225ce)"><g clip-path="url(#b66ef04954)"><path fill="#ffffff" d="M 124.476562 207.046875 C 125.707031 206.421875 126.199219 204.90625 125.574219 203.675781 L 121.597656 195.851562 C 120.972656 194.621094 119.457031 194.128906 118.226562 194.753906 C 116.996094 195.378906 116.5 196.894531 117.125 198.125 L 121.105469 205.949219 C 121.730469 207.179688 123.246094 207.671875 124.476562 207.046875 Z M 124.476562 207.046875 " fill-opacity="1" fill-rule="nonzero"/></g></g></g><g clip-path="url(#552e051a12)"><g clip-path="url(#afe179fb5e)"><g clip-path="url(#6fbbb39dd5)"><path fill="#ffffff" d="M 129.019531 215.992188 L 132.375 214.285156 L 134.078125 217.640625 C 134.703125 218.871094 136.222656 219.363281 137.449219 218.738281 C 138.679688 218.113281 139.175781 216.597656 138.550781 215.367188 L 135.710938 209.777344 C 135.085938 208.550781 133.566406 208.054688 132.335938 208.679688 L 126.75 211.519531 C 125.519531 212.144531 125.023438 213.664062 125.648438 214.890625 C 126.273438 216.121094 127.789062 216.617188 129.019531 215.992188 Z M 129.019531 215.992188 " fill-opacity="1" fill-rule="nonzero"/></g></g></g><g clip-path="url(#cbb0d2b29a)"><g clip-path="url(#b646e09f63)"><g clip-path="url(#e5313263bb)"><path fill="#ffffff" d="M 137.523438 238.253906 C 138.148438 239.484375 139.664062 239.980469 140.894531 239.355469 C 142.125 238.730469 142.617188 237.210938 141.992188 235.980469 L 138.640625 229.386719 L 150.9375 223.136719 C 152.167969 222.511719 152.664062 220.996094 152.039062 219.765625 C 151.414062 218.535156 149.894531 218.039062 148.664062 218.664062 L 134.132812 226.050781 C 132.902344 226.675781 132.410156 228.195312 133.035156 229.421875 Z M 137.523438 238.253906 " fill-opacity="1" fill-rule="nonzero"/></g></g></g><g clip-path="url(#c30516b78b)"><g clip-path="url(#bea346f619)"><g clip-path="url(#79248858ed)"><path fill="#ffffff" d="M 146.464844 233.710938 C 147.089844 234.9375 148.605469 235.433594 149.835938 234.808594 L 164.257812 227.480469 C 165.488281 226.855469 165.980469 225.335938 165.355469 224.109375 L 160.753906 215.054688 C 160.128906 213.824219 158.613281 213.328125 157.382812 213.953125 C 156.152344 214.578125 155.65625 216.097656 156.28125 217.324219 L 159.75 224.144531 L 147.566406 230.335938 C 146.335938 230.960938 145.839844 232.480469 146.464844 233.710938 Z M 146.464844 233.710938 " fill-opacity="1" fill-rule="nonzero"/></g></g></g><g clip-path="url(#b7c14d86af)"><g clip-path="url(#134db3ff18)"><g clip-path="url(#fa04ef1484)"><path fill="#ffffff" d="M 194.730469 146.023438 C 195.960938 145.398438 196.457031 143.878906 195.832031 142.652344 L 185.605469 122.53125 C 184.980469 121.300781 183.460938 120.804688 182.234375 121.429688 C 181.003906 122.054688 180.507812 123.574219 181.132812 124.804688 L 190.222656 142.6875 L 187.988281 143.824219 C 186.757812 144.449219 186.265625 145.964844 186.890625 147.195312 C 187.515625 148.425781 189.03125 148.921875 190.261719 148.296875 Z M 194.730469 146.023438 " fill-opacity="1" fill-rule="nonzero"/></g></g></g><g clip-path="url(#fad595c53b)"><g clip-path="url(#f55c2eabf1)"><g clip-path="url(#99b64fb1c3)"><path fill="#ffffff" d="M 167.519531 186.578125 L 170.359375 192.167969 C 170.984375 193.394531 172.503906 193.890625 173.734375 193.265625 L 178.203125 190.992188 C 179.433594 190.367188 179.929688 188.851562 179.304688 187.621094 C 178.679688 186.390625 177.160156 185.898438 175.933594 186.523438 L 173.695312 187.660156 L 171.992188 184.304688 C 171.367188 183.074219 169.851562 182.582031 168.621094 183.207031 C 167.390625 183.832031 166.894531 185.347656 167.519531 186.578125 Z M 167.519531 186.578125 " fill-opacity="1" fill-rule="nonzero"/></g></g></g><g clip-path="url(#74802fa026)"><g clip-path="url(#925b4d6262)"><g clip-path="url(#74a70a4a95)"><path fill="#ffffff" d="M 179.707031 163.503906 L 181.410156 166.859375 L 178.058594 168.5625 C 176.828125 169.1875 176.332031 170.707031 176.957031 171.933594 C 177.582031 173.164062 179.101562 173.660156 180.328125 173.035156 L 185.917969 170.195312 C 187.148438 169.570312 187.644531 168.050781 187.019531 166.824219 L 184.175781 161.234375 C 183.550781 160.003906 182.035156 159.507812 180.804688 160.132812 C 179.574219 160.757812 179.082031 162.277344 179.707031 163.503906 Z M 179.707031 163.503906 " fill-opacity="1" fill-rule="nonzero"/></g></g></g><g clip-path="url(#5f671d3f78)"><g clip-path="url(#a17107c4ec)"><g clip-path="url(#f0b99da5d0)"><path fill="#dc2f34" d="M 86.222656 233.949219 L 61.53125 246.941406 L 2.164062 134.105469 L 114.996094 74.738281 L 127.988281 99.425781 L 39.84375 145.804688 Z M 86.222656 233.949219 " fill-opacity="1" fill-rule="nonzero"/></g></g></g><g clip-path="url(#ba1164dabf)"><g clip-path="url(#4682e4997e)"><g clip-path="url(#21b00a7143)"><path fill="#004a93" d="M 280.269531 132.296875 L 304.957031 119.304688 L 245.589844 6.472656 L 132.757812 65.839844 L 145.746094 90.53125 L 233.890625 44.152344 Z M 280.269531 132.296875 " fill-opacity="1" fill-rule="nonzero"/></g></g></g><g clip-path="url(#26d842a4df)"><g clip-path="url(#26c4eb8ee2)"><g clip-path="url(#07e7a4a017)"><path fill="#ffdf00" d="M 93.929688 249.171875 L 69.242188 262.164062 L 128.609375 375 L 241.445312 315.628906 L 228.453125 290.941406 L 140.308594 337.316406 Z M 93.929688 249.171875 " fill-opacity="1" fill-rule="nonzero"/></g></g></g><g clip-path="url(#fb1d4c344f)"><g clip-path="url(#8f1f2122cb)"><g clip-path="url(#b2073830b2)"><path fill="#00abe7" d="M 287.433594 147.300781 L 312.125 134.3125 L 371.492188 247.144531 L 258.65625 306.515625 L 245.667969 281.824219 L 333.8125 235.445312 Z M 287.433594 147.300781 " fill-opacity="1" fill-rule="nonzero"/></g></g></g></svg>