<svg width="32" height="32" viewBox="0 0 32 32" fill="none" xmlns="http://www.w3.org/2000/svg">
<path fill-rule="evenodd" clip-rule="evenodd" d="M17.0923 1.11628C17.0923 0.499775 16.5925 0 15.976 0C15.3595 0 14.8597 0.499775 14.8597 1.11628V2.23256L7.9483 2.23248C7.11179 2.23184 6.45222 2.23133 5.83098 2.43353C5.55858 2.52219 5.29623 2.6392 5.04826 2.78265C4.48275 3.10978 4.04245 3.60088 3.48404 4.22372L3.35134 4.37161C2.74864 5.04276 2.24332 5.60548 1.87541 6.10484C1.48882 6.62956 1.1874 7.16972 1.06829 7.81361C0.977238 8.30579 0.977238 8.81049 1.06829 9.30267C1.1874 9.94656 1.48882 10.4867 1.87541 11.0114C2.24331 11.5108 2.74863 12.0735 3.35132 12.7447L3.48404 12.8926C4.04245 13.5154 4.48276 14.0065 5.04826 14.3336C5.29623 14.4771 5.55858 14.5941 5.83098 14.6828C6.45222 14.885 7.11179 14.8844 7.9483 14.8838L14.8597 14.8837V15.6279L7.7329 15.6279C6.73632 15.6279 5.90473 15.6279 5.23149 15.6963C4.52679 15.768 3.87284 15.9239 3.28345 16.3177C2.83653 16.6163 2.45281 17.0001 2.15419 17.447C1.76037 18.0364 1.60452 18.6903 1.53283 19.395C1.46434 20.0682 1.46436 20.8998 1.46439 21.8964V22.0106C1.46436 23.0071 1.46434 23.8387 1.53283 24.512C1.60452 25.2167 1.76037 25.8706 2.15419 26.46C2.45281 26.9069 2.83653 27.2906 3.28345 27.5893C3.87284 27.9831 4.52679 28.1389 5.23149 28.2106C5.90473 28.2791 6.73632 28.2791 7.73291 28.2791H14.8597V29.7674H12.9993C12.3828 29.7674 11.883 30.2672 11.883 30.8837C11.883 31.5002 12.3828 32 12.9993 32H18.9528C19.5693 32 20.069 31.5002 20.069 30.8837C20.069 30.2672 19.5693 29.7674 18.9528 29.7674H17.0923V28.2791L24.0037 28.2791C24.8402 28.2798 25.4998 28.2803 26.121 28.0781C26.3934 27.9894 26.6558 27.8724 26.9038 27.729C27.4693 27.4018 27.9096 26.9108 28.468 26.2879L28.6008 26.1399C29.2034 25.4688 29.7087 24.9061 30.0766 24.4068C30.4632 23.8821 30.7646 23.3419 30.8837 22.698C30.9748 22.2058 30.9748 21.7011 30.8837 21.209C30.7646 20.5651 30.4632 20.0249 30.0766 19.5002C29.7087 19.0008 29.2034 18.4381 28.6007 17.7669L28.468 17.6191C27.9096 16.9962 27.4693 16.5051 26.9038 16.178C26.6558 16.0346 26.3934 15.9175 26.121 15.8289C25.4998 15.6267 24.8402 15.6272 24.0037 15.6278L17.0923 15.6279V14.8837L24.2191 14.8837C25.2157 14.8837 26.0473 14.8838 26.7205 14.8153C27.4252 14.7436 28.0792 14.5877 28.6686 14.1939C29.1155 13.8953 29.4992 13.5116 29.7978 13.0647C30.1917 12.4753 30.3475 11.8213 30.4192 11.1166C30.4877 10.4434 30.4877 9.61177 30.4876 8.61517V8.50111C30.4877 7.50451 30.4877 6.6729 30.4192 5.99966C30.3475 5.29495 30.1917 4.64101 29.7978 4.05162C29.4992 3.6047 29.1155 3.22098 28.6686 2.92236C28.0792 2.52854 27.4252 2.37269 26.7205 2.301C26.0473 2.23251 25.2157 2.23253 24.2191 2.23256L17.0923 2.23256V1.11628ZM6.52196 4.55647C6.76331 4.47791 7.0424 4.46512 8.09358 4.46512H24.1621C25.2305 4.46512 25.9478 4.46647 26.4946 4.52209C27.0228 4.57582 27.2668 4.67081 27.4282 4.77866C27.6314 4.9144 27.8058 5.08882 27.9415 5.29196C28.0494 5.45338 28.1444 5.69743 28.1981 6.2256C28.2537 6.77244 28.2551 7.48973 28.2551 8.55814C28.2551 9.62655 28.2537 10.3438 28.1981 10.8907C28.1444 11.4189 28.0494 11.6629 27.9415 11.8243C27.8058 12.0275 27.6314 12.2019 27.4282 12.3376C27.2668 12.4455 27.0228 12.5405 26.4946 12.5942C25.9478 12.6498 25.2305 12.6512 24.1621 12.6512H8.09358C7.0424 12.6512 6.76331 12.6384 6.52196 12.5598C6.39814 12.5195 6.27889 12.4663 6.16618 12.4011C5.94648 12.274 5.75049 12.0749 5.04817 11.2928C4.40046 10.5715 3.96886 10.089 3.67282 9.68719C3.38823 9.30091 3.2969 9.07659 3.2636 8.89656C3.22221 8.67285 3.22221 8.44343 3.2636 8.21972C3.2969 8.03968 3.38823 7.81536 3.67282 7.42909C3.96886 7.02727 4.40046 6.5448 5.04817 5.82349C5.75049 5.04136 5.94648 4.84225 6.16618 4.71516C6.27889 4.64996 6.39814 4.59677 6.52196 4.55647ZM25.4301 17.9518C25.1887 17.8733 24.9096 17.8605 23.8584 17.8605H7.78997C6.72156 17.8605 6.00427 17.8618 5.45744 17.9174C4.92926 17.9712 4.68521 18.0662 4.52379 18.174C4.32065 18.3097 4.14623 18.4842 4.01049 18.6873C3.90264 18.8487 3.80766 19.0928 3.75393 19.621C3.6983 20.1678 3.69695 20.8851 3.69695 21.9535C3.69695 23.0219 3.6983 23.7392 3.75393 24.286C3.80766 24.8142 3.90264 25.0583 4.01049 25.2197C4.14623 25.4228 4.32065 25.5972 4.52379 25.733C4.68521 25.8408 4.92926 25.9358 5.45744 25.9895C6.00427 26.0452 6.72156 26.0465 7.78997 26.0465H23.8584C24.9096 26.0465 25.1887 26.0337 25.4301 25.9552C25.5539 25.9149 25.6731 25.8617 25.7858 25.7965C26.0055 25.6694 26.2015 25.4703 26.9039 24.6881C27.5516 23.9668 27.9832 23.4844 28.2792 23.0825C28.5638 22.6963 28.6551 22.4719 28.6884 22.2919C28.7298 22.0682 28.7298 21.8388 28.6884 21.6151C28.6551 21.435 28.5638 21.2107 28.2792 20.8244C27.9832 20.4226 27.5516 19.9402 26.9039 19.2188C26.2015 18.4367 26.0055 18.2376 25.7858 18.1105C25.6731 18.0453 25.5539 17.9921 25.4301 17.9518Z" fill="#D9D9D9"/>
</svg>
