<svg width="22" height="21" viewBox="0 0 22 21" fill="none" xmlns="http://www.w3.org/2000/svg">
<path fill-rule="evenodd" clip-rule="evenodd" d="M4.75 6.10747C4.75 2.73441 7.43629 0 10.75 0C14.0637 0 16.75 2.73441 16.75 6.10747C16.75 9.4541 14.835 13.3593 11.8472 14.7558C11.1507 15.0814 10.3493 15.0814 9.6528 14.7558C6.66499 13.3593 4.75 9.4541 4.75 6.10747ZM10.75 8C11.8546 8 12.75 7.10457 12.75 6C12.75 4.89543 11.8546 4 10.75 4C9.64543 4 8.75 4.89543 8.75 6C8.75 7.10457 9.64543 8 10.75 8Z" fill="#B0B0B0"/>
<path fill-rule="evenodd" clip-rule="evenodd" d="M2.37731 12.5343C2.63455 12.8589 2.57989 13.3306 2.25523 13.5879C1.68157 14.0424 1.5 14.443 1.5 14.75C1.5 14.993 1.61028 15.2881 1.94064 15.6296C2.27438 15.9747 2.79582 16.3252 3.50556 16.6471C4.75981 17.2159 6.49351 17.6466 8.5 17.8343V17.375C8.5 17.0807 8.6721 16.8137 8.94009 16.6921C9.20807 16.5705 9.52241 16.6168 9.74388 16.8106L11.2439 18.1231C11.4066 18.2655 11.5 18.4713 11.5 18.6875C11.5 18.9038 11.4066 19.1095 11.2439 19.252L9.74388 20.5645C9.52241 20.7582 9.20807 20.8046 8.94009 20.683C8.6721 20.5614 8.5 20.2943 8.5 20V19.3404C6.31512 19.1487 4.35927 18.6814 2.88599 18.0132C2.07214 17.644 1.37069 17.198 0.86244 16.6725C0.35081 16.1435 0 15.494 0 14.75C0 13.7998 0.566665 13.012 1.3237 12.4122C1.64836 12.1549 2.12008 12.2096 2.37731 12.5343ZM19.1227 12.5343C19.3799 12.2096 19.8516 12.1549 20.1763 12.4122C20.9333 13.012 21.5 13.7998 21.5 14.75C21.5 16.1281 20.3319 17.1606 18.9534 17.8514C17.5117 18.5738 15.541 19.0851 13.3256 19.3097C12.9135 19.3514 12.5456 19.0512 12.5038 18.6391C12.4621 18.227 12.7623 17.8591 13.1744 17.8173C15.272 17.6047 17.0514 17.1267 18.2814 16.5103C19.5746 15.8623 20 15.2067 20 14.75C20 14.443 19.8184 14.0424 19.2448 13.5879C18.9201 13.3306 18.8655 12.8589 19.1227 12.5343Z" fill="#B0B0B0"/>
</svg>
