<svg width="34" height="32" viewBox="0 0 34 32" fill="none" xmlns="http://www.w3.org/2000/svg">
<path fill-rule="evenodd" clip-rule="evenodd" d="M26.4792 1.01093C26.5684 1.04074 26.6589 1.07095 26.7506 1.10152L28.7895 1.78116C29.5751 2.04295 30.2636 2.2724 30.8098 2.52651C31.4003 2.80122 31.9414 3.15506 32.3552 3.72905C32.7689 4.30304 32.9334 4.92832 33.0073 5.57539C33.0756 6.17395 33.0756 6.89968 33.0755 7.72768V21.6577C33.0756 22.8424 33.0756 23.8415 32.9838 24.6314C32.8884 25.452 32.6745 26.2632 32.0765 26.9176C31.7219 27.3058 31.2908 27.6165 30.8104 27.8302C30.0005 28.1905 29.1632 28.1369 28.3546 27.9679C27.5762 27.8052 26.6284 27.4893 25.5045 27.1146L25.4322 27.0905C23.5315 26.4569 22.8802 26.2596 22.2479 26.2811C21.996 26.2897 21.7456 26.3233 21.5003 26.3813C20.8846 26.5268 20.3081 26.8886 18.6411 27.9999L16.2964 29.5631C16.2159 29.6167 16.1366 29.6697 16.0583 29.722C14.2578 30.9237 13.0055 31.7596 11.5416 31.9556C10.0777 32.1517 8.64968 31.6748 6.59637 30.9891C6.50709 30.9593 6.41662 30.929 6.32492 30.8985L4.28597 30.2188C3.50046 29.957 2.81197 29.7276 2.26575 29.4735C1.67525 29.1988 1.13409 28.8449 0.720382 28.271C0.306673 27.697 0.142122 27.0717 0.0682472 26.4246C-8.86246e-05 25.8261 -4.59549e-05 25.1003 2.57326e-06 24.2723L3.38207e-06 10.3423C-3.81701e-05 9.15761 -7.33584e-05 8.15848 0.0917671 7.36863C0.187182 6.54804 0.401058 5.7368 0.998987 5.08241C1.35367 4.69423 1.78474 4.38353 2.26515 4.16981C3.07505 3.8095 3.91229 3.86313 4.72094 4.03211C5.4993 4.19475 6.44714 4.51074 7.57101 4.8854L7.64331 4.90951C9.54399 5.54307 10.1953 5.74045 10.8276 5.71886C11.0795 5.71026 11.33 5.67672 11.5753 5.61873C12.191 5.47319 12.7674 5.1114 14.4344 4.00005L16.7792 2.43688C16.8596 2.38326 16.9389 2.33031 17.0172 2.27805C18.8178 1.07625 20.07 0.240435 21.5339 0.0443903C22.9978 -0.151655 24.4259 0.32523 26.4792 1.01093ZM22.8984 2.60939V23.7672C23.8071 23.8657 24.7639 24.1851 26.0246 24.606C26.0944 24.6293 26.1651 24.6529 26.2368 24.6768C27.4524 25.082 28.2589 25.3487 28.875 25.4774C29.4774 25.6033 29.684 25.5466 29.7762 25.5056C29.9363 25.4343 30.08 25.3308 30.1983 25.2014C30.2663 25.1269 30.3854 24.9488 30.4565 24.3375C30.5292 23.7123 30.5313 22.8628 30.5313 21.5815V7.79435C30.5313 6.87999 30.5293 6.30105 30.4794 5.86399C30.4333 5.45943 30.3577 5.30903 30.2911 5.21671C30.2246 5.12439 30.1058 5.00513 29.7366 4.83338C29.3378 4.64783 28.7891 4.46293 27.9217 4.17378L25.946 3.51523C24.4426 3.0141 23.5507 2.72895 22.8984 2.60939ZM20.3542 24.0732V3.16562C19.8263 3.47064 19.1493 3.91461 18.1905 4.55384L15.8457 6.11702C15.7828 6.15893 15.7208 6.20031 15.6596 6.24115C14.4922 7.02017 13.622 7.60088 12.7214 7.92684V28.8344C13.2492 28.5294 13.9262 28.0854 14.8851 27.4462L17.2298 25.883C17.2927 25.8411 17.3547 25.7997 17.4159 25.7589C18.5833 24.9798 19.4536 24.3991 20.3542 24.0732ZM10.1771 29.3906V8.23276C9.26845 8.13426 8.31164 7.81486 7.0509 7.394C6.98113 7.37071 6.91042 7.34711 6.83874 7.32321C5.62318 6.91803 4.81663 6.65133 4.20053 6.52259C3.5981 6.3967 3.39151 6.4534 3.29933 6.49442C3.13919 6.56566 2.9955 6.66922 2.87727 6.79862C2.80921 6.8731 2.69009 7.05116 2.61901 7.66249C2.54632 8.28767 2.54428 9.13718 2.54428 10.4185V24.2057C2.54428 25.12 2.5462 25.6989 2.5961 26.136C2.64229 26.5406 2.71786 26.691 2.7844 26.7833C2.85094 26.8756 2.96973 26.9949 3.33892 27.1666C3.73778 27.3522 4.2864 27.5371 5.15383 27.8262L7.12949 28.4848C8.63289 28.9859 9.52486 29.271 10.1771 29.3906Z" fill="#D9D9D9"/>
</svg>
