<svg width="31" height="32" viewBox="0 0 31 32" fill="none" xmlns="http://www.w3.org/2000/svg">
<path fill-rule="evenodd" clip-rule="evenodd" d="M15.149 10.4186C12.0665 10.4186 9.56759 12.9175 9.56759 16C9.56759 19.0825 12.0665 21.5814 15.149 21.5814C18.2315 21.5814 20.7304 19.0825 20.7304 16C20.7304 12.9175 18.2315 10.4186 15.149 10.4186ZM11.8001 16C11.8001 14.1505 13.2995 12.6512 15.149 12.6512C16.9985 12.6512 18.4978 14.1505 18.4978 16C18.4978 17.8495 16.9985 19.3488 15.149 19.3488C13.2995 19.3488 11.8001 17.8495 11.8001 16Z" fill="#D9D9D9"/>
<path fill-rule="evenodd" clip-rule="evenodd" d="M15.1114 4.07963e-07C14.4499 -1.05038e-05 13.8976 -1.96416e-05 13.4442 0.030914C12.9723 0.0631157 12.5265 0.132538 12.0943 0.311564C11.0914 0.726981 10.2946 1.52379 9.87914 2.52669C9.66287 3.04881 9.6043 3.59906 9.58193 4.19716C9.56396 4.67794 9.32131 5.07908 8.96323 5.28582C8.60516 5.49255 8.13644 5.50211 7.71109 5.27729C7.18193 4.99761 6.67611 4.7732 6.1158 4.69944C5.03955 4.55774 3.9511 4.8494 3.08988 5.51023C2.71874 5.79502 2.43571 6.14639 2.17184 6.53902C1.91837 6.91619 1.64225 7.39445 1.3115 7.96735L1.27391 8.03246C0.943142 8.60534 0.667014 9.08359 0.467116 9.49169C0.259022 9.91653 0.0962405 10.3373 0.035178 10.8011C-0.106513 11.8774 0.185138 12.9658 0.845971 13.8271C1.18996 14.2753 1.63714 14.6012 2.14384 14.9195C2.55133 15.1756 2.77745 15.5864 2.77743 16C2.77741 16.4135 2.55128 16.8243 2.14385 17.0803C1.63708 17.3987 1.18985 17.7245 0.845825 18.1728C0.184993 19.0341 -0.106659 20.1225 0.0350323 21.1988C0.0960947 21.6626 0.258877 22.0834 0.46697 22.5082C0.666866 22.9163 0.942988 23.3945 1.27375 23.9674L1.31135 24.0325C1.6421 24.6054 1.91822 25.0837 2.1717 25.4609C2.43557 25.8535 2.71859 26.2049 3.08974 26.4897C3.95095 27.1505 5.03941 27.4422 6.11566 27.3005C6.67593 27.2267 7.18172 27.0023 7.71085 26.7227C8.13626 26.4978 8.60504 26.5074 8.96316 26.7141C9.32129 26.9209 9.56395 27.3221 9.58194 27.8029C9.60431 28.401 9.66288 28.9512 9.87914 29.4733C10.2946 30.4762 11.0914 31.273 12.0943 31.6884C12.5265 31.8675 12.9723 31.9369 13.4442 31.9691C13.8976 32 14.4499 32 15.1114 32H15.1866C15.8481 32 16.4003 32 16.8537 31.9691C17.3257 31.9369 17.7715 31.8675 18.2037 31.6884C19.2066 31.273 20.0034 30.4762 20.4188 29.4733C20.6351 28.9512 20.6936 28.4009 20.716 27.8028C20.734 27.322 20.9766 26.9209 21.3347 26.7141C21.6928 26.5073 22.1616 26.4977 22.587 26.7226C23.1161 27.0022 23.6219 27.2266 24.1821 27.3004C25.2584 27.4421 26.3468 27.1504 27.2081 26.4896C27.5792 26.2048 27.8622 25.8534 28.1261 25.4608C28.3796 25.0836 28.6557 24.6054 28.9864 24.0325L29.024 23.9674C29.3547 23.3945 29.6309 22.9162 29.8308 22.5081C30.0389 22.0833 30.2017 21.6625 30.2628 21.1987C30.4045 20.1224 30.1128 19.034 29.452 18.1727C29.108 17.7244 28.6608 17.3986 28.154 17.0802C27.7466 16.8242 27.5205 16.4134 27.5205 15.9999C27.5205 15.5865 27.7466 15.1758 28.154 14.9198C28.6608 14.6014 29.1081 14.2755 29.4521 13.8272C30.1129 12.9659 30.4046 11.8775 30.2629 10.8012C30.2018 10.3374 30.0391 9.91663 29.831 9.4918C29.6311 9.08372 29.355 8.60551 29.0242 8.03268L28.9866 7.96752C28.6559 7.39461 28.3797 6.91629 28.1262 6.53912C27.8624 6.14649 27.5793 5.79512 27.2082 5.51033C26.347 4.8495 25.2585 4.55785 24.1823 4.69954C23.622 4.7733 23.1162 4.99768 22.5871 5.27734C22.1617 5.50219 21.6929 5.49263 21.3348 5.28587C20.9767 5.07911 20.734 4.67791 20.716 4.19707C20.6936 3.59901 20.6351 3.04878 20.4188 2.52669C20.0034 1.52379 19.2066 0.72698 18.2037 0.311564C17.7715 0.132538 17.3257 0.0631157 16.8537 0.030914C16.4003 -1.96416e-05 15.8481 -1.05038e-05 15.1866 4.07963e-07H15.1114ZM12.9486 2.37418C13.0635 2.32661 13.2379 2.28274 13.5962 2.25829C13.9645 2.23316 14.4402 2.23256 15.149 2.23256C15.8577 2.23256 16.3334 2.23316 16.7017 2.25829C17.06 2.28274 17.2345 2.32661 17.3493 2.37418C17.8052 2.563 18.1674 2.92519 18.3562 3.38105C18.4158 3.52485 18.4651 3.74902 18.485 4.28051C18.5291 5.45987 19.1378 6.5954 20.2185 7.21932C21.2992 7.84324 22.5869 7.80264 23.6303 7.25117C24.1006 7.00264 24.3194 6.93331 24.4737 6.913C24.9629 6.84859 25.4576 6.98116 25.8491 7.28154C25.9477 7.3572 26.0729 7.48636 26.2733 7.78442C26.4792 8.09083 26.7175 8.50247 27.0719 9.11628C27.4263 9.73009 27.6636 10.1423 27.826 10.4739C27.984 10.7964 28.0332 10.9694 28.0494 11.0926C28.1139 11.5818 27.9813 12.0766 27.6809 12.4681C27.5861 12.5916 27.4167 12.7464 26.9663 13.0294C25.967 13.6572 25.288 14.7521 25.288 15.9998C25.2879 17.2477 25.9669 18.3427 26.9662 18.9706C27.4166 19.2535 27.586 19.4084 27.6808 19.5318C27.9811 19.9233 28.1137 20.4181 28.0493 20.9073C28.0331 21.0305 27.9838 21.2035 27.8259 21.526C27.6635 21.8576 27.4262 22.2698 27.0718 22.8836C26.7174 23.4974 26.479 23.9091 26.2731 24.2155C26.0728 24.5135 25.9476 24.6427 25.849 24.7184C25.4575 25.0187 24.9627 25.1513 24.4735 25.0869C24.3192 25.0666 24.1004 24.9973 23.6302 24.7488C22.5868 24.1973 21.299 24.1567 20.2183 24.7807C19.1378 25.4046 18.5291 26.5401 18.485 27.7194C18.4651 28.2509 18.4158 28.4751 18.3562 28.6189C18.1674 29.0748 17.8052 29.437 17.3493 29.6258C17.2345 29.6734 17.06 29.7173 16.7017 29.7417C16.3334 29.7668 15.8577 29.7674 15.149 29.7674C14.4402 29.7674 13.9645 29.7668 13.5962 29.7417C13.2379 29.7173 13.0635 29.6734 12.9486 29.6258C12.4928 29.437 12.1306 29.0748 11.9418 28.6189C11.8822 28.4751 11.8328 28.251 11.8129 27.7195C11.7688 26.5401 11.1601 25.4046 10.0794 24.7807C8.99878 24.1568 7.71102 24.1974 6.66761 24.7488C6.19739 24.9974 5.97857 25.0667 5.82425 25.087C5.33505 25.1514 4.84029 25.0188 4.44883 24.7185C4.35022 24.6428 4.225 24.5136 4.02468 24.2156C3.81876 23.9092 3.5804 23.4975 3.22602 22.8837C2.87163 22.2699 2.63432 21.8577 2.47192 21.5261C2.31395 21.2036 2.26471 21.0306 2.24849 20.9074C2.18409 20.4182 2.31665 19.9234 2.61703 19.5319C2.71179 19.4085 2.88124 19.2536 3.33161 18.9706C4.33087 18.3428 5.00992 17.2479 5.00999 16.0001C5.01006 14.7522 4.33098 13.6571 3.33162 13.0292C2.88135 12.7463 2.71192 12.5914 2.61718 12.468C2.3168 12.0765 2.18423 11.5817 2.24864 11.0925C2.26486 10.9693 2.3141 10.7963 2.47207 10.4738C2.63447 10.1422 2.87178 9.72999 3.22616 9.11618C3.58055 8.50237 3.8189 8.09073 4.02483 7.78432C4.22514 7.48625 4.35037 7.3571 4.44898 7.28144C4.84044 6.98106 5.33519 6.84849 5.8244 6.91289C5.97872 6.93321 6.19756 7.00254 6.66784 7.25111C7.71119 7.80257 8.9989 7.84316 10.0795 7.21928C11.1601 6.59539 11.7688 5.4599 11.8129 4.28059C11.8328 3.74904 11.8822 3.52486 11.9418 3.38106C12.1306 2.92519 12.4928 2.563 12.9486 2.37418Z" fill="#D9D9D9"/>
</svg>
