<svg width="27" height="32" viewBox="0 0 27 32" fill="none" xmlns="http://www.w3.org/2000/svg">
<path fill-rule="evenodd" clip-rule="evenodd" d="M13.0235 0C9.11893 0 5.95369 3.16524 5.95369 7.06977C5.95369 10.9743 9.11893 14.1395 13.0235 14.1395C16.928 14.1395 20.0932 10.9743 20.0932 7.06977C20.0932 3.16524 16.928 0 13.0235 0ZM8.18625 7.06977C8.18625 4.39825 10.3519 2.23256 13.0235 2.23256C15.695 2.23256 17.8607 4.39825 17.8607 7.06977C17.8607 9.74128 15.695 11.907 13.0235 11.907C10.3519 11.907 8.18625 9.74128 8.18625 7.06977Z" fill="#D9D9D9"/>
<path fill-rule="evenodd" clip-rule="evenodd" d="M13.0235 16.3721C9.58003 16.3721 6.40753 17.1548 4.05668 18.4772C1.74083 19.7798 0.000199764 21.7541 0.000199764 24.186L0.000101025 24.3378C-0.00158046 26.0671 -0.00369084 28.2374 1.89997 29.7876C2.83686 30.5505 4.14751 31.0931 5.91828 31.4515C7.69398 31.8109 10.0084 32 13.0235 32C16.0386 32 18.3529 31.8109 20.1286 31.4515C21.8994 31.0931 23.2101 30.5505 24.1469 29.7876C26.0506 28.2374 26.0485 26.0671 26.0468 24.3378L26.0467 24.186C26.0467 21.7541 24.3061 19.7798 21.9902 18.4772C19.6394 17.1548 16.4669 16.3721 13.0235 16.3721ZM2.23276 24.186C2.23276 22.9189 3.1576 21.5444 5.15122 20.423C7.10985 19.3213 9.89084 18.6047 13.0235 18.6047C16.1561 18.6047 18.9371 19.3213 20.8957 20.423C22.8893 21.5444 23.8142 22.9189 23.8142 24.186C23.8142 26.1325 23.7542 27.2283 22.7372 28.0564C22.1857 28.5055 21.2638 28.9439 19.6857 29.2633C18.1126 29.5817 15.9618 29.7674 13.0235 29.7674C10.0851 29.7674 7.93432 29.5817 6.36119 29.2633C4.78312 28.9439 3.86121 28.5055 3.30973 28.0564C2.29276 27.2283 2.23276 26.1325 2.23276 24.186Z" fill="#D9D9D9"/>
</svg>
