<svg width="32" height="32" viewBox="0 0 32 32" fill="none" xmlns="http://www.w3.org/2000/svg">
<g clip-path="url(#clip0_63_218)">
<path d="M16.0001 1.5238V3.33333M26.8573 23.2381H30.4763M19.6192 23.2381H16.0001V30.4762M16.0001 10.5714V16M16.0001 16H16.0182M16.0001 16H23.2563M23.2382 30.4762H30.4763M1.52393 16H8.76202M30.4763 16H30.4944M3.33345 8.7619H6.9525C7.43241 8.7619 7.89267 8.57125 8.23202 8.2319C8.57137 7.89255 8.76202 7.43229 8.76202 6.95238V3.33333C8.76202 2.85341 8.57137 2.39315 8.23202 2.0538C7.89267 1.71445 7.43241 1.5238 6.9525 1.5238H3.33345C2.85353 1.5238 2.39327 1.71445 2.05392 2.0538C1.71457 2.39315 1.52393 2.85341 1.52393 3.33333V6.95238C1.52393 7.43229 1.71457 7.89255 2.05392 8.2319C2.39327 8.57125 2.85353 8.7619 3.33345 8.7619ZM25.0477 8.7619H28.6668C29.1467 8.7619 29.607 8.57125 29.9463 8.2319C30.2857 7.89255 30.4763 7.43229 30.4763 6.95238V3.33333C30.4763 2.85341 30.2857 2.39315 29.9463 2.0538C29.607 1.71445 29.1467 1.5238 28.6668 1.5238H25.0477C24.5678 1.5238 24.1076 1.71445 23.7682 2.0538C23.4289 2.39315 23.2382 2.85341 23.2382 3.33333V6.95238C23.2382 7.43229 23.4289 7.89255 23.7682 8.2319C24.1076 8.57125 24.5678 8.7619 25.0477 8.7619ZM3.33345 30.4762H6.9525C7.43241 30.4762 7.89267 30.2855 8.23202 29.9462C8.57137 29.6068 8.76202 29.1466 8.76202 28.6667V25.0476C8.76202 24.5677 8.57137 24.1074 8.23202 23.7681C7.89267 23.4287 7.43241 23.2381 6.9525 23.2381H3.33345C2.85353 23.2381 2.39327 23.4287 2.05392 23.7681C1.71457 24.1074 1.52393 24.5677 1.52393 25.0476V28.6667C1.52393 29.1466 1.71457 29.6068 2.05392 29.9462C2.39327 30.2855 2.85353 30.4762 3.33345 30.4762Z" stroke="#D9D9D9" stroke-width="2" stroke-linecap="round" stroke-linejoin="round"/>
</g>
<defs>
<clipPath id="clip0_63_218">
<rect width="32" height="32" fill="white"/>
</clipPath>
</defs>
</svg>
