<svg width="14" height="40" viewBox="0 0 14 40" fill="none" xmlns="http://www.w3.org/2000/svg">
<path d="M4.5425 23.704C4.5425 22.8933 4.61717 22.2 4.7665 21.624C4.93717 21.0267 5.2145 20.4613 5.5985 19.928C6.00383 19.3947 6.54783 18.84 7.2305 18.264C8.0625 17.56 8.7025 16.9733 9.1505 16.504C9.61983 16.0347 9.9505 15.576 10.1425 15.128C10.3345 14.68 10.4305 14.136 10.4305 13.496C10.4305 12.472 10.0998 11.6827 9.4385 11.128C8.77717 10.5733 7.81717 10.296 6.5585 10.296C5.51317 10.296 4.58517 10.4347 3.7745 10.712C2.96383 10.968 2.18517 11.2773 1.4385 11.64L0.4465 9.4C1.29983 8.952 2.2385 8.57867 3.2625 8.28C4.30783 7.98133 5.4705 7.832 6.7505 7.832C8.77717 7.832 10.3452 8.33333 11.4545 9.336C12.5638 10.3387 13.1185 11.704 13.1185 13.432C13.1185 14.392 12.9585 15.2133 12.6385 15.896C12.3398 16.5573 11.9025 17.176 11.3265 17.752C10.7718 18.3067 10.1105 18.904 9.3425 19.544C8.6385 20.1413 8.0945 20.664 7.7105 21.112C7.34783 21.56 7.1025 22.008 6.9745 22.456C6.8465 22.8827 6.7825 23.4053 6.7825 24.024V24.568H4.5425V23.704ZM3.8065 29.272C3.8065 28.4827 3.98783 27.928 4.3505 27.608C4.7345 27.288 5.2145 27.128 5.7905 27.128C6.32383 27.128 6.7825 27.288 7.1665 27.608C7.5505 27.928 7.7425 28.4827 7.7425 29.272C7.7425 30.04 7.5505 30.5947 7.1665 30.936C6.7825 31.2773 6.32383 31.448 5.7905 31.448C5.2145 31.448 4.7345 31.2773 4.3505 30.936C3.98783 30.5947 3.8065 30.04 3.8065 29.272Z" fill="white"/>
</svg>
